SplineFontDB: 3.2
FontName: NewCMSans10-Bold
FullName: NewComputerModernSans10-Bold
FamilyName: NewComputerModernSans10
Weight: Bold
Copyright: (C) 2019-2021 Antonis Tsolomitis. This work is released under the GUST Font License --  see http://tug.org/fonts/licenses/GUST-FONT-LICENSE.txt for details.
Version: 3.93
ItalicAngle: 0
UnderlinePosition: -145
UnderlineWidth: 83
Ascent: 806
Descent: 194
InvalidEm: 0
LayerCount: 2
Layer: 0 0 "Back" 1
Layer: 1 0 "Fore" 0
XUID: [1021 210 1223046955 6132334]
StyleMap: 0x0020
FSType: 12
OS2Version: 3
OS2_WeightWidthSlopeOnly: 0
OS2_UseTypoMetrics: 0
CreationTime: 1254996033
ModificationTime: 1633794286
PfmFamily: 81
TTFWeight: 700
TTFWidth: 5
LineGap: 0
VLineGap: 0
Panose: 0 0 8 0 0 0 0 0 0 0
OS2TypoAscent: 806
OS2TypoAOffset: 0
OS2TypoDescent: -194
OS2TypoDOffset: 0
OS2TypoLinegap: 200
OS2WinAscent: 1134
OS2WinAOffset: 0
OS2WinDescent: 297
OS2WinDOffset: 0
HheadAscent: 1134
HheadAOffset: 0
HheadDescent: -297
HheadDOffset: 0
OS2SubXSize: 650
OS2SubYSize: 600
OS2SubXOff: 0
OS2SubYOff: 75
OS2SupXSize: 650
OS2SupYSize: 600
OS2SupXOff: 0
OS2SupYOff: 350
OS2StrikeYSize: 83
OS2StrikeYPos: 274
OS2CapHeight: 694
OS2XHeight: 458
OS2Vendor: 'UKWN'
OS2CodePages: 20000193.00000000
OS2UnicodeRanges: 20000007.00000000.00000000.00000000
Lookup: 1 0 0 "'aalt' +A6ADwQPMA8MDsgOxA8MDtwAA +A8MDtQAA +A8wDuwOx +A8QDsQAA +A7UDvQOxA7sDuwOxA7oDxAO5A7oDrAAA lookup 0" { "'aalt' +A6ADwQPMA8MDsgOxA8MDtwAA +A8MDtQAA +A8wDuwOx +A8QDsQAA +A7UDvQOxA7sDuwOxA7oDxAO5A7oDrAAA lookup 0 subtable"  } ['aalt' ('DFLT' <'dflt' > 'cyrl' <'dflt' > 'latn' <'AZE ' 'CRT ' 'MOL ' 'NLD ' 'PLK ' 'ROM ' 'TRK ' 'dflt' > ) ]
Lookup: 3 0 0 "'aalt' +A6ADwQPMA8MDsgOxA8MDtwAA +A8MDtQAA +A8wDuwOx +A8QDsQAA +A7UDvQOxA7sDuwOxA7oDxAO5A7oDrAAA lookup 1" { "'aalt' +A6ADwQPMA8MDsgOxA8MDtwAA +A8MDtQAA +A8wDuwOx +A8QDsQAA +A7UDvQOxA7sDuwOxA7oDxAO5A7oDrAAA lookup 1 subtable"  } ['aalt' ('DFLT' <'dflt' > 'cyrl' <'dflt' > 'latn' <'AZE ' 'CRT ' 'MOL ' 'NLD ' 'PLK ' 'ROM ' 'TRK ' 'dflt' > ) ]

StartChar: exclam
Encoding: 33 33 2
Width: 367
GlyphClass: 2
Flags: W
LayerCount: 2
Fore
SplineSet
117 0 m 1
 117 131 l 1
 248 131 l 1
 248 0 l 1
 117 0 l 1
118 694 m 1
 248 694 l 1
 238 199 l 1
 128 200 l 1
 118 694 l 1
EndSplineSet
Validated: 1
EndChar

StartChar: numbersign
Encoding: 35 35 3
Width: 917
GlyphClass: 2
Flags: W
LayerCount: 2
Fore
SplineSet
103 425 m 2
 346 425 l 1
 417 664 l 2
 422 683 438 694 457 694 c 0
 483 694 500 674 500 652 c 0
 500 648 499 644 498 640 c 2
 434 425 l 1
 578 425 l 1
 649 664 l 2
 655 683 671 694 690 694 c 0
 715 694 732 675 732 652 c 0
 732 648 731 644 730 640 c 2
 666 425 l 1
 812 425 l 2
 835 425 854 406 854 382 c 0
 854 359 835 340 812 340 c 2
 640 340 l 1
 595 188 l 1
 812 188 l 2
 835 188 854 169 854 145 c 0
 854 122 835 103 812 103 c 2
 569 103 l 1
 498 -136 l 2
 492 -155 476 -167 457 -167 c 0
 433 -167 415 -147 415 -125 c 0
 415 -121 416 -117 417 -113 c 2
 481 103 l 1
 336 103 l 1
 266 -136 l 2
 260 -155 243 -167 225 -167 c 0
 201 -167 183 -147 183 -125 c 0
 183 -121 183 -117 185 -113 c 2
 248 103 l 1
 103 103 l 2
 80 103 61 122 61 145 c 0
 61 169 80 188 103 188 c 2
 275 188 l 1
 319 340 l 1
 103 340 l 2
 80 340 61 359 61 382 c 0
 61 406 80 425 103 425 c 2
507 188 m 1
 552 340 l 1
 407 340 l 1
 363 188 l 1
 507 188 l 1
EndSplineSet
Validated: 1
EndChar

StartChar: dollar
Encoding: 36 36 4
Width: 550
GlyphClass: 2
Flags: W
LayerCount: 2
Fore
SplineSet
238 704 m 1
 238 750 l 1
 310 750 l 1
 310 704 l 1
 368 700 414 684 468 650 c 1
 469 649 l 1
 450 545 l 1
 449 545 l 1
 404 581 362 599 310 604 c 1
 310 428 l 1
 320 426 l 2
 418 404 487 313 487 210 c 0
 487 89 435 3 310 -9 c 1
 310 -56 l 1
 238 -56 l 1
 238 -9 l 1
 170 -3 105 20 49 59 c 1
 69 168 l 1
 116 125 175 98 238 91 c 1
 238 294 l 1
 226 297 l 1
 225 297 l 1
 130 319 61 402 61 498 c 0
 61 617 117 692 238 704 c 1
310 276 m 1
 310 93 l 1
 354 106 371 141 371 186 c 0
 371 226 346 262 310 276 c 1
238 445 m 1
 238 602 l 1
 198 593 177 564 177 523 c 0
 177 487 203 458 238 445 c 1
EndSplineSet
Validated: 1
EndChar

StartChar: percent
Encoding: 37 37 5
Width: 1029
GlyphClass: 2
Flags: W
CounterMasks: 1 00
LayerCount: 2
Fore
SplineSet
106 699 m 0
 138 735 188 750 243 750 c 0
 364 750 422 674 422 548 c 0
 422 425 366 345 243 345 c 0
 119 345 61 421 61 548 c 0
 61 610 73 662 106 699 c 0
243 418 m 0
 294 418 308 479 308 548 c 0
 308 616 294 678 243 678 c 0
 194 678 181 649 181 548 c 0
 181 450 192 418 243 418 c 0
651 297 m 0
 683 332 732 347 787 347 c 0
 911 347 966 269 966 146 c 0
 966 21 909 -56 787 -56 c 0
 665 -56 605 19 605 146 c 0
 605 208 617 259 651 297 c 0
787 17 m 0
 837 17 852 74 852 146 c 0
 852 214 838 275 787 275 c 0
 737 275 725 244 725 146 c 0
 725 44 738 17 787 17 c 0
821 682 m 2
 277 -39 l 2
 268 -50 256 -56 243 -56 c 0
 219 -56 201 -35 201 -13 c 0
 201 -5 204 4 209 12 c 2
 753 733 l 2
 761 744 774 750 787 750 c 0
 810 750 829 729 829 708 c 0
 829 699 826 690 821 682 c 2
EndSplineSet
Validated: 1
EndChar

StartChar: ampersand
Encoding: 38 38 6
Width: 831
GlyphClass: 2
Flags: W
LayerCount: 2
Fore
SplineSet
732 416 m 1
 697 290 632 180 547 102 c 1
 575 87 606 78 640 78 c 0
 683 78 726 86 766 101 c 1
 768 100 l 1
 767 -5 l 1
 725 -16 683 -22 640 -22 c 0
 572 -22 510 -1 453 33 c 1
 389 -2 319 -22 244 -22 c 0
 139 -22 46 48 46 148 c 0
 46 201 75 248 118 279 c 2
 194 333 l 1
 174 383 162 436 162 491 c 0
 162 607 230 717 337 717 c 0
 432 717 511 644 511 551 c 0
 511 474 413 398 325 336 c 1
 363 272 413 214 466 163 c 1
 543 229 602 328 632 443 c 1
 633 444 l 1
 634 444 l 1
 731 418 l 1
 732 416 l 1
363 101 m 1
 309 150 262 206 227 267 c 1
 218 261 l 2
 191 242 182 207 182 174 c 0
 182 126 202 78 244 78 c 0
 286 78 326 86 363 101 c 1
265 551 m 0
 265 499 276 450 294 403 c 1
 347 443 396 488 396 551 c 0
 396 597 378 644 337 644 c 0
 293 644 265 599 265 551 c 0
EndSplineSet
Validated: 1
EndChar

StartChar: quotesingle
Encoding: 39 39 7
Width: 306
GlyphClass: 2
Flags: W
LayerCount: 2
Fore
SplineSet
88 564 m 2
 87 564 86 564 86 565 c 2
 86 693 l 2
 86 694 87 694 88 694 c 2
 216 694 l 2
 217 694 217 694 217 693 c 2
 217 565 l 1
 217 564 l 1
 152 453 l 1
 151 453 l 1
 88 453 l 1
 126 564 l 1
 88 564 l 2
EndSplineSet
Validated: 1
EndChar

StartChar: parenleft
Encoding: 40 40 8
Width: 428
GlyphClass: 2
Flags: W
LayerCount: 2
Fore
SplineSet
293 750 m 1
 294 750 l 1
 364 750 l 1
 365 749 l 1
 258 628 222 462 222 264 c 0
 222 65 258 -100 365 -221 c 1
 365 -222 l 1
 364 -222 l 1
 294 -222 l 1
 293 -222 l 1
 153 -113 86 67 86 264 c 0
 86 461 153 641 293 750 c 1
EndSplineSet
Validated: 1
EndChar

StartChar: parenright
Encoding: 41 41 9
Width: 428
GlyphClass: 2
Flags: W
LayerCount: 2
Fore
SplineSet
61 748 m 1
 61 749 l 1
 61 750 l 1
 132 750 l 1
 272 642 340 461 340 264 c 0
 340 67 272 -114 132 -222 c 1
 62 -222 l 1
 61 -221 l 1
 168 -100 204 65 204 264 c 0
 204 462 168 628 61 748 c 1
EndSplineSet
Validated: 1
EndChar

StartChar: asterisk
Encoding: 42 42 10
Width: 550
GlyphClass: 2
Flags: W
CounterMasks: 1 00
LayerCount: 2
Fore
SplineSet
236 514 m 1
 93 562 l 2
 76 568 67 583 67 602 c 0
 67 632 94 660 120 660 c 0
 138 660 158 640 254 549 c 1
 223 699 l 2
 222 701 222 704 222 706 c 0
 222 731 246 750 274 750 c 0
 302 750 326 731 326 706 c 0
 326 704 326 701 325 699 c 2
 325 699 305 603 294 549 c 1
 402 650 l 2
 409 657 418 660 428 660 c 0
 454 660 481 632 481 602 c 0
 481 583 472 567 455 562 c 2
 374 535 l 2
 352 527 330 519 312 514 c 1
 455 466 l 2
 472 460 481 444 481 426 c 0
 481 393 452 368 428 368 c 0
 418 368 409 371 402 378 c 2
 335 441 l 2
 320 454 305 467 294 479 c 1
 325 329 l 2
 326 327 326 324 326 321 c 0
 326 297 302 278 274 278 c 0
 246 278 222 297 222 321 c 0
 222 324 222 327 223 329 c 2
 250 461 l 2
 252 467 253 473 254 479 c 2
 146 378 l 2
 139 371 130 368 120 368 c 0
 96 368 67 393 67 426 c 0
 67 444 76 460 93 466 c 2
 127 477 l 2
 158 487 205 505 236 514 c 1
EndSplineSet
Validated: 1
EndChar

StartChar: plus
Encoding: 43 43 11
Width: 856
GlyphClass: 2
Flags: W
LayerCount: 2
Fore
SplineSet
469 588 m 2
 469 306 l 1
 750 306 l 2
 774 306 792 287 792 264 c 0
 792 241 774 222 750 222 c 2
 469 222 l 1
 469 -61 l 2
 469 -84 450 -103 427 -103 c 0
 403 -103 385 -84 385 -61 c 2
 385 222 l 1
 103 222 l 2
 80 222 61 241 61 264 c 0
 61 287 80 306 103 306 c 2
 385 306 l 1
 385 588 l 2
 385 612 403 631 427 631 c 0
 450 631 469 612 469 588 c 2
EndSplineSet
Validated: 1
EndChar

StartChar: comma
Encoding: 44 44 12
Width: 306
GlyphClass: 2
Flags: W
LayerCount: 2
Fore
SplineSet
88 0 m 2
 87 0 86 0 86 1 c 2
 86 130 l 1
 86 130 87 131 88 131 c 2
 216 131 l 2
 217 131 217 130 217 130 c 1
 217 1 l 1
 217 0 l 1
 152 -111 l 1
 151 -111 l 1
 88 -111 l 1
 126 0 l 1
 88 0 l 2
EndSplineSet
Validated: 1
EndChar

StartChar: hyphen
Encoding: 45 45 13
Width: 367
GlyphClass: 2
Flags: W
LayerCount: 2
Fore
SplineSet
12 200 m 1
 12 272 l 1
 304 272 l 1
 304 200 l 1
 12 200 l 1
EndSplineSet
Validated: 1
EndChar

StartChar: period
Encoding: 46 46 14
Width: 306
GlyphClass: 2
Flags: W
LayerCount: 2
Fore
SplineSet
88 0 m 2
 87 0 86 0 86 1 c 2
 86 130 l 1
 86 130 87 131 88 131 c 2
 216 131 l 2
 217 131 217 130 217 130 c 1
 217 1 l 2
 217 0 217 0 216 0 c 2
 88 0 l 2
EndSplineSet
Validated: 1
EndChar

StartChar: slash
Encoding: 47 47 15
Width: 550
GlyphClass: 2
Flags: W
LayerCount: 2
Fore
SplineSet
484 693 m 2
 142 -195 l 2
 135 -212 120 -222 103 -222 c 0
 78 -222 61 -201 61 -180 c 0
 61 -175 62 -170 64 -165 c 2
 406 723 l 2
 412 740 427 750 445 750 c 0
 470 750 487 729 487 708 c 0
 487 703 486 698 484 693 c 2
EndSplineSet
Validated: 1
EndChar

StartChar: zero
Encoding: 48 48 16
Width: 550
GlyphClass: 2
Flags: W
LayerCount: 2
Fore
SplineSet
274 717 m 0
 345 717 415 690 452 630 c 0
 505 545 505 442 505 342 c 0
 505 185 490 -22 274 -22 c 0
 58 -22 43 185 43 342 c 0
 43 503 59 717 274 717 c 0
274 644 m 0
 174 644 179 504 179 361 c 0
 179 207 172 50 274 50 c 0
 376 50 369 207 369 361 c 0
 369 504 374 644 274 644 c 0
EndSplineSet
Validated: 33
EndChar

StartChar: one
Encoding: 49 49 17
Width: 550
GlyphClass: 2
Flags: W
LayerCount: 2
Fore
SplineSet
217 591 m 1
 172 579 124 575 76 575 c 1
 76 647 l 1
 165 647 253 660 321 717 c 1
 355 717 l 1
 355 72 l 1
 472 72 l 1
 472 0 l 1
 91 0 l 1
 91 72 l 1
 217 72 l 1
 217 591 l 1
EndSplineSet
Validated: 1
EndChar

StartChar: two
Encoding: 50 50 18
Width: 550
GlyphClass: 2
Flags: W
LayerCount: 2
Fore
SplineSet
55 99 m 1
 55 100 l 1
 173 220 l 2
 290 339 354 387 353 485 c 0
 353 558 312 617 244 617 c 0
 174 617 136 569 115 487 c 1
 114 486 l 1
 113 486 l 1
 46 573 l 1
 85 669 155 717 259 717 c 0
 399 717 493 616 493 485 c 0
 493 401 443 350 342 272 c 0
 311 248 294 235 276 219 c 2
 150 108 l 1
 493 108 l 1
 493 0 l 1
 55 0 l 1
 55 99 l 1
EndSplineSet
Validated: 33
EndChar

StartChar: three
Encoding: 51 51 19
Width: 550
GlyphClass: 2
Flags: W
LayerCount: 2
Fore
SplineSet
260 628 m 0
 200 628 144 596 114 544 c 1
 113 543 l 1
 61 618 l 1
 109 680 182 717 260 717 c 0
 385 717 472 665 472 543 c 0
 472 471 427 413 360 378 c 1
 453 357 502 295 502 206 c 0
 502 50 411 -22 260 -22 c 0
 181 -22 105 7 46 59 c 1
 63 151 l 1
 116 100 187 72 260 72 c 0
 335 72 355 119 355 206 c 0
 355 291 334 339 260 339 c 2
 183 339 l 1
 183 410 l 1
 233 415 l 2
 292 419 332 476 332 543 c 0
 332 607 311 628 260 628 c 0
EndSplineSet
Validated: 1
EndChar

StartChar: four
Encoding: 52 52 20
Width: 550
GlyphClass: 2
Flags: W
LayerCount: 2
Fore
SplineSet
427 694 m 1
 427 247 l 1
 518 247 l 1
 518 153 l 1
 427 153 l 1
 427 0 l 1
 303 0 l 1
 303 153 l 1
 30 153 l 1
 30 247 l 1
 123 417 l 2
 192 542 273 694 274 694 c 2
 427 694 l 1
134 247 m 1
 309 247 l 1
 309 592 l 1
 307 592 l 1
 307 565 197 362 134 247 c 1
EndSplineSet
Validated: 1
EndChar

StartChar: five
Encoding: 53 53 21
Width: 550
GlyphClass: 2
Flags: W
LayerCount: 2
Fore
SplineSet
82 296 m 1
 82 694 l 1
 457 694 l 1
 457 594 l 1
 213 594 l 1
 213 434 l 1
 233 445 256 451 284 451 c 0
 427 451 493 364 493 220 c 0
 493 60 404 -22 240 -22 c 0
 160 -22 84 17 37 82 c 1
 37 83 l 1
 89 169 l 1
 91 168 l 1
 117 110 176 72 240 72 c 0
 320 72 346 106 346 220 c 0
 346 347 335 379 284 379 c 0
 231 379 201 341 184 296 c 1
 82 296 l 1
EndSplineSet
Validated: 1
EndChar

StartChar: six
Encoding: 54 54 22
Width: 550
GlyphClass: 2
Flags: W
LayerCount: 2
Fore
SplineSet
335 717 m 0
 372 717 397 711 431 696 c 1
 431 606 l 1
 430 605 l 1
 397 622 372 628 335 628 c 0
 223 628 188 553 186 390 c 1
 211 451 256 491 317 491 c 0
 452 491 502 390 502 240 c 0
 502 150 493 98 445 43 c 0
 401 -7 351 -22 274 -22 c 0
 93 -22 46 135 46 349 c 0
 46 564 126 717 335 717 c 0
280 419 m 0
 215 419 186 348 186 254 c 0
 186 126 209 72 274 72 c 0
 341 72 363 88 363 240 c 0
 363 405 343 419 280 419 c 0
EndSplineSet
Validated: 1
EndChar

StartChar: seven
Encoding: 55 55 23
Width: 550
GlyphClass: 2
Flags: W
LayerCount: 2
Fore
SplineSet
502 594 m 2
 501 593 499 591 498 589 c 0
 360 420 284 208 284 -11 c 1
 142 -11 l 1
 142 221 245 440 423 589 c 1
 46 587 l 1
 46 694 l 1
 502 694 l 1
 502 594 l 2
EndSplineSet
Validated: 1
EndChar

StartChar: eight
Encoding: 56 56 24
Width: 550
GlyphClass: 2
Flags: W
LayerCount: 2
Fore
SplineSet
274 717 m 0
 332 717 391 707 434 667 c 0
 474 630 487 574 487 519 c 0
 487 451 452 397 378 375 c 1
 467 349 502 283 502 206 c 0
 502 143 489 79 445 35 c 0
 401 -9 337 -22 274 -22 c 0
 211 -22 147 -9 103 35 c 0
 59 79 46 143 46 206 c 0
 46 283 81 349 170 375 c 1
 96 397 61 451 61 519 c 0
 61 574 74 630 114 667 c 0
 157 707 216 717 274 717 c 0
274 411 m 0
 346 411 359 454 359 519 c 0
 359 588 345 628 274 628 c 0
 202 628 189 588 189 519 c 0
 189 454 202 411 274 411 c 0
274 339 m 0
 193 339 185 280 185 206 c 0
 185 128 193 72 274 72 c 0
 355 72 363 128 363 206 c 0
 363 280 355 339 274 339 c 0
EndSplineSet
Validated: 1
EndChar

StartChar: nine
Encoding: 57 57 25
Width: 550
GlyphClass: 2
Flags: W
LayerCount: 2
Fore
SplineSet
228 -22 m 0
 169 -22 128 -9 80 27 c 1
 79 27 l 1
 126 109 l 1
 128 110 l 1
 159 83 187 72 228 72 c 0
 330 72 360 145 362 305 c 1
 337 244 292 203 231 203 c 0
 94 203 46 307 46 456 c 0
 46 545 56 598 104 651 c 0
 150 702 201 717 280 717 c 0
 456 717 502 559 502 349 c 0
 502 132 426 -22 228 -22 c 0
268 275 m 0
 333 275 362 348 362 443 c 2
 362 456 l 1
 357 578 342 628 280 628 c 0
 209 628 185 609 185 456 c 0
 185 287 206 275 268 275 c 0
EndSplineSet
Validated: 1
EndChar

StartChar: colon
Encoding: 58 58 26
Width: 306
GlyphClass: 2
Flags: W
LayerCount: 2
Fore
SplineSet
88 342 m 2
 87 342 86 342 86 343 c 2
 86 471 l 2
 86 472 87 472 88 472 c 2
 216 472 l 2
 217 472 217 472 217 471 c 2
 217 343 l 2
 217 342 217 342 216 342 c 2
 88 342 l 2
88 0 m 2
 87 0 86 0 86 1 c 2
 86 130 l 1
 86 130 87 131 88 131 c 2
 216 131 l 2
 217 131 217 130 217 130 c 1
 217 1 l 2
 217 0 217 0 216 0 c 2
 88 0 l 2
EndSplineSet
Validated: 1
EndChar

StartChar: semicolon
Encoding: 59 59 27
Width: 306
GlyphClass: 2
Flags: W
LayerCount: 2
Fore
SplineSet
88 342 m 2
 87 342 86 342 86 343 c 2
 86 471 l 2
 86 472 87 472 88 472 c 2
 216 472 l 2
 217 472 217 472 217 471 c 2
 217 343 l 2
 217 342 217 342 216 342 c 2
 88 342 l 2
88 0 m 2
 87 0 86 0 86 1 c 2
 86 130 l 1
 86 130 87 131 88 131 c 2
 216 131 l 2
 217 131 217 130 217 130 c 1
 217 1 l 1
 217 0 l 1
 152 -111 l 1
 151 -111 l 1
 88 -111 l 1
 126 0 l 1
 88 0 l 2
EndSplineSet
Validated: 1
EndChar

StartChar: equal
Encoding: 61 61 28
Width: 856
GlyphClass: 2
Flags: W
LayerCount: 2
Fore
SplineSet
103 425 m 2
 750 425 l 2
 774 425 792 406 792 382 c 0
 792 359 774 340 750 340 c 2
 103 340 l 2
 80 340 61 359 61 382 c 0
 61 406 80 425 103 425 c 2
103 188 m 2
 750 188 l 2
 774 188 792 169 792 145 c 0
 792 122 774 103 750 103 c 2
 103 103 l 2
 80 103 61 122 61 145 c 0
 61 169 80 188 103 188 c 2
EndSplineSet
Validated: 1
EndChar

StartChar: question
Encoding: 63 63 29
Width: 519
GlyphClass: 2
Flags: W
LayerCount: 2
Fore
SplineSet
178 0 m 1
 178 131 l 1
 309 131 l 1
 309 0 l 1
 178 0 l 1
244 633 m 0
 186 633 132 608 96 563 c 1
 95 563 l 1
 94 564 l 1
 61 656 l 1
 62 657 l 1
 117 689 180 706 244 706 c 0
 368 706 457 670 457 557 c 0
 457 510 440 468 405 444 c 0
 339 398 296 335 296 265 c 2
 296 220 l 2
 296 219 295 219 295 219 c 1
 192 219 l 1
 192 219 191 219 191 220 c 2
 191 265 l 2
 191 350 234 431 302 499 c 0
 316 513 320 533 320 557 c 0
 320 632 297 633 244 633 c 0
EndSplineSet
Validated: 1
EndChar

StartChar: at
Encoding: 64 64 30
Width: 733
GlyphClass: 2
Flags: W
LayerCount: 2
Fore
SplineSet
298 519 m 0
 336 560 393 577 458 577 c 0
 481 577 503 575 524 570 c 1
 523 571 l 1
 507 609 469 633 427 633 c 0
 255 633 181 522 181 347 c 0
 181 169 258 61 427 61 c 0
 479 61 531 71 580 89 c 1
 671 88 l 1
 605 24 518 -11 427 -11 c 0
 315 -11 219 13 152 79 c 0
 87 143 61 238 61 347 c 0
 61 455 86 551 152 616 c 0
 219 681 315 706 427 706 c 0
 627 706 671 579 671 347 c 0
 671 206 604 118 458 118 c 0
 313 118 245 204 245 347 c 0
 245 417 259 477 298 519 c 0
458 190 m 0
 529 190 551 262 551 347 c 0
 551 434 527 504 458 504 c 0
 387 504 365 435 365 347 c 0
 365 261 386 190 458 190 c 0
EndSplineSet
Validated: 1
EndChar

StartChar: A
Encoding: 65 65 31
Width: 733
GlyphClass: 2
Flags: W
LayerCount: 2
Fore
SplineSet
358 569 m 1
 356 569 l 1
 356 553 303 397 248 237 c 1
 465 237 l 1
 410 397 358 553 358 569 c 1
495 151 m 1
 219 151 l 1
 199 96 181 44 166 0 c 1
 30 0 l 1
 273 694 l 1
 458 694 l 1
 701 0 l 1
 548 0 l 1
 533 44 514 96 495 151 c 1
EndSplineSet
Validated: 1
EndChar

StartChar: B
Encoding: 66 66 32
Width: 733
GlyphClass: 2
Flags: W
LayerCount: 2
Fore
SplineSet
91 0 m 1
 91 694 l 1
 371 694 l 2
 491 694 640 664 640 513 c 0
 640 432 580 383 496 364 c 1
 598 348 670 291 670 195 c 0
 670 38 527 0 401 0 c 2
 91 0 l 1
233 86 m 1
 371 86 l 2
 444 86 531 105 531 195 c 0
 531 297 442 325 355 325 c 2
 233 325 l 1
 233 86 l 1
233 397 m 1
 340 397 l 2
 417 397 504 420 504 513 c 0
 504 596 409 608 340 608 c 2
 233 608 l 1
 233 397 l 1
EndSplineSet
Validated: 1
EndChar

StartChar: C
Encoding: 67 67 33
Width: 703
GlyphClass: 2
Flags: W
LayerCount: 2
Fore
SplineSet
427 706 m 0
 505 706 559 696 633 671 c 1
 634 670 l 1
 611 540 l 1
 609 540 l 1
 552 587 501 606 427 606 c 0
 274 606 208 503 208 347 c 0
 208 192 272 89 427 89 c 0
 520 89 559 101 635 155 c 1
 636 155 l 1
 646 45 l 1
 561 -1 522 -11 427 -11 c 0
 315 -11 219 13 152 79 c 0
 87 143 61 238 61 347 c 0
 61 455 86 551 152 616 c 0
 219 681 315 706 427 706 c 0
EndSplineSet
Validated: 1
EndChar

StartChar: D
Encoding: 68 68 34
Width: 794
GlyphClass: 2
Flags: W
LayerCount: 2
Fore
SplineSet
91 0 m 1
 91 694 l 1
 396 694 l 2
 489 694 584 673 648 606 c 0
 714 536 731 437 731 341 c 0
 730 248 713 151 648 85 c 0
 583 20 489 0 396 0 c 2
 91 0 l 1
236 86 m 1
 359 86 l 2
 425 86 493 98 537 146 c 0
 583 198 587 272 587 341 c 0
 587 414 584 490 537 545 c 0
 494 595 425 608 359 608 c 2
 236 608 l 1
 236 86 l 1
EndSplineSet
Validated: 1
EndChar

StartChar: E
Encoding: 69 69 35
Width: 642
GlyphClass: 2
Flags: W
LayerCount: 2
Fore
SplineSet
91 0 m 1
 91 692 l 1
 579 692 l 1
 579 591 l 1
 239 591 l 1
 239 407 l 1
 548 407 l 1
 548 312 l 1
 239 312 l 1
 239 110 l 1
 594 110 l 1
 594 0 l 1
 91 0 l 1
EndSplineSet
Validated: 1
EndChar

StartChar: F
Encoding: 70 70 36
Width: 611
GlyphClass: 2
Flags: W
LayerCount: 2
Fore
SplineSet
91 0 m 1
 91 692 l 1
 563 692 l 1
 563 591 l 1
 239 591 l 1
 239 393 l 1
 518 393 l 1
 518 299 l 1
 239 299 l 1
 239 0 l 1
 91 0 l 1
EndSplineSet
Validated: 1
EndChar

StartChar: G
Encoding: 71 71 37
Width: 733
GlyphClass: 2
Flags: W
LayerCount: 2
Fore
SplineSet
427 706 m 0
 512 706 571 693 648 657 c 1
 649 656 l 1
 625 526 l 1
 565 583 509 606 427 606 c 0
 274 606 208 503 208 347 c 0
 208 192 272 89 427 89 c 0
 459 89 491 92 522 99 c 1
 522 235 l 1
 428 235 l 2
 427 235 427 236 427 236 c 1
 427 329 l 1
 427 329 427 330 428 330 c 2
 657 330 l 2
 658 330 658 329 658 329 c 1
 658 39 l 1
 658 38 l 1
 585 5 506 -11 427 -11 c 0
 315 -11 219 13 152 79 c 0
 87 143 61 238 61 347 c 0
 61 455 86 551 152 616 c 0
 219 681 315 706 427 706 c 0
EndSplineSet
Validated: 1
EndChar

StartChar: H
Encoding: 72 72 38
Width: 794
GlyphClass: 2
Flags: W
LayerCount: 2
Fore
SplineSet
91 694 m 1
 239 694 l 1
 239 408 l 1
 554 408 l 1
 554 694 l 1
 701 694 l 1
 701 0 l 1
 554 0 l 1
 554 314 l 1
 239 314 l 1
 239 0 l 1
 91 0 l 1
 91 694 l 1
EndSplineSet
Validated: 1
EndChar

StartChar: I
Encoding: 73 73 39
Width: 331
GlyphClass: 2
Flags: W
LayerCount: 2
Fore
SplineSet
91 694 m 1
 238 694 l 1
 238 0 l 1
 91 0 l 1
 91 694 l 1
EndSplineSet
Validated: 1
EndChar

StartChar: J
Encoding: 74 74 40
Width: 519
GlyphClass: 2
Flags: W
LayerCount: 2
Fore
SplineSet
282 694 m 1
 426 694 l 1
 426 146 l 2
 426 40 351 -22 236 -22 c 0
 170 -22 106 -8 46 20 c 1
 67 140 l 1
 68 139 l 1
 92 99 135 75 182 75 c 0
 242 75 282 98 282 146 c 2
 282 694 l 1
EndSplineSet
Validated: 1
EndChar

StartChar: K
Encoding: 75 75 41
Width: 764
GlyphClass: 2
Flags: W
LayerCount: 2
Fore
SplineSet
91 694 m 1
 221 694 l 1
 221 374 l 1
 543 694 l 1
 701 694 l 1
 423 418 l 1
 716 0 l 1
 568 0 l 1
 336 332 l 1
 221 217 l 1
 221 0 l 1
 91 0 l 1
 91 694 l 1
EndSplineSet
Validated: 1
EndChar

StartChar: L
Encoding: 76 76 42
Width: 581
GlyphClass: 2
Flags: W
LayerCount: 2
Fore
SplineSet
91 694 m 1
 238 694 l 1
 238 105 l 1
 533 105 l 1
 533 0 l 1
 91 0 l 1
 91 694 l 1
EndSplineSet
Validated: 1
EndChar

StartChar: M
Encoding: 77 77 43
Width: 978
GlyphClass: 2
Flags: W
LayerCount: 2
Fore
SplineSet
91 0 m 1
 91 694 l 1
 271 694 l 1
 346 511 486 169 486 147 c 1
 488 147 l 1
 488 169 628 511 703 694 c 1
 884 694 l 1
 884 0 l 1
 762 0 l 1
 762 569 l 2
 765 569 616 196 545 22 c 1
 428 22 l 1
 362 184 210 569 214 569 c 1
 214 0 l 1
 91 0 l 1
EndSplineSet
Validated: 37
EndChar

StartChar: N
Encoding: 78 78 44
Width: 794
GlyphClass: 2
Flags: W
LayerCount: 2
Fore
SplineSet
91 0 m 1
 91 694 l 1
 282 694 l 1
 579 119 l 1
 579 694 l 1
 701 694 l 1
 701 0 l 1
 510 0 l 1
 214 575 l 1
 214 0 l 1
 91 0 l 1
EndSplineSet
Validated: 1
EndChar

StartChar: O
Encoding: 79 79 45
Width: 794
GlyphClass: 2
Flags: W
LayerCount: 2
Fore
SplineSet
396 717 m 0
 490 717 585 693 648 623 c 0
 715 547 731 443 731 342 c 0
 731 243 714 141 648 69 c 0
 585 0 490 -22 396 -22 c 0
 303 -22 208 0 145 69 c 0
 78 141 61 243 61 342 c 0
 61 443 77 547 145 623 c 0
 207 693 302 717 396 717 c 0
396 639 m 0
 340 639 284 618 252 571 c 0
 211 510 208 434 208 361 c 0
 208 231 227 58 396 58 c 0
 564 58 584 231 584 361 c 0
 584 487 559 639 396 639 c 0
EndSplineSet
Validated: 1
EndChar

StartChar: P
Encoding: 80 80 46
Width: 703
GlyphClass: 2
Flags: W
LayerCount: 2
Fore
SplineSet
239 0 m 1
 91 0 l 1
 91 694 l 1
 381 694 l 2
 450 694 522 685 575 640 c 0
 622 600 640 539 640 478 c 0
 640 418 621 357 575 320 c 0
 521 277 450 268 381 268 c 2
 239 268 l 1
 239 0 l 1
236 347 m 1
 344 347 l 2
 388 347 433 348 468 377 c 0
 497 401 501 439 501 478 c 0
 501 515 497 555 468 579 c 0
 434 607 388 608 344 608 c 2
 236 608 l 1
 236 347 l 1
EndSplineSet
Validated: 1
EndChar

StartChar: Q
Encoding: 81 81 47
Width: 794
GlyphClass: 2
Flags: W
LayerCount: 2
Fore
SplineSet
396 717 m 0
 490 717 585 693 648 623 c 0
 715 547 731 443 731 342 c 0
 731 221 705 95 596 26 c 1
 701 -111 l 1
 528 -111 l 1
 466 -18 l 1
 443 -21 419 -22 396 -22 c 0
 303 -22 208 0 145 69 c 0
 78 141 61 243 61 342 c 0
 61 443 77 547 145 623 c 0
 207 693 302 717 396 717 c 0
396 639 m 0
 229 639 205 473 205 342 c 0
 205 266 208 188 250 125 c 0
 287 70 350 56 416 56 c 1
 325 194 l 1
 468 194 l 1
 531 111 l 1
 583 176 587 259 587 342 c 0
 587 473 564 639 396 639 c 0
EndSplineSet
Validated: 1
EndChar

StartChar: R
Encoding: 82 82 48
Width: 703
GlyphClass: 2
Flags: W
LayerCount: 2
Fore
SplineSet
91 0 m 1
 91 694 l 1
 366 694 l 2
 497 694 640 654 640 496 c 0
 640 406 583 343 482 321 c 1
 670 0 l 1
 523 0 l 1
 346 311 l 1
 236 311 l 1
 236 0 l 1
 91 0 l 1
236 383 m 1
 347 383 l 2
 420 383 501 389 501 496 c 0
 501 602 422 608 347 608 c 2
 236 608 l 1
 236 383 l 1
EndSplineSet
Validated: 1
EndChar

StartChar: S
Encoding: 83 83 49
Width: 611
GlyphClass: 2
Flags: W
LayerCount: 2
Fore
SplineSet
305 717 m 0
 385 717 441 704 513 668 c 1
 514 667 l 1
 491 538 l 1
 490 537 l 1
 435 590 381 613 305 613 c 0
 236 613 186 588 186 525 c 0
 186 484 223 453 270 442 c 2
 363 420 l 2
 470 395 548 308 548 202 c 0
 548 51 457 -22 305 -22 c 0
 215 -22 127 2 49 47 c 1
 49 48 l 1
 73 179 l 1
 73 178 l 1
 136 120 219 87 305 87 c 0
 375 87 423 117 423 186 c 0
 423 232 385 269 336 281 c 2
 242 303 l 2
 139 327 61 407 61 506 c 0
 61 652 157 717 305 717 c 0
EndSplineSet
Validated: 1
EndChar

StartChar: T
Encoding: 84 84 50
Width: 733
GlyphClass: 2
Flags: W
LayerCount: 2
Fore
SplineSet
292 0 m 1
 292 585 l 1
 40 585 l 1
 40 689 l 1
 692 689 l 1
 692 588 l 1
 439 588 l 1
 439 0 l 1
 292 0 l 1
EndSplineSet
Validated: 1
EndChar

StartChar: U
Encoding: 85 85 51
Width: 764
GlyphClass: 2
Flags: W
LayerCount: 2
Fore
SplineSet
91 694 m 1
 239 694 l 1
 239 231 l 2
 239 186 239 137 269 102 c 0
 296 70 341 64 384 64 c 0
 427 64 473 70 502 102 c 0
 533 136 534 185 534 231 c 2
 534 694 l 1
 671 694 l 1
 671 231 l 2
 671 160 652 88 599 41 c 0
 541 -10 461 -22 384 -22 c 0
 305 -22 223 -11 164 41 c 0
 111 88 91 160 91 231 c 2
 91 694 l 1
EndSplineSet
Validated: 1
EndChar

StartChar: V
Encoding: 86 86 52
Width: 733
GlyphClass: 2
Flags: W
LayerCount: 2
Fore
SplineSet
372 125 m 1
 374 125 l 1
 374 144 506 503 577 694 c 1
 716 694 l 1
 460 0 l 1
 271 0 l 1
 15 694 l 1
 169 694 l 1
 240 503 372 144 372 125 c 1
EndSplineSet
Validated: 1
EndChar

StartChar: W
Encoding: 87 87 53
Width: 1039
GlyphClass: 2
Flags: W
LayerCount: 2
Fore
SplineSet
202 0 m 1
 15 694 l 1
 147 694 l 1
 198 504 292 155 292 125 c 1
 294 125 l 1
 294 155 388 504 439 694 c 1
 605 694 l 1
 657 504 753 144 753 125 c 1
 755 125 l 1
 755 144 852 504 903 694 c 1
 1022 694 l 1
 835 0 l 1
 667 0 l 1
 615 191 517 557 517 569 c 1
 515 569 l 1
 515 557 416 191 365 0 c 1
 202 0 l 1
EndSplineSet
Validated: 1
EndChar

StartChar: X
Encoding: 88 88 54
Width: 733
GlyphClass: 2
Flags: W
LayerCount: 2
Fore
SplineSet
206 694 m 1
 358 487 l 1
 504 694 l 1
 670 694 l 1
 433 368 l 1
 716 0 l 1
 540 0 l 1
 358 262 l 1
 182 0 l 1
 15 0 l 1
 283 368 l 1
 30 694 l 1
 206 694 l 1
EndSplineSet
Validated: 1
EndChar

StartChar: Y
Encoding: 89 89 55
Width: 733
GlyphClass: 2
Flags: W
LayerCount: 2
Fore
SplineSet
373 403 m 1
 375 403 l 1
 375 416 500 596 569 694 c 1
 728 694 l 1
 438 278 l 1
 438 0 l 1
 293 0 l 1
 293 278 l 1
 3 694 l 1
 179 694 l 1
 248 596 373 416 373 403 c 1
EndSplineSet
Validated: 1
EndChar

StartChar: Z
Encoding: 90 90 56
Width: 672
GlyphClass: 2
Flags: W
LayerCount: 2
Fore
SplineSet
427 596 m 1
 76 596 l 1
 76 694 l 1
 609 694 l 1
 609 631 l 1
 609 631 329 224 245 101 c 1
 615 105 l 1
 615 0 l 1
 61 0 l 1
 61 67 l 1
 61 67 344 479 427 596 c 1
EndSplineSet
Validated: 1
EndChar

StartChar: bracketleft
Encoding: 91 91 57
Width: 343
GlyphClass: 2
Flags: W
LayerCount: 2
Fore
SplineSet
215 -150 m 1
 317 -150 l 1
 317 -222 l 1
 85 -222 l 1
 85 750 l 1
 317 750 l 1
 317 678 l 1
 215 678 l 1
 215 -150 l 1
EndSplineSet
Validated: 1
EndChar

StartChar: backslash
Encoding: 92 92 58
Width: 575
GlyphClass: 2
Flags: MW
HStem: 730 20G<87 104.5>
LayerCount: 2
Fore
SplineSet
510 -219 m 0
 510 -239 494 -250 480 -250 c 0
 459 -250 453 -235 447 -220 c 2
 70 699 l 2
 65 712 64 713 64 719 c 0
 64 739 80 750 94 750 c 0
 115 750 120 737 127 720 c 2
 504 -199 l 2
 509 -212 510 -213 510 -219 c 0
EndSplineSet
Validated: 1
EndChar

StartChar: bracketright
Encoding: 93 93 59
Width: 343
GlyphClass: 2
Flags: W
LayerCount: 2
Fore
SplineSet
126 678 m 1
 24 678 l 1
 24 750 l 1
 256 750 l 1
 256 -222 l 1
 24 -222 l 1
 24 -150 l 1
 126 -150 l 1
 126 678 l 1
EndSplineSet
Validated: 1
EndChar

StartChar: asciicircum
Encoding: 94 94 60
Width: 556
GlyphClass: 2
Flags: MW
HStem: 562 21G<6 6 549 549> 685 59<277 278>
VStem: -5 566<584 584>
LayerCount: 2
Fore
SplineSet
561 584 m 1
 549 562 l 1
 277 685 l 1
 6 562 l 1
 -5 584 l 1
 278 744 l 1
 561 584 l 1
EndSplineSet
Validated: 1
EndChar

StartChar: underscore
Encoding: 95 95 61
Width: 733
GlyphClass: 2
Flags: MW
HStem: -193 136<0 733 0 733>
LayerCount: 2
Fore
SplineSet
733 -193 m 1
 0 -193 l 1
 0 -57 l 1
 733 -57 l 1
 733 -193 l 1
EndSplineSet
Validated: 1
EndChar

StartChar: grave
Encoding: 96 96 62
Width: 550
GlyphClass: 2
Flags: MW
HStem: 537 21G<289 326 289 289> 674 20G<146 228 228 238>
LayerCount: 2
Fore
SplineSet
353 550 m 1
 353 537 342 537 326 537 c 2
 289 537 l 1
 130 666 l 2
 125 670 119 675 119 681 c 0
 119 694 130 694 146 694 c 2
 228 694 l 2
 248 694 249 693 258 682 c 2
 344 565 l 2
 353 554 353 550 353 550 c 1
EndSplineSet
Validated: 1
EndChar

StartChar: a
Encoding: 97 97 63
Width: 493
VWidth: 940
GlyphClass: 2
Flags: W
HStem: -10.3477 67.7295<121.347 249.237> 0 21G<310.424 436.475> 216.355 37.6279<212.614 308.542> 397.907 62.084<148.861 289.017>
VStem: 28.2207 123.229<74.0309 172.624> 308.542 127.933<0 65.8477 85.341 216.355 253.983 378.306>
LayerCount: 2
Fore
SplineSet
85.6015625 326.415039062 m 1xbc
 84.6611328125 326.415039062 l 1
 77.1357421875 419.541992188 l 1
 135.458007812 448.703125 181.55078125 459.991210938 246.458007812 459.991210938 c 0
 361.220703125 459.991210938 436.474609375 412.958007812 436.474609375 304.779296875 c 2
 436.474609375 0 l 1
 310.423828125 0 l 1x7c
 310.423828125 65.84765625 l 1
 281.262695312 18.8134765625 222.940429688 -10.34765625 157.092773438 -10.34765625 c 0
 85.6015625 -10.34765625 28.220703125 49.85546875 28.220703125 123.228515625 c 0
 28.220703125 222.940429688 168.381835938 250.220703125 308.541992188 253.983398438 c 1
 308.541992188 304.779296875 l 2
 308.541992188 357.458007812 291.610351562 397.907226562 246.458007812 397.907226562 c 0
 178.728515625 397.907226562 131.6953125 376.271484375 86.5419921875 326.415039062 c 2
 86.5419921875 326.415039062 85.6015625 325.474609375 85.6015625 325.474609375 c 1
 85.6015625 325.474609375 85.6015625 326.415039062 85.6015625 326.415039062 c 1xbc
308.541992188 216.35546875 m 1
 231.407226562 212.592773438 151.44921875 189.076171875 151.44921875 123.228515625 c 0
 151.44921875 87.4833984375 179.669921875 57.3818359375 214.474609375 57.3818359375 c 0xbc
 265.271484375 57.3818359375 308.541992188 91.24609375 308.541992188 135.458007812 c 2
 308.541992188 216.35546875 l 1
EndSplineSet
Validated: 1
EndChar

StartChar: b
Encoding: 98 98 64
Width: 527
VWidth: 940
GlyphClass: 2
Flags: W
HStem: -10.3477 67.7295<222.923 326.331> 0 21G<57.3818 185.313> 386.619 67.7285<233.915 392.733>
VStem: 57.3818 127.932<0 41.3896 72.112 370.116 398.848 652.83> 363.102 128.873<97.2722 352.726>
LayerCount: 2
Fore
SplineSet
185.313476562 354.635742188 m 1xb8
 185.313476562 91.24609375 l 1
 203.186523438 70.55078125 227.64453125 57.3818359375 256.8046875 57.3818359375 c 0
 338.64453125 57.3818359375 363.1015625 101.592773438 363.1015625 222 c 0
 363.1015625 345.228515625 343.34765625 386.619140625 268.092773438 386.619140625 c 0
 236.110351562 386.619140625 206.94921875 374.389648438 185.313476562 354.635742188 c 1xb8
185.313476562 41.3896484375 m 1
 185.313476562 0 l 1
 57.3818359375 0 l 1x78
 57.3818359375 652.830078125 l 1
 182.491210938 652.830078125 l 1
 182.491210938 398.84765625 l 1
 221.059570312 433.65234375 275.619140625 454.34765625 333.940429688 454.34765625 c 0
 451.525390625 454.34765625 491.974609375 351.813476562 491.974609375 222 c 0
 491.974609375 84.6611328125 436.474609375 -10.34765625 301.958007812 -10.34765625 c 0
 255.864257812 -10.34765625 215.415039062 9.4072265625 185.313476562 41.3896484375 c 1
EndSplineSet
Validated: 1
EndChar

StartChar: c
Encoding: 99 99 65
Width: 459
VWidth: 940
GlyphClass: 2
Flags: W
HStem: -10.3477 73.373<198.343 360.706> 386.619 73.3721<197.099 359.268>
VStem: 34.8047 127.933<102.976 343.79>
LayerCount: 2
Fore
SplineSet
257.74609375 386.619140625 m 0
 180.610351562 386.619140625 162.737304688 329.237304688 162.737304688 222 c 0
 162.737304688 124.169921875 180.610351562 63.025390625 257.74609375 63.025390625 c 0
 322.65234375 63.025390625 374.389648438 83.720703125 419.541992188 124.169921875 c 1
 421.423828125 124.169921875 l 1
 428.94921875 33.8642578125 l 1
 428.94921875 32.923828125 l 1
 375.330078125 3.7626953125 322.65234375 -10.34765625 257.74609375 -10.34765625 c 0
 108.177734375 -10.34765625 34.8046875 74.3134765625 34.8046875 222 c 0
 34.8046875 370.626953125 106.296875 459.991210938 257.74609375 459.991210938 c 0
 329.237304688 459.991210938 359.338867188 452.465820312 423.3046875 419.541992188 c 1
 408.25390625 330.177734375 l 1
 406.373046875 330.177734375 l 1
 355.576171875 375.330078125 326.415039062 386.619140625 257.74609375 386.619140625 c 0
EndSplineSet
Validated: 1
EndChar

StartChar: d
Encoding: 100 100 66
Width: 527
VWidth: 940
GlyphClass: 2
Flags: W
HStem: -10.3477 67.7295<194.772 292.255> 0 21G<340.525 469.398> 386.619 67.7285<198.174 301.234>
VStem: 34.8047 127.933<92.9099 346.855> 340.525 128.873<0 48.915 77.1948 374.313 402.61 652.83>
LayerCount: 2
Fore
SplineSet
209.771484375 454.34765625 m 0xb8
 261.508789062 454.34765625 308.541992188 435.534179688 343.34765625 402.610351562 c 1
 343.34765625 652.830078125 l 1
 469.3984375 652.830078125 l 1
 469.3984375 0 l 1
 340.525390625 0 l 1x78
 340.525390625 48.9150390625 l 1
 306.661132812 12.228515625 260.567382812 -10.34765625 207.889648438 -10.34765625 c 0
 81.8388671875 -10.34765625 34.8046875 87.4833984375 34.8046875 222 c 0
 34.8046875 357.458007812 82.779296875 454.34765625 209.771484375 454.34765625 c 0xb8
340.525390625 97.830078125 m 1
 340.525390625 359.338867188 l 1
 321.711914062 376.271484375 296.313476562 386.619140625 269.034179688 386.619140625 c 0
 189.076171875 386.619140625 162.737304688 345.228515625 162.737304688 222 c 0
 162.737304688 100.65234375 183.432617188 57.3818359375 257.74609375 57.3818359375 c 0xb8
 290.669921875 57.3818359375 319.830078125 72.4326171875 340.525390625 97.830078125 c 1
EndSplineSet
Validated: 1
EndChar

StartChar: e
Encoding: 101 101 67
Width: 480
VWidth: 940
GlyphClass: 2
Flags: W
HStem: -10.3477 67.7295<200.941 370.59> 235.17 49.8555<152.39 344.288> 392.263 67.7285<196.53 308.467>
VStem: 28.2207 120.406<117.691 235.17 285.025 339.256>
LayerCount: 2
Fore
SplineSet
403.55078125 406.373046875 m 0
 443.059570312 360.279296875 450.584960938 296.313476562 450.584960938 235.169921875 c 1
 148.626953125 235.169921875 l 1
 148.626953125 153.330078125 167.440429688 57.3818359375 268.092773438 57.3818359375 c 0
 330.177734375 57.3818359375 389.440429688 79.9580078125 435.534179688 121.34765625 c 1
 437.415039062 121.34765625 l 1
 444.940429688 36.6865234375 l 2
 444.940429688 35.74609375 444 35.74609375 444 35.74609375 c 1
 390.381835938 5.64453125 330.177734375 -10.34765625 268.092773438 -10.34765625 c 0
 202.24609375 -10.34765625 135.458007812 2.822265625 88.423828125 47.974609375 c 0
 42.330078125 93.126953125 28.220703125 159.915039062 28.220703125 224.822265625 c 0
 28.220703125 399.788085938 130.75390625 459.991210938 253.983398438 459.991210938 c 0
 309.483398438 459.991210938 366.864257812 447.762695312 403.55078125 406.373046875 c 0
152.389648438 285.025390625 m 1
 344.288085938 285.025390625 l 1
 337.703125 340.525390625 313.24609375 392.262695312 253.983398438 392.262695312 c 0
 195.661132812 392.262695312 161.796875 346.169921875 152.389648438 285.025390625 c 1
EndSplineSet
Validated: 1
EndChar

StartChar: f
Encoding: 102 102 68
Width: 316
VWidth: 940
GlyphClass: 2
Flags: W
HStem: 0 21G<79.958 206.009> 376.271 67.7285<26.3389 79.958 206.009 295.373> 595.449 68.6699<214.319 339.558>
VStem: 79.958 126.051<0 376.271 444 585.882>
LayerCount: 2
Fore
SplineSet
206.008789062 0 m 1
 79.9580078125 0 l 1
 79.9580078125 376.271484375 l 1
 26.3388671875 376.271484375 l 1
 26.3388671875 444 l 1
 79.9580078125 444 l 1
 79.9580078125 514.55078125 l 2
 79.9580078125 619.907226562 158.974609375 664.119140625 269.974609375 664.119140625 c 0
 302.8984375 664.119140625 325.474609375 661.296875 356.516601562 652.830078125 c 1
 356.516601562 652.830078125 357.458007812 559.703125 357.458007812 559.703125 c 1
 357.458007812 559.703125 356.516601562 558.762695312 356.516601562 558.762695312 c 2
 355.576171875 558.762695312 355.576171875 559.703125 355.576171875 559.703125 c 2
 331.119140625 585.1015625 305.720703125 595.44921875 269.974609375 595.44921875 c 0
 229.525390625 595.44921875 203.186523438 579.458007812 203.186523438 541.830078125 c 2
 203.186523438 444 l 1
 295.373046875 444 l 1
 295.373046875 376.271484375 l 1
 206.008789062 376.271484375 l 1
 206.008789062 0 l 1
EndSplineSet
Validated: 1
EndChar

StartChar: g
Encoding: 103 103 69
Width: 527
VWidth: 940
GlyphClass: 2
Flags: W
HStem: -179.67 67.7295<144.846 311.388> 22.5762 67.7285<197.179 286.242> 386.619 67.7285<208.004 299.325>
VStem: 34.8047 127.933<128.121 334.787> 340.525 128.873<-83.9404 113.822 130.324 235.17 236.11 366.925 388.5 454.348>
LayerCount: 2
Fore
SplineSet
343.34765625 388.5 m 1
 343.34765625 454.34765625 l 1
 469.3984375 454.34765625 l 1
 469.3984375 0 l 2
 469.3984375 -123.228515625 386.619140625 -179.669921875 257.74609375 -179.669921875 c 0
 185.313476562 -179.669921875 134.516601562 -166.5 71.4912109375 -130.75390625 c 1
 71.4912109375 -46.0927734375 l 1
 73.373046875 -45.15234375 l 1
 130.75390625 -93.126953125 182.491210938 -111.940429688 257.74609375 -111.940429688 c 0
 317.94921875 -111.940429688 340.525390625 -64.9072265625 340.525390625 0 c 2
 340.525390625 113.822265625 l 1
 317.008789062 59.2626953125 274.677734375 22.576171875 220.118164062 22.576171875 c 0
 94.0673828125 22.576171875 34.8046875 96.8896484375 34.8046875 222 c 0
 34.8046875 364.983398438 94.0673828125 454.34765625 228.584960938 454.34765625 c 0
 276.559570312 454.34765625 316.067382812 428.94921875 343.34765625 388.5 c 1
340.525390625 235.169921875 m 1
 341.465820312 236.110351562 l 1
 343.34765625 236.110351562 l 1
 343.34765625 332.059570312 l 1
 328.296875 364.983398438 302.8984375 386.619140625 269.034179688 386.619140625 c 0
 187.1953125 386.619140625 162.737304688 312.3046875 162.737304688 222 c 0
 162.737304688 144.864257812 188.135742188 90.3046875 257.74609375 90.3046875 c 0
 314.186523438 90.3046875 340.525390625 155.211914062 340.525390625 235.169921875 c 1
EndSplineSet
Validated: 1
EndChar

StartChar: h
Encoding: 104 104 70
Width: 527
VWidth: 940
GlyphClass: 2
Flags: W
HStem: 0 21G<55.5 183.433 342.407 470.339> 386.619 67.7285<250.034 381.781>
VStem: 55.5 126.051<0 340.522 355.576 652.83> 342.407 127.932<0 372.993>
LayerCount: 2
Fore
SplineSet
55.5 652.830078125 m 1
 181.55078125 652.830078125 l 1
 181.55078125 355.576171875 l 1
 208.830078125 413.8984375 262.44921875 454.34765625 327.35546875 454.34765625 c 0
 433.65234375 454.34765625 470.338867188 411.076171875 470.338867188 304.779296875 c 2
 470.338867188 0 l 1
 342.407226562 0 l 1
 342.407226562 304.779296875 l 2
 342.407226562 361.220703125 328.296875 386.619140625 277.5 386.619140625 c 0
 221.059570312 386.619140625 183.432617188 329.237304688 183.432617188 261.508789062 c 2
 183.432617188 0 l 1
 55.5 0 l 1
 55.5 652.830078125 l 1
EndSplineSet
Validated: 1
EndChar

StartChar: i
Encoding: 105 105 71
Width: 240
VWidth: 940
GlyphClass: 2
Flags: W
HStem: 0 21G<55.5 180.61> 538.067 114.763<54.5596 180.61>
VStem: 55.5 125.11<0 444 538.067 652.83>
LayerCount: 2
Fore
SplineSet
55.5 444 m 1
 180.610351562 444 l 1
 180.610351562 0 l 1
 55.5 0 l 1
 55.5 444 l 1
54.5595703125 538.067382812 m 1
 54.5595703125 652.830078125 l 1
 180.610351562 652.830078125 l 1
 180.610351562 538.067382812 l 1
 54.5595703125 538.067382812 l 1
EndSplineSet
Validated: 1
EndChar

StartChar: j
Encoding: 106 106 72
Width: 269
VWidth: 940
GlyphClass: 2
Flags: W
HStem: -167.44 79.957<-47.1507 84.5023> 538.067 114.763<85.6016 210.712>
VStem: 85.6016 125.11<-80.5656 444 538.067 652.83>
LayerCount: 2
Fore
SplineSet
85.6015625 444 m 1
 210.711914062 444 l 1
 210.711914062 -52.677734375 l 2
 210.711914062 -132.635742188 154.271484375 -167.440429688 72.4326171875 -167.440429688 c 0
 24.4580078125 -167.440429688 -21.6357421875 -158.034179688 -65.84765625 -139.220703125 c 1
 -66.7880859375 -138.279296875 l 1
 -46.0927734375 -71.4912109375 l 1
 -25.3984375 -81.8388671875 -2.822265625 -87.4833984375 19.75390625 -87.4833984375 c 0
 53.6181640625 -87.4833984375 85.6015625 -82.779296875 85.6015625 -62.0849609375 c 2
 85.6015625 444 l 1
85.6015625 538.067382812 m 1
 85.6015625 652.830078125 l 1
 210.711914062 652.830078125 l 1
 210.711914062 538.067382812 l 1
 85.6015625 538.067382812 l 1
EndSplineSet
Validated: 1
EndChar

StartChar: k
Encoding: 107 107 73
Width: 499
VWidth: 940
GlyphClass: 2
Flags: W
HStem: 0 21G<64.9072 172.145 340.362 479.746>
VStem: 64.9072 110.059<0 145.805 296.313 652.83>
LayerCount: 2
Fore
SplineSet
172.14453125 145.8046875 m 1
 172.14453125 0 l 1
 64.9072265625 0 l 1
 64.9072265625 652.830078125 l 1
 174.965820312 652.830078125 l 1
 174.965820312 296.313476562 l 1
 316.067382812 444 l 1
 457.169921875 444 l 1
 296.313476562 275.619140625 l 1
 479.74609375 0 l 1
 353.6953125 0 l 1
 222 197.541992188 l 1
 172.14453125 145.8046875 l 1
EndSplineSet
Validated: 1
EndChar

StartChar: l
Encoding: 108 108 74
Width: 240
VWidth: 940
GlyphClass: 2
Flags: W
HStem: 0 21G<55.5 180.61>
VStem: 55.5 125.11<0 652.83>
LayerCount: 2
Fore
SplineSet
55.5 652.830078125 m 1
 180.610351562 652.830078125 l 1
 180.610351562 0 l 1
 55.5 0 l 1
 55.5 652.830078125 l 1
EndSplineSet
Validated: 1
EndChar

StartChar: m
Encoding: 109 109 75
Width: 815
VWidth: 940
GlyphClass: 2
Flags: W
HStem: 0 21G<55.5 183.433 342.407 470.339 629.313 757.246> 386.619 67.7285<250.49 368.312 537.068 668.859>
VStem: 55.5 127.933<0 342.828 349.933 449.645> 342.407 127.932<0 342.828> 629.313 127.933<0 373.787>
CounterMasks: 1 38
LayerCount: 2
Fore
SplineSet
55.5 449.64453125 m 1
 178.728515625 449.64453125 l 1
 178.728515625 349.932617188 l 1
 206.008789062 411.076171875 260.567382812 454.34765625 327.35546875 454.34765625 c 0
 406.373046875 454.34765625 459.05078125 432.711914062 467.516601562 355.576171875 c 1
 495.737304688 413.8984375 549.35546875 454.34765625 614.262695312 454.34765625 c 0
 720.559570312 454.34765625 757.24609375 412.958007812 757.24609375 304.779296875 c 2
 757.24609375 0 l 1
 629.313476562 0 l 1
 629.313476562 304.779296875 l 2
 629.313476562 360.279296875 616.14453125 386.619140625 564.407226562 386.619140625 c 0
 508.907226562 386.619140625 470.338867188 329.237304688 470.338867188 261.508789062 c 2
 470.338867188 0 l 1
 342.407226562 0 l 1
 342.407226562 304.779296875 l 2
 342.407226562 360.279296875 329.237304688 386.619140625 277.5 386.619140625 c 0
 222 386.619140625 183.432617188 329.237304688 183.432617188 261.508789062 c 2
 183.432617188 0 l 1
 55.5 0 l 1
 55.5 449.64453125 l 1
EndSplineSet
Validated: 1
EndChar

StartChar: n
Encoding: 110 110 76
Width: 527
VWidth: 940
GlyphClass: 2
Flags: W
HStem: 0 21G<55.5 183.433 342.407 470.339> 386.619 67.7285<250.324 381.781>
VStem: 55.5 127.933<0 342.828 349.933 449.645> 342.407 127.932<0 372.993>
LayerCount: 2
Fore
SplineSet
55.5 449.64453125 m 1
 178.728515625 449.64453125 l 1
 178.728515625 349.932617188 l 1
 206.008789062 411.076171875 260.567382812 454.34765625 327.35546875 454.34765625 c 0
 433.65234375 454.34765625 470.338867188 411.076171875 470.338867188 304.779296875 c 2
 470.338867188 0 l 1
 342.407226562 0 l 1
 342.407226562 304.779296875 l 2
 342.407226562 361.220703125 328.296875 386.619140625 277.5 386.619140625 c 0
 221.059570312 386.619140625 183.432617188 329.237304688 183.432617188 261.508789062 c 2
 183.432617188 0 l 1
 55.5 0 l 1
 55.5 449.64453125 l 1
EndSplineSet
Validated: 1
EndChar

StartChar: o
Encoding: 111 111 77
Width: 517
VWidth: 940
GlyphClass: 2
Flags: W
HStem: -10.3477 73.373<193.893 321.598> 392.263 67.7285<192.541 322.95>
VStem: 28.2207 128.872<102.293 342.534> 358.398 128.873<102.293 342.534>
LayerCount: 2
Fore
SplineSet
257.74609375 459.991210938 m 0
 321.711914062 459.991210938 386.619140625 444.940429688 429.889648438 398.84765625 c 0
 475.041992188 350.873046875 487.271484375 283.14453125 487.271484375 217.296875 c 0
 487.271484375 154.271484375 474.1015625 90.3046875 429.889648438 46.0927734375 c 0
 384.737304688 1.8818359375 320.771484375 -10.34765625 257.74609375 -10.34765625 c 0
 194.720703125 -10.34765625 130.75390625 1.8818359375 85.6015625 46.0927734375 c 0
 41.3896484375 90.3046875 28.220703125 154.271484375 28.220703125 217.296875 c 0
 28.220703125 283.14453125 40.44921875 350.873046875 85.6015625 398.84765625 c 0
 128.873046875 444.940429688 193.779296875 459.991210938 257.74609375 459.991210938 c 0
257.74609375 392.262695312 m 0
 163.677734375 392.262695312 157.092773438 311.364257812 157.092773438 231.407226562 c 0
 157.092773438 146.74609375 162.737304688 63.025390625 257.74609375 63.025390625 c 0
 352.75390625 63.025390625 358.3984375 146.74609375 358.3984375 231.407226562 c 0
 358.3984375 311.364257812 351.813476562 392.262695312 257.74609375 392.262695312 c 0
EndSplineSet
Validated: 1
EndChar

StartChar: p
Encoding: 112 112 78
Width: 527
VWidth: 940
GlyphClass: 2
Flags: W
HStem: -10.3477 67.7295<223.424 317.385> 381.915 72.4326<239.216 397.907>
VStem: 57.3818 127.932<-157.093 41.3896 72.3836 365.74 396.966 444> 363.102 128.873<107.775 334.264>
LayerCount: 2
Fore
SplineSet
185.313476562 350.873046875 m 1
 185.313476562 91.24609375 l 1
 204.126953125 69.6103515625 227.64453125 57.3818359375 256.8046875 57.3818359375 c 0
 337.703125 57.3818359375 363.1015625 130.75390625 363.1015625 222 c 0
 363.1015625 310.423828125 339.584960938 381.915039062 268.092773438 381.915039062 c 0
 236.110351562 381.915039062 206.94921875 369.686523438 185.313476562 350.873046875 c 1
302.8984375 -10.34765625 m 0
 256.8046875 -10.34765625 216.35546875 9.4072265625 185.313476562 41.3896484375 c 1
 185.313476562 -157.092773438 l 1
 57.3818359375 -157.092773438 l 1
 57.3818359375 444 l 1
 182.491210938 444 l 1
 182.491210938 396.965820312 l 1
 222.940429688 432.711914062 280.322265625 454.34765625 342.407226562 454.34765625 c 0
 453.407226562 454.34765625 491.974609375 351.813476562 491.974609375 222 c 0
 491.974609375 84.6611328125 436.474609375 -10.34765625 302.8984375 -10.34765625 c 0
EndSplineSet
Validated: 1
EndChar

StartChar: q
Encoding: 113 113 79
Width: 527
VWidth: 940
GlyphClass: 2
Flags: W
HStem: -10.3477 67.7295<203.628 293.025> 381.915 72.4326<209.552 297.109>
VStem: 34.8047 127.933<102.947 331.63> 343.348 126.051<-157.093 49.8555 80.5326 359.317 385.678 454.348>
LayerCount: 2
Fore
SplineSet
343.34765625 102.534179688 m 1
 343.34765625 328.296875 l 1
 328.296875 360.279296875 302.8984375 381.915039062 269.034179688 381.915039062 c 0
 190.958007812 381.915039062 162.737304688 313.24609375 162.737304688 222 c 0
 162.737304688 130.75390625 185.313476562 57.3818359375 257.74609375 57.3818359375 c 0
 292.55078125 57.3818359375 322.65234375 74.3134765625 343.34765625 102.534179688 c 1
223.881835938 454.34765625 m 0
 273.737304688 454.34765625 315.126953125 428.008789062 343.34765625 385.677734375 c 1
 343.34765625 454.34765625 l 1
 469.3984375 454.34765625 l 1
 469.3984375 -157.092773438 l 1
 340.525390625 -157.092773438 l 1
 340.525390625 49.85546875 l 1
 307.6015625 12.228515625 262.44921875 -10.34765625 211.65234375 -10.34765625 c 0
 82.779296875 -10.34765625 34.8046875 86.5419921875 34.8046875 222 c 0
 34.8046875 361.220703125 90.3046875 454.34765625 223.881835938 454.34765625 c 0
EndSplineSet
Validated: 1
EndChar

StartChar: r
Encoding: 114 114 80
Width: 349
VWidth: 940
GlyphClass: 2
Flags: W
HStem: 0 21G<56.4404 182.491> 359.339 95.0088<256.633 333.94>
VStem: 56.4404 126.051<0 297.985 333.94 449.645>
LayerCount: 2
Fore
SplineSet
182.491210938 234.228515625 m 2
 182.491210938 0 l 1
 56.4404296875 0 l 1
 56.4404296875 449.64453125 l 1
 176.84765625 449.64453125 l 1
 176.84765625 333.940429688 l 1
 204.126953125 404.491210938 261.508789062 454.34765625 333 454.34765625 c 0
 333.940429688 454.34765625 333.940429688 454.34765625 333.940429688 453.407226562 c 2
 333.940429688 360.279296875 l 2
 333.940429688 359.338867188 333.940429688 359.338867188 333 359.338867188 c 0
 251.161132812 359.338867188 182.491210938 306.661132812 182.491210938 234.228515625 c 2
EndSplineSet
Validated: 1
EndChar

StartChar: s
Encoding: 115 115 81
Width: 396
VWidth: 940
GlyphClass: 2
Flags: W
HStem: -10.3477 74.3135<112.945 268.104> 392.263 67.7285<135.891 292.48>
VStem: 33.8643 94.0684<305.581 383.908> 278.44 93.127<76.0245 154.948>
LayerCount: 2
Fore
SplineSet
75.25390625 426.126953125 m 0
 107.237304688 452.465820312 148.626953125 459.991210938 203.186523438 459.991210938 c 0
 261.508789062 459.991210938 301.958007812 451.525390625 355.576171875 428.94921875 c 1
 356.516601562 428.008789062 l 1
 341.465820312 338.64453125 l 1
 339.584960938 338.64453125 l 1
 293.491210938 377.211914062 251.161132812 392.262695312 191.8984375 392.262695312 c 0
 153.330078125 392.262695312 127.932617188 380.034179688 127.932617188 342.407226562 c 0
 127.932617188 318.889648438 148.626953125 299.135742188 175.907226562 294.432617188 c 2
 239.873046875 282.203125 l 2
 315.126953125 268.092773438 371.567382812 208.830078125 371.567382812 137.338867188 c 0
 371.567382812 31.9833984375 311.364257812 -10.34765625 203.186523438 -10.34765625 c 0
 142.041992188 -10.34765625 82.779296875 4.703125 29.1611328125 33.8642578125 c 1
 28.220703125 34.8046875 l 1
 46.0927734375 136.3984375 l 1
 46.0927734375 136.3984375 47.0341796875 137.338867188 47.0341796875 137.338867188 c 1
 47.0341796875 137.338867188 47.974609375 136.3984375 47.974609375 136.3984375 c 1
 86.5419921875 90.3046875 142.983398438 63.9658203125 203.186523438 63.9658203125 c 0
 247.3984375 63.9658203125 278.440429688 75.25390625 278.440429688 118.525390625 c 0
 278.440429688 143.923828125 253.983398438 164.618164062 222.940429688 171.203125 c 2
 164.618164062 182.491210938 l 2
 91.24609375 196.6015625 33.8642578125 251.161132812 33.8642578125 318.889648438 c 0
 33.8642578125 363.1015625 46.0927734375 402.610351562 75.25390625 426.126953125 c 0
EndSplineSet
Validated: 1
EndChar

StartChar: t
Encoding: 116 116 82
Width: 380
VWidth: 940
GlyphClass: 2
Flags: W
HStem: -10.3477 73.373<134.517 302.214> 376.271 67.7285<18.8135 81.8389 204.127 333>
VStem: 81.8389 122.288<69.9335 376.271 444 570.991>
LayerCount: 2
Fore
SplineSet
18.8134765625 376.271484375 m 1
 18.8134765625 444 l 1
 84.6611328125 444 l 1
 84.6611328125 570.991210938 l 1
 204.126953125 570.991210938 l 1
 204.126953125 444 l 1
 333 444 l 1
 333 376.271484375 l 1
 204.126953125 376.271484375 l 1
 204.126953125 149.567382812 l 2
 204.126953125 102.534179688 211.65234375 63.025390625 246.458007812 63.025390625 c 0
 280.322265625 63.025390625 307.6015625 74.3134765625 331.119140625 96.8896484375 c 1
 332.059570312 96.8896484375 l 1
 349.932617188 32.923828125 l 1
 348.991210938 31.9833984375 l 1
 292.55078125 2.822265625 237.991210938 -10.34765625 171.203125 -10.34765625 c 0
 97.830078125 -10.34765625 81.8388671875 55.5 81.8388671875 135.458007812 c 2
 81.8388671875 376.271484375 l 1
 18.8134765625 376.271484375 l 1
EndSplineSet
Validated: 1
EndChar

StartChar: u
Encoding: 117 117 83
Width: 527
VWidth: 940
GlyphClass: 2
Flags: W
HStem: -10.3477 57.3818<190.415 281.319> 0 21G<345.229 470.339>
VStem: 55.5 127.933<51.6399 444> 342.407 127.932<0 75.2539 87.3264 444>
LayerCount: 2
Fore
SplineSet
55.5 444 m 1xb0
 183.432617188 444 l 1
 183.432617188 117.584960938 l 2
 183.432617188 43.271484375 199.423828125 47.0341796875 248.338867188 47.0341796875 c 0xb0
 301.958007812 47.0341796875 342.407226562 96.8896484375 342.407226562 157.092773438 c 2
 342.407226562 444 l 1
 470.338867188 444 l 1
 470.338867188 0 l 1
 345.228515625 0 l 1x70
 345.228515625 75.25390625 l 1
 317.008789062 24.4580078125 263.389648438 -10.34765625 201.3046875 -10.34765625 c 0
 102.534179688 -10.34765625 55.5 15.9912109375 55.5 117.584960938 c 2
 55.5 444 l 1xb0
EndSplineSet
Validated: 33
EndChar

StartChar: v
Encoding: 118 118 84
Width: 470
VWidth: 940
GlyphClass: 2
Flags: W
HStem: 0 21G<147.958 320.5>
LayerCount: 2
Fore
SplineSet
129.813476562 444 m 1
 235.169921875 108.177734375 l 1
 341.465820312 444 l 1
 454.34765625 444 l 1
 314.186523438 0 l 1
 154.271484375 0 l 1
 14.1103515625 444 l 1
 129.813476562 444 l 1
EndSplineSet
Validated: 1
EndChar

StartChar: w
Encoding: 119 119 85
Width: 699
VWidth: 940
GlyphClass: 2
Flags: W
HStem: 0 21G<129.093 269.975 391.322 569.789>
LayerCount: 2
Fore
SplineSet
134.516601562 0 m 1
 14.1103515625 444 l 1
 127.932617188 444 l 1
 214.474609375 124.169921875 l 1
 301.016601562 444 l 1
 391.322265625 444 l 1
 482.567382812 109.118164062 l 1
 572.873046875 444 l 1
 683.873046875 444 l 1
 564.407226562 0 l 1
 405.432617188 0 l 1
 377.211914062 105.35546875 332.059570312 273.737304688 332.059570312 316.067382812 c 1
 330.177734375 316.067382812 l 1
 330.177734375 273.737304688 284.084960938 105.35546875 255.864257812 0 c 1
 134.516601562 0 l 1
EndSplineSet
Validated: 1
EndChar

StartChar: x
Encoding: 120 120 86
Width: 470
VWidth: 940
GlyphClass: 2
Flags: W
HStem: 0 21G<0 139.974 326.958 468.458>
LayerCount: 2
Fore
SplineSet
133.576171875 444 m 1
 231.407226562 316.067382812 l 1
 324.534179688 444 l 1
 451.525390625 444 l 1
 282.203125 229.525390625 l 1
 468.458007812 0 l 1
 340.525390625 0 l 1
 231.407226562 160.85546875 l 1
 126.991210938 0 l 1
 0 0 l 1
 180.610351562 229.525390625 l 1
 5.64453125 444 l 1
 133.576171875 444 l 1
EndSplineSet
Validated: 1
EndChar

StartChar: y
Encoding: 121 121 87
Width: 470
VWidth: 940
GlyphClass: 2
Flags: W
HStem: -167.44 79.957<43.3734 180.058>
LayerCount: 2
Fore
SplineSet
251.161132812 127.932617188 m 1
 253.041992188 127.932617188 l 1
 253.041992188 179.669921875 305.720703125 339.584960938 340.525390625 444 c 1
 454.34765625 444 l 1
 291.610351562 -44.2119140625 l 2
 267.15234375 -117.584960938 196.6015625 -167.440429688 119.465820312 -167.440429688 c 0
 94.0673828125 -167.440429688 68.669921875 -165.559570312 43.271484375 -160.85546875 c 1
 42.330078125 -159.915039062 l 1
 34.8046875 -64.9072265625 l 1
 61.14453125 -79.9580078125 90.3046875 -87.4833984375 119.465820312 -87.4833984375 c 0
 152.389648438 -87.4833984375 184.373046875 -74.3134765625 194.720703125 -44.2119140625 c 2
 202.24609375 -22.576171875 l 2
 206.008789062 -11.2880859375 208.830078125 0 208.830078125 0 c 1
 14.1103515625 444 l 1
 134.516601562 444 l 1
 180.610351562 339.584960938 251.161132812 178.728515625 251.161132812 127.932617188 c 1
EndSplineSet
Validated: 1
EndChar

StartChar: z
Encoding: 122 122 88
Width: 447
VWidth: 940
GlyphClass: 2
Flags: W
HStem: 0 68.6699<173.085 414.839> 379.093 64.9072<43.2715 269.034>
LayerCount: 2
Fore
SplineSet
269.034179688 379.092773438 m 1
 43.271484375 379.092773438 l 1
 43.271484375 444 l 1
 348.05078125 444 l 1
 412.016601562 444 l 1
 412.016601562 402.610351562 l 1
 412.016601562 402.610351562 230.465820312 148.626953125 173.084960938 68.669921875 c 1
 414.838867188 71.4912109375 l 1
 414.838867188 0 l 1
 28.220703125 0 l 1
 28.220703125 45.15234375 l 1
 156.15234375 223.881835938 l 2
 200.364257812 285.965820312 246.458007812 348.991210938 269.034179688 379.092773438 c 1
EndSplineSet
Validated: 1
EndChar

StartChar: braceleft
Encoding: 123 123 89
Width: 575
GlyphClass: 2
Flags: MW
HStem: -250 36 232 36 714 36
VStem: 232 111<-111 -103 -103 99 99 117.5 417 606>
CounterMasks: 1 e0
LayerCount: 2
Fore
SplineSet
496 -232 m 0
 496 -250 487 -250 465 -250 c 0
 398 -250 232 -239 232 -111 c 2
 232 99 l 2
 232 136 232 138 230 146 c 0
 221 182 185 227 95 232 c 0
 83 233 78 237 78 250 c 0
 78 267 86 267 100 268 c 0
 141 270 176 284 199 305 c 0
 232 334 232 355 232 417 c 2
 232 623 l 2
 233 700 323 750 465 750 c 0
 487 750 496 750 496 732 c 0
 496 715 488 715 474 714 c 0
 422 711 393 693 382 686 c 0
 343 657 343 628 343 606 c 2
 343 396 l 2
 343 351 343 282 224 250 c 1
 310 227 342 176 343 134 c 2
 343 -103 l 2
 343 -120 343 -128 346 -138 c 0
 358 -174 395 -209 479 -214 c 0
 491 -215 496 -219 496 -232 c 0
EndSplineSet
Validated: 1
EndChar

StartChar: bar
Encoding: 124 124 90
Width: 319
GlyphClass: 2
Flags: MW
HStem: 730 20G<144.5 175>
VStem: 129 61<-206 706>
LayerCount: 2
Fore
SplineSet
190 -206 m 2
 190 -221 190 -250 159 -250 c 0
 129 -250 129 -220 129 -206 c 2
 129 706 l 2
 129 721 129 750 160 750 c 0
 190 750 190 720 190 706 c 2
 190 -206 l 2
EndSplineSet
Validated: 1
EndChar

StartChar: braceright
Encoding: 125 125 91
Width: 575
GlyphClass: 2
Flags: MW
HStem: -250 36 232 36 714 36
VStem: 232 111<-106 83 -123 104 -123 127 381.5 401 401 603 603 611>
CounterMasks: 1 e0
LayerCount: 2
Fore
SplineSet
496 250 m 0
 496 233 488 233 474 232 c 0
 421 229 388 207 377 196 c 0
 343 165 343 148 343 83 c 2
 343 -123 l 2
 342 -196 259 -250 109 -250 c 0
 88 -250 78 -250 78 -232 c 0
 78 -215 86 -215 100 -214 c 0
 154 -211 185 -191 195 -184 c 0
 232 -155 232 -129 232 -106 c 2
 232 104 l 2
 232 150 232 218 351 250 c 1
 264 274 233 324 232 366 c 2
 232 603 l 2
 232 620 232 628 229 638 c 0
 217 677 176 710 95 714 c 0
 83 715 78 719 78 732 c 0
 78 750 88 750 109 750 c 0
 191 750 343 734 343 611 c 2
 343 401 l 2
 343 362 343 360 346 352 c 0
 363 297 415 271 479 268 c 0
 491 267 496 263 496 250 c 0
EndSplineSet
Validated: 1
EndChar

StartChar: asciitilde
Encoding: 126 126 92
Width: 556
GlyphClass: 2
Flags: MW
HStem: 193 43<368 383.5> 211 43 246 43 264 43<171.5 187>
LayerCount: 2
Fore
SplineSet
555 290 m 1x90
 501 246 l 2x20
 484 232 464 221 444 211 c 0x40
 422 201 396 193 371 193 c 0
 331 193 300 210 271 227 c 0
 236 247 207 264 167 264 c 0
 116 264 63 234 14 193 c 1x90
 0 210 l 1
 54 254 l 2x40
 71 268 91 279 111 289 c 0x20
 133 299 159 307 184 307 c 0
 224 307 255 290 284 273 c 0
 319 253 348 236 388 236 c 0
 439 236 492 266 541 307 c 1
 555 290 l 1x90
EndSplineSet
Validated: 1
EndChar

StartChar: exclamdown
Encoding: 161 161 94
Width: 367
GlyphClass: 3
Flags: MW
HStem: -194 21G<134 145 145 222> 284 20G<159 208 208 217> 369 131<145.5 201 166 201>
VStem: 121 128
LayerCount: 2
Fore
SplineSet
249 417 m 2
 249 382 239 369 201 369 c 2
 166 369 l 2
 125 369 118 385 118 417 c 2
 118 452 l 2
 118 489 130 500 166 500 c 2
 201 500 l 2
 242 500 249 484 249 452 c 2
 249 417 l 2
249 -173 m 0
 249 -194 244 -194 222 -194 c 2
 145 -194 l 2
 123 -194 118 -194 118 -173 c 0
 118 -99 123 -22 124 52 c 2
 131 276 l 2
 132 303 133 304 159 304 c 2
 208 304 l 2
 226 304 232 304 235 294 c 0
 237 289 241 120 241 96 c 0
 243 7 249 -84 249 -173 c 0
EndSplineSet
Validated: 1
Ligature2: "'dlig' +A6ADwQO/A7EDuQPBA7UDxAO5A7oDrAAA +A8ADvwO7A7sDsQPAA7sDrAAA +A8MDxAO/A8cDtQOvA7EA lookup 10 subtable" exclam quoteleft
Ligature2: "'dlig' +A6ADwQO/A7EDuQPBA7UDxAO5A7oDrAAA +A8ADvwO7A7sDsQPAA7sDrAAA +A8MDxAO/A8cDtQOvA7EA lookup 10 subtable" exclam grave
EndChar

StartChar: cent
Encoding: 162 162 95
Width: 489
GlyphClass: 2
Flags: MW
VStem: 37 136<207.5 262 207.5 305> 219 100<-76 -9 -82.5 -7 -82.5 -7 82 382 382 382 474 534>
LayerCount: 2
Fore
SplineSet
457 50 m 0
 457 40 456 39 428 24 c 0
 387 3 349 -5 319 -9 c 1
 319 -76 l 2
 319 -89 308 -100 295 -100 c 2
 243 -100 l 2
 230 -100 219 -89 219 -76 c 2
 219 -7 l 1
 102 10 37 85 37 230 c 0
 37 380 105 453 219 471 c 1
 219 534 l 2
 219 548 230 558 243 558 c 2
 295 558 l 2
 308 558 319 548 319 534 c 2
 319 474 l 1
 363 470 389 460 427 443 c 0
 444 435 451 431 451 422 c 0
 451 417 441 361 439 353 c 0
 438 349 436 340 426 340 c 0
 422 340 420 340 408 351 c 0
 380 374 358 389 319 395 c 1
 319 71 l 1
 375 81 409 111 423 123 c 0
 433 133 435 133 439 133 c 0
 449 133 451 123 451 120 c 0
 453 107 457 61 457 50 c 0
219 82 m 1
 219 382 l 1
 176 354 173 292 173 232 c 0
 173 183 173 113 219 82 c 1
EndSplineSet
Validated: 1
Substitution2: "'onum' +A6gDtwPGA7kDrAAA +A8ADsQO7A7kDrAPC +A7wDvwPBA8YDrgPC lookup 4 subtable" cent.oldstyle
Substitution2: "'aalt' +A6ADwQPMA8MDsgOxA8MDtwAA +A8MDtQAA +A8wDuwOx +A8QDsQAA +A7UDvQOxA7sDuwOxA7oDxAO5A7oDrAAA lookup 0 subtable" cent.oldstyle
EndChar

StartChar: sterling
Encoding: 163 163 96
Width: 733
GlyphClass: 2
Flags: MW
HStem: -7 100 297 100<99 206 109 195 342 404>
LayerCount: 2
Fore
SplineSet
660 153 m 0
 660 56 580 -22 482 -22 c 0
 446 -22 410 -16 375 -7 c 0
 309 8 219 29 190 -1 c 0
 178 -14 161 -22 141 -22 c 0
 104 -22 73 8 73 46 c 0
 73 64 81 81 92 93 c 0
 140 143 172 206 189 273 c 2
 195 297 l 1
 109 297 l 2
 89 297 73 313 73 333 c 2
 73 361 l 2
 73 381 89 397 109 397 c 2
 206 397 l 1
 210 464 l 2
 219 583 288 694 398 694 c 0
 516 694 587 570 587 440 c 0
 587 403 556 372 519 372 c 0
 481 372 451 403 451 440 c 0
 451 496 446 558 398 558 c 0
 354 558 349 502 345 453 c 2
 342 397 l 1
 404 397 l 2
 424 397 440 381 440 361 c 2
 440 333 l 2
 440 313 424 297 404 297 c 2
 333 297 l 1
 330 278 326 258 321 239 c 0
 313 208 302 177 289 147 c 1
 328 142 367 134 406 125 c 0
 431 119 456 114 482 114 c 0
 505 114 524 131 524 153 c 0
 524 190 554 221 592 221 c 0
 630 221 660 190 660 153 c 0
EndSplineSet
Validated: 33
EndChar

StartChar: currency
Encoding: 164 164 97
Width: 856
GlyphClass: 2
Flags: MW
HStem: -5 84<400 455.5> 421 84<400.5 455.5 400.5 475>
VStem: 173 84<222.5 277.5> 599 84<222.5 277.5 222.5 297.5>
LayerCount: 2
Fore
SplineSet
687 -9 m 0
 658 -39 627 -8 620 -1 c 2
 576 43 l 1
 534 13 483 -5 428 -5 c 0
 372 -5 321 13 279 42 c 1
 236 -1 l 2
 228 -8 198 -39 168 -9 c 0
 139 21 169 51 176 58 c 2
 220 102 l 1
 190 144 173 195 173 250 c 0
 173 305 190 357 220 398 c 1
 176 443 l 2
 169 450 139 480 168 510 c 0
 198 540 228 509 236 502 c 2
 280 458 l 1
 322 488 373 505 428 505 c 0
 483 505 534 488 576 458 c 1
 619 501 l 2
 627 508 657 539 687 509 c 0
 716 479 686 449 679 442 c 2
 635 398 l 1
 665 357 683 305 683 250 c 0
 683 195 665 144 636 102 c 1
 680 58 l 2
 687 51 717 21 687 -9 c 0
599 250 m 0
 599 345 522 421 428 421 c 0
 333 421 257 345 257 250 c 0
 257 155 333 79 428 79 c 0
 522 79 599 155 599 250 c 0
EndSplineSet
Validated: 33
EndChar

StartChar: yen
Encoding: 165 165 98
Width: 733
GlyphClass: 2
Flags: MW
HStem: 0 21G<323.5 342 342 390> 125 100<148 294 158 294 438 575> 288 100<148 217 158 217 158 287 516 575> 674 20G<60 126 126 144 623 672 672 679>
VStem: 294 144<48 125 28.5 125 225 277>
LayerCount: 2
Fore
SplineSet
708 671 m 0
 708 664 703 655 699 650 c 2
 516 388 l 1
 575 388 l 2
 595 388 611 371 611 352 c 2
 611 324 l 2
 611 304 595 288 575 288 c 2
 446 288 l 1
 438 277 l 1
 438 225 l 1
 575 225 l 2
 595 225 611 209 611 189 c 2
 611 161 l 2
 611 141 595 125 575 125 c 2
 438 125 l 1
 438 47 l 2
 438 10 425 0 390 0 c 2
 342 0 l 2
 305 0 294 12 294 48 c 2
 294 125 l 1
 158 125 l 2
 138 125 122 141 122 161 c 2
 122 189 l 2
 122 209 138 225 158 225 c 2
 294 225 l 1
 294 278 l 1
 287 288 l 1
 158 288 l 2
 138 288 122 304 122 324 c 2
 122 352 l 2
 122 371 138 388 158 388 c 2
 217 388 l 1
 33 651 l 2
 27 659 24 664 24 671 c 0
 24 694 46 694 60 694 c 2
 126 694 l 2
 162 694 184 686 207 653 c 2
 320 491 l 2
 340 463 360 434 375 403 c 1
 392 439 411 466 446 516 c 2
 544 656 l 2
 571 694 602 694 623 694 c 2
 672 694 l 2
 686 694 708 694 708 671 c 0
EndSplineSet
Validated: 1
EndChar

StartChar: brokenbar
Encoding: 166 166 99
Width: 319
GlyphClass: 2
Flags: MW
HStem: 730 20G<144.5 175>
VStem: 129 61<-206 159 341 706>
LayerCount: 2
Fore
SplineSet
190 341 m 2
 190 317 181 291 160 291 c 0
 138 291 129 317 129 341 c 2
 129 706 l 2
 129 721 129 750 160 750 c 0
 190 750 190 720 190 706 c 2
 190 341 l 2
190 -206 m 2
 190 -221 190 -250 159 -250 c 0
 129 -250 129 -220 129 -206 c 2
 129 159 l 2
 129 183 138 209 160 209 c 0
 181 209 190 183 190 159 c 2
 190 -206 l 2
EndSplineSet
Validated: 1
EndChar

StartChar: section
Encoding: 167 167 100
Width: 566
GlyphClass: 2
Flags: MW
HStem: -209 122<259 307 259 343.5> 587 122<259 307>
VStem: 39 136<273 303.5 273 319> 50 136<-45.5 -24 -45.5 -24 512 545.5> 380 136<-45.5 -12 524 545.5> 391 136<196 227>
LayerCount: 2
Fore
SplineSet
527 206 m 0x58
 527 156 511 109 483 68 c 1
 503 41 516 11 516 -24 c 0
 516 -137 404 -209 283 -209 c 0
 162 -209 50 -137 50 -24 c 1
 186 -24 l 1x98
 186 -67 235 -87 283 -87 c 0
 331 -87 380 -67 380 -24 c 0
 380 0 334 22 299 38 c 2
 198 85 l 2
 111 125 39 200 39 294 c 0xa8
 39 344 55 391 83 432 c 1
 63 458 50 489 50 524 c 0
 50 637 162 709 283 709 c 0
 404 709 516 637 516 524 c 1
 380 524 l 1
 380 567 331 587 283 587 c 0
 235 587 186 567 186 524 c 0
 186 500 232 478 267 462 c 2
 368 415 l 2
 455 375 527 300 527 206 c 0x58
391 206 m 0
 391 248 350 273 310 292 c 2
 209 339 l 1
 184 351 l 1
 178 333 175 313 175 294 c 0
 175 252 216 227 256 208 c 2
 357 161 l 1
 382 148 l 1
 388 166 391 186 391 206 c 0
EndSplineSet
Validated: 1
EndChar

StartChar: dieresis
Encoding: 168 168 101
Width: 554
GlyphClass: 2
Flags: HMW
HStem: 510 103<94 159 113 159 399 445>
VStem: 70 132<553 570 539.5 585.5> 356 132<553 570 539.5 585.5>
LayerCount: 2
Fore
SplineSet
403 509 m 0
 370 509 349 536 349 567 c 0
 349 597 371 625 403 625 c 0
 436 625 458 596 458 567 c 0
 458 532 429 509 403 509 c 0
145 509 m 0
 113 509 90 537 90 568 c 0
 90 602 118 625 145 625 c 0
 178 625 198 595 198 568 c 0
 198 534 171 509 145 509 c 0
EndSplineSet
Validated: 1
EndChar

StartChar: copyright
Encoding: 169 169 102
Width: 694
GlyphClass: 2
Flags: MW
HStem: 0 74<271.5 422.5 271.5 443> 620 74<271.5 422.5>
VStem: 0 74<271.5 422.5 271.5 443> 620 74<271.5 422.5>
LayerCount: 2
Fore
SplineSet
694 347 m 0
 694 155 539 0 347 0 c 0
 155 0 0 155 0 347 c 0
 0 539 155 694 347 694 c 0
 539 694 694 539 694 347 c 0
620 347 m 0
 620 498 498 620 347 620 c 0
 196 620 74 498 74 347 c 0
 74 196 196 74 347 74 c 0
 498 74 620 196 620 347 c 0
478 194 m 0
 478 188 478 188 464 180 c 0
 430 162 409 157 366 157 c 0
 246 157 176 214 176 347 c 0
 176 468 234 537 366 537 c 0
 410 537 436 530 457 523 c 0
 472 518 472 517 472 513 c 0
 472 511 472 510 471 506 c 2
 463 461 l 2
 462 453 459 452 456 452 c 0
 454 452 452 453 449 456 c 0
 427 474 405 486 365 486 c 0
 259 486 252 396 252 347 c 0
 252 273 274 209 367 209 c 0
 412 209 430 217 459 237 c 0
 465 243 466 243 469 243 c 0
 474 243 475 238 475 234 c 0
 476 227 478 200 478 194 c 0
EndSplineSet
Validated: 1
EndChar

StartChar: ordfeminine
Encoding: 170 170 103
Width: 416
GlyphClass: 2
Flags: W
LayerCount: 2
Fore
SplineSet
390 418 m 2
 390 393 381 384 349 384 c 2
 318 384 l 2
 284 384 278 395 278 418 c 2
 278 432 l 1
 239 383 176 376 147 376 c 0
 73 376 26 428 26 477 c 0
 26 580 246 581 276 581 c 1
 276 606 l 2
 276 647 262 670 217 670 c 0
 165 670 123 655 87 623 c 0
 84 621 81 619 77 619 c 0
 71 619 67 623 66 627 c 0
 66 632 60 673 60 678 c 0
 60 686 65 688 82 694 c 0
 139 714 181 716 220 716 c 0
 262 716 390 716 390 605 c 2
 390 418 l 2
340 311 m 0
 340 292 317 276 290 276 c 2
 126 276 l 2
 98 276 76 292 76 311 c 0
 76 331 98 346 126 346 c 2
 290 346 l 2
 317 346 340 331 340 311 c 0
276 492 m 2
 276 553 l 1
 252 552 135 547 135 478 c 0
 135 452 158 427 193 427 c 0
 196 427 276 427 276 492 c 2
EndSplineSet
Validated: 1
EndChar

StartChar: guillemotleft
Encoding: 171 171 104
Width: 550
GlyphClass: 2
Flags: MW
HStem: 0 21G<196.5 199 199 245 427.5 430 430 476> 480 20G<199 245 245 249 430 476 476 480>
LayerCount: 2
Fore
SplineSet
258 16 m 2
 259 7 253 0 245 0 c 2
 199 0 l 2
 194 0 189 3 187 7 c 2
 76 244 l 2
 75 248 75 252 76 256 c 2
 187 493 l 2
 189 497 194 500 199 500 c 2
 245 500 l 2
 253 500 259 493 258 484 c 2
 211 250 l 1
 258 16 l 2
489 16 m 2
 490 7 484 0 476 0 c 2
 430 0 l 2
 425 0 420 3 418 7 c 2
 307 244 l 2
 306 248 306 252 307 256 c 2
 418 493 l 2
 420 497 425 500 430 500 c 2
 476 500 l 2
 484 500 490 493 489 484 c 2
 442 250 l 1
 489 16 l 2
EndSplineSet
Validated: 1
Substitution2: "'cv04' Character Variants 04 in Greek lookup 24-1" guillemotleft.gr
Substitution2: "'cv03' Character Variants 03 in Cyrillic lookup 23-1" guillemotleft.cyr
EndChar

StartChar: logicalnot
Encoding: 172 172 105
Width: 856
GlyphClass: 2
Flags: MW
HStem: 323 84<91.5 752 103 710>
VStem: 710 84<135 323 323 323>
LayerCount: 2
Fore
SplineSet
794 135 m 2
 794 112 775 93 752 93 c 0
 729 93 710 112 710 135 c 2
 710 323 l 1
 103 323 l 2
 80 323 61 342 61 365 c 0
 61 388 80 407 103 407 c 2
 752 407 l 2
 775 407 794 388 794 365 c 2
 794 135 l 2
EndSplineSet
Validated: 1
EndChar

StartChar: uni00AD
Encoding: 173 173 106
Width: 367
GlyphClass: 2
Flags: MW
HStem: 193 72<54 257 60 257>
VStem: 12 293<211 247>
LayerCount: 2
Fore
SplineSet
305 229 m 0
 305 193 269 193 257 193 c 2
 60 193 l 2
 48 193 12 193 12 229 c 0
 12 265 48 265 60 265 c 2
 257 265 l 2
 269 265 305 265 305 229 c 0
EndSplineSet
Validated: 1
EndChar

StartChar: registered
Encoding: 174 174 107
Width: 694
GlyphClass: 2
Flags: MW
HStem: 0 74<271.5 422.5 271.5 443> 620 74<271.5 422.5>
VStem: 0 74<271.5 422.5 271.5 443> 292 74<366 526> 359 74 433 74<181 181> 620 74<271.5 422.5>
LayerCount: 2
Fore
SplineSet
694 347 m 0xf6
 694 155 539 0 347 0 c 0
 155 0 0 155 0 347 c 0
 0 539 155 694 347 694 c 0
 539 694 694 539 694 347 c 0xf6
620 347 m 0
 620 498 498 620 347 620 c 0
 196 620 74 498 74 347 c 0
 74 196 196 74 347 74 c 0
 498 74 620 196 620 347 c 0
507 184 m 1
 507 168 498 168 488 168 c 2
 458 168 l 2
 446 168 441 168 433 181 c 2
 349 329 l 1
 292 329 l 1
 292 193 l 2
 292 175 286 168 267 168 c 2
 242 168 l 2
 223 168 217 174 217 193 c 2
 217 501 l 2
 217 520 224 526 242 526 c 2
 366 526 l 2
 389 526 501 526 501 425 c 0
 501 361 452 341 419 333 c 1
 507 184 l 1
429 424 m 0
 429 458 418 482 359 482 c 2x08
 292 482 l 1
 292 366 l 1x10
 359 366 l 2x08
 422 366 429 394 429 424 c 0
EndSplineSet
Validated: 1
EndChar

StartChar: macron
Encoding: 175 175 108
Width: 550
GlyphClass: 2
Flags: MW
HStem: 573 85<91 447 104 447>
LayerCount: 2
Fore
SplineSet
474 600 m 2
 474 574 473 573 447 573 c 2
 104 573 l 2
 78 573 77 574 77 600 c 2
 77 631 l 2
 77 657 78 658 104 658 c 2
 447 658 l 2
 473 658 474 657 474 631 c 2
 474 600 l 2
EndSplineSet
Validated: 1
EndChar

StartChar: degree
Encoding: 176 176 109
Width: 413
GlyphClass: 2
Flags: MW
HStem: 389 84<187 225 187 248.5> 610 84<187 225>
VStem: 53 84<523 561 523 584> 275 84<523 561>
LayerCount: 2
Fore
SplineSet
359 542 m 0
 359 457 291 389 206 389 c 0
 122 389 53 457 53 542 c 0
 53 626 122 694 206 694 c 0
 291 694 359 626 359 542 c 0
275 542 m 0
 275 580 244 610 206 610 c 0
 168 610 137 580 137 542 c 0
 137 504 168 473 206 473 c 0
 244 473 275 504 275 542 c 0
EndSplineSet
Validated: 1
EndChar

StartChar: plusminus
Encoding: 177 177 110
Width: 856
GlyphClass: 2
Flags: MW
HStem: 0 84<109 386 114 386 470 741> 305 84<109 386 114 386 470 741> 674 20G<407 449>
VStem: 386 84<84 305 84 305 389 641>
LayerCount: 2
Fore
SplineSet
794 42 m 0
 794 0 751 0 741 0 c 2
 114 0 l 2
 104 0 61 0 61 42 c 0
 61 84 104 84 114 84 c 2
 386 84 l 1
 386 305 l 1
 114 305 l 2
 104 305 61 305 61 347 c 0
 61 389 104 389 114 389 c 2
 386 389 l 1
 386 641 l 2
 386 651 386 694 428 694 c 0
 470 694 470 651 470 641 c 2
 470 389 l 1
 741 389 l 2
 751 389 794 389 794 347 c 0
 794 305 751 305 741 305 c 2
 470 305 l 1
 470 84 l 1
 741 84 l 2
 751 84 794 84 794 42 c 0
EndSplineSet
Validated: 1
EndChar

StartChar: two.superior
Encoding: 178 178 111
Width: 389
GlyphClass: 2
Flags: W
LayerCount: 2
Fore
SplineSet
356 316 m 2
 356 295 348 287 321 287 c 2
 74 287 l 2
 48 287 40 294 40 316 c 2
 40 320 l 2
 40 331 40 332 47 338 c 2
 184 460 l 2
 228 499 255 539 255 577 c 0
 255 614 232 656 176 656 c 0
 130 656 105 631 91 590 c 0
 89 583 87 578 81 578 c 0
 76 578 73 581 69 586 c 2
 33 624 l 1
 46 664 79 686 86 690 c 0
 120 713 161 716 186 716 c 0
 292 716 356 652 356 578 c 0
 356 525 316 493 276 461 c 0
 266 452 238 434 228 426 c 2
 132 351 l 1
 249 351 l 1
 298 352 l 2
 312 352 336 352 341 349 c 0
 356 344 356 332 356 323 c 2
 356 316 l 2
EndSplineSet
Validated: 1
EndChar

StartChar: three.superior
Encoding: 179 179 112
Width: 395
GlyphClass: 2
Flags: W
LayerCount: 2
Fore
SplineSet
362 409 m 0
 362 329 313 274 189 274 c 0
 95 274 33 322 33 330 c 0
 33 333 42 371 42 371 c 2
 42 373 44 378 51 378 c 0
 54 378 55 377 61 372 c 0
 109 334 163 330 186 330 c 0
 251 330 256 370 256 410 c 0
 256 456 248 490 183 490 c 2
 151 490 l 2
 132 490 132 491 132 506 c 2
 132 517 l 2
 132 527 132 530 137 532 c 0
 139 533 153 534 161 535 c 0
 182 536 200 537 217 554 c 0
 240 577 240 605 240 614 c 0
 240 643 233 663 187 663 c 0
 178 663 127 663 90 619 c 0
 86 615 85 613 80 613 c 2
 80 613 75 613 69 620 c 2
 49 644 l 1
 49 644 44 649 44 653 c 0
 44 658 92 716 191 716 c 0
 238 716 341 709 341 613 c 0
 341 578 321 539 263 513 c 1
 328 499 362 463 362 409 c 0
EndSplineSet
Validated: 1
EndChar

StartChar: acute
Encoding: 180 180 113
Width: 550
GlyphClass: 2
Flags: MW
HStem: 537 21G<216 224 224 261> 674 20G<322 404 404 412>
LayerCount: 2
Fore
SplineSet
431 681 m 0
 431 675 425 670 420 666 c 2
 261 537 l 1
 224 537 l 2
 208 537 197 537 197 550 c 1
 197 550 197 554 206 565 c 2
 292 682 l 2
 301 693 302 694 322 694 c 2
 404 694 l 2
 420 694 431 694 431 681 c 0
EndSplineSet
Validated: 1
EndChar

StartChar: paragraph
Encoding: 182 182 114
Width: 703
GlyphClass: 2
Flags: MW
HStem: 633 61<433 513 433 433 574 625 574 574>
VStem: 372 61<-150 220 220 220> 513 61<-150 633>
LayerCount: 2
Fore
SplineSet
670 663 m 0
 670 633 640 633 625 633 c 2
 574 633 l 1
 574 -150 l 2
 574 -165 574 -194 543 -194 c 0
 513 -194 513 -164 513 -150 c 2
 513 633 l 1
 433 633 l 1
 433 -150 l 2
 433 -165 433 -194 402 -194 c 0
 372 -194 372 -164 372 -150 c 2
 372 220 l 1
 189 231 64 323 64 457 c 0
 64 596 199 694 351 694 c 2
 625 694 l 2
 641 694 670 694 670 663 c 0
EndSplineSet
Validated: 1
EndChar

StartChar: periodcentered
Encoding: 183 183 115
Width: 856
GlyphClass: 2
Flags: MW
HStem: 282 131<376 466 389 466>
VStem: 362 131<309 386 296 399>
LayerCount: 2
Fore
SplineSet
493 309 m 2
 493 283 492 282 466 282 c 2
 389 282 l 2
 363 282 362 283 362 309 c 2
 362 386 l 2
 362 412 363 413 389 413 c 2
 466 413 l 2
 492 413 493 412 493 386 c 2
 493 309 l 2
EndSplineSet
Validated: 1
EndChar

StartChar: cedilla
Encoding: 184 184 116
Width: 489
GlyphClass: 2
Flags: MW
HStem: -192 21G<165 173 173 223> -44 20G<266 284 284 292>
VStem: 147 163<-185.5 -30.5>
LayerCount: 2
Fore
SplineSet
310 -37 m 2
 310 -37 310 -40 305 -53 c 2
 254 -174 l 2
 246 -192 245 -192 223 -192 c 2
 173 -192 l 2
 157 -192 147 -192 147 -179 c 0
 147 -173 220 -62 231 -45 c 0
 244 -25 245 -24 266 -24 c 2
 284 -24 l 2
 300 -24 310 -24 310 -37 c 2
EndSplineSet
Validated: 1
EndChar

StartChar: one.superior
Encoding: 185 185 117
Width: 395
GlyphClass: 2
Flags: W
LayerCount: 2
Fore
SplineSet
341 308 m 0
 341 287 314 287 306 287 c 2
 101 287 l 2
 91 287 66 287 66 308 c 0
 66 330 91 330 101 330 c 2
 157 330 l 1
 157 640 l 1
 136 635 111 632 89 632 c 0
 80 632 55 632 55 653 c 0
 55 671 73 675 86 675 c 0
 158 676 185 698 198 708 c 0
 207 715 210 716 224 716 c 0
 256 716 256 699 256 688 c 2
 256 330 l 1
 306 330 l 2
 314 330 341 330 341 308 c 0
EndSplineSet
Validated: 1
EndChar

StartChar: ordmasculine
Encoding: 186 186 118
Width: 461
GlyphClass: 2
Flags: W
LayerCount: 2
Fore
SplineSet
435 541 m 0
 435 427 362 376 230 376 c 0
 98 376 26 427 26 541 c 0
 26 654 91 716 231 716 c 0
 368 716 435 656 435 541 c 0
385 311 m 0
 385 292 363 276 335 276 c 2
 126 276 l 2
 98 276 76 292 76 311 c 0
 76 331 98 346 126 346 c 2
 335 346 l 2
 363 346 385 331 385 311 c 0
321 550 m 0
 321 604 321 666 230 666 c 0
 140 666 140 604 140 550 c 0
 140 494 140 431 231 431 c 0
 321 431 321 495 321 550 c 0
EndSplineSet
Validated: 1
EndChar

StartChar: guillemotright
Encoding: 187 187 119
Width: 550
GlyphClass: 2
Flags: MW
HStem: 0 21G<70 74 74 120 301 305 305 351> 480 20G<74 120 120 122.5 305 351 351 353.5>
LayerCount: 2
Fore
SplineSet
474 244 m 2
 363 7 l 2
 361 3 356 0 351 0 c 2
 305 0 l 2
 297 0 291 7 292 16 c 2
 339 250 l 1
 292 484 l 2
 291 493 297 500 305 500 c 2
 351 500 l 2
 356 500 361 497 363 493 c 2
 474 256 l 2
 475 252 475 248 474 244 c 2
243 244 m 2
 132 7 l 2
 130 3 125 0 120 0 c 2
 74 0 l 2
 66 0 60 7 61 16 c 2
 108 250 l 1
 61 484 l 2
 60 493 66 500 74 500 c 2
 120 500 l 2
 125 500 130 497 132 493 c 2
 243 256 l 2
 244 252 244 248 243 244 c 2
EndSplineSet
Validated: 1
Substitution2: "'cv04' Character Variants 04 in Greek lookup 24-1" guillemotright.gr
Substitution2: "'cv03' Character Variants 03 in Cyrillic lookup 23-1" guillemotright.cyr
EndChar

StartChar: onequarter
Encoding: 188 188 120
Width: 880
GlyphClass: 3
Flags: MW
VStem: 101 97 157 99<330 640 640 640> 640 99 726 99
LayerCount: 2
Fore
SplineSet
341 308 m 0x40
 341 287 314 287 306 287 c 2
 101 287 l 2
 91 287 66 287 66 308 c 0
 66 330 91 330 101 330 c 2x90
 157 330 l 1
 157 640 l 1x40
 136 635 111 632 89 632 c 0
 80 632 55 632 55 653 c 0
 55 671 73 675 86 675 c 0
 158 676 185 698 198 708 c 0x80
 207 715 210 716 224 716 c 0
 256 716 256 699 256 688 c 2
 256 330 l 1
 306 330 l 2
 314 330 341 330 341 308 c 0x40
825 120 m 0
 825 96 813 92 790 92 c 2
 760 92 l 1
 760 29 l 2
 760 8 753 0 726 0 c 2x10
 705 0 l 2
 676 0 671 10 671 29 c 2
 671 92 l 1
 509 92 l 2
 479 92 474 101 474 121 c 2
 474 136 l 2
 474 146 474 148 480 157 c 2
 640 403 l 2x20
 649 416 659 416 673 416 c 2
 726 416 l 2
 752 416 760 409 760 388 c 2
 760 148 l 1
 790 148 l 2
 816 148 825 142 825 120 c 0
739 651 m 2
 299 -3 l 2
 291 -15 279 -22 264 -22 c 0
 230 -22 210 16 229 43 c 2
 669 698 l 2
 677 709 689 716 704 716 c 0
 738 716 758 679 739 651 c 2
675 148 m 1x20
 675 353 l 1
 671 343 664 325 549 148 c 1
 675 148 l 1x20
EndSplineSet
Validated: 33
Ligature2: "'frac' +A5QDuQOxA7MDzgO9A7kDsQAA +A7oDuwOxA8MDvAOxA8QDsQAA lookup 3 subtable" one fraction four
Ligature2: "'frac' +A5QDuQOxA7MDzgO9A7kDsQAA +A7oDuwOxA8MDvAOxA8QDsQAA lookup 3 subtable" one slash four
EndChar

StartChar: onehalf
Encoding: 189 189 121
Width: 978
GlyphClass: 3
Flags: MW
HStem: 370 60<741 771>
VStem: 89 109 198 108 234 107 600 109 636 107 636 108 709 107 816 107<18.5 64>
LayerCount: 2
Fore
SplineSet
341 308 m 0x20
 341 287 314 287 306 287 c 2x20
 101 287 l 2
 91 287 66 287 66 308 c 0
 66 330 91 330 101 330 c 2
 157 330 l 1
 157 640 l 1
 136 635 111 632 89 632 c 0x40
 80 632 55 632 55 653 c 0
 55 671 73 675 86 675 c 0
 158 676 185 698 198 708 c 0
 207 715 210 716 224 716 c 0
 256 716 256 699 256 688 c 2
 256 330 l 1
 306 330 l 2
 314 330 341 330 341 308 c 0x20
923 29 m 2
 923 8 916 0 888 0 c 2
 641 0 l 2
 615 0 607 7 607 29 c 2
 607 34 l 2
 607 44 607 45 614 51 c 2
 751 173 l 2
 795 212 822 252 822 290 c 0
 822 327 799 370 743 370 c 0
 697 370 672 344 658 303 c 0
 656 296 654 292 648 292 c 0
 643 292 641 294 636 299 c 2x8480
 600 337 l 1
 613 377 646 399 653 403 c 0
 687 427 728 430 754 430 c 0
 859 430 923 365 923 292 c 0
 923 238 883 206 844 174 c 0
 833 166 805 147 795 139 c 2
 700 64 l 1
 816 64 l 1
 865 65 l 2
 880 65 903 65 908 62 c 0
 923 57 923 46 923 36 c 2
 923 29 l 2
744 651 m 2
 304 -3 l 2
 296 -15 283 -22 269 -22 c 0
 235 -22 215 16 234 43 c 2
 674 698 l 2
 682 709 694 716 709 716 c 0x11
 743 716 763 679 744 651 c 2
EndSplineSet
Validated: 33
Ligature2: "'frac' +A5QDuQOxA7MDzgO9A7kDsQAA +A7oDuwOxA8MDvAOxA8QDsQAA lookup 3 subtable" one fraction two
Ligature2: "'frac' +A5QDuQOxA7MDzgO9A7kDsQAA +A7oDuwOxA8MDvAOxA8QDsQAA lookup 3 subtable" one slash two
EndChar

StartChar: threequarters
Encoding: 190 190 122
Width: 880
GlyphClass: 3
Flags: MW
HStem: 409 81 532 81 554 60
VStem: 66 99 77 107 113 106 113 107 123 99 123 106 165 99 165 108<506 628.5 517 628.5> 289 106<390 433> 296 99 374 106 640 99 726 99
LayerCount: 2
Fore
SplineSet
395 409 m 0x0008
 395 329 346 274 222 274 c 0x8111
 128 274 66 322 66 330 c 0x10
 66 333 75 371 75 371 c 2
 76 373 77 378 84 378 c 0
 87 378 88 377 94 372 c 0
 143 334 196 330 219 330 c 0x04
 284 330 289 370 289 410 c 0
 289 456 282 490 216 490 c 2
 184 490 l 2x8810
 166 490 165 491 165 506 c 2
 165 517 l 2
 165 527 165 530 170 532 c 0x50
 172 533 186 534 194 535 c 0
 215 536 233 537 251 554 c 0
 273 577 273 605 273 614 c 0x2020
 273 643 266 663 220 663 c 0x02
 211 663 160 663 123 619 c 0x0080
 120 615 118 613 113 613 c 2x44
 113 613 108 613 102 620 c 2
 82 644 l 1
 82 644 77 649 77 653 c 0
 77 658 125 716 224 716 c 0
 271 716 374 709 374 613 c 0x4804
 374 578 354 539 296 513 c 1
 361 499 395 463 395 409 c 0x0008
825 120 m 0
 825 96 813 92 790 92 c 2
 760 92 l 1
 760 29 l 2
 760 8 753 0 726 0 c 2x0081
 705 0 l 2
 676 0 671 10 671 29 c 2
 671 92 l 1
 509 92 l 2
 479 92 474 101 474 121 c 2
 474 136 l 2
 474 146 474 148 480 157 c 2
 640 403 l 2x0006
 649 416 659 416 673 416 c 2
 726 416 l 2
 752 416 760 409 760 388 c 2
 760 148 l 1
 790 148 l 2
 816 148 825 142 825 120 c 0
739 651 m 2
 299 -3 l 2
 291 -15 279 -22 264 -22 c 0x0042
 230 -22 210 16 229 43 c 2
 669 698 l 2
 677 709 689 716 704 716 c 0
 738 716 758 679 739 651 c 2
675 148 m 1
 675 353 l 1
 671 343 664 325 549 148 c 1
 675 148 l 1
EndSplineSet
Validated: 33
Ligature2: "'frac' +A5QDuQOxA7MDzgO9A7kDsQAA +A7oDuwOxA8MDvAOxA8QDsQAA lookup 3 subtable" three fraction four
Ligature2: "'frac' +A5QDuQOxA7MDzgO9A7kDsQAA +A7oDuwOxA8MDvAOxA8QDsQAA lookup 3 subtable" three slash four
EndChar

StartChar: questiondown
Encoding: 191 191 123
Width: 519
GlyphClass: 2
Flags: W
LayerCount: 2
Fore
SplineSet
178 397 m 1
 178 528 l 1
 309 528 l 1
 309 397 l 1
 178 397 l 1
244 -106 m 0
 310 -106 373 -80 421 -35 c 1
 423 -35 l 1
 423 -36 l 1
 457 -128 l 1
 456 -129 l 1
 390 -161 317 -178 244 -178 c 0
 130 -178 61 -138 61 -29 c 0
 61 17 74 58 105 84 c 0
 159 128 191 194 191 263 c 2
 191 308 l 2
 191 309 192 309 192 309 c 1
 295 309 l 1
 295 309 296 309 296 308 c 2
 296 263 l 2
 296 186 264 120 208 29 c 0
 199 14 197 -4 197 -29 c 0
 197 -107 208 -106 244 -106 c 0
EndSplineSet
Validated: 33
EndChar

StartChar: Agrave
Encoding: 192 192 124
Width: 733
GlyphClass: 2
Flags: W
LayerCount: 2
Fore
SplineSet
358 569 m 1
 356 569 l 1
 356 553 303 397 248 237 c 1
 465 237 l 1
 410 397 358 553 358 569 c 1
495 151 m 1
 219 151 l 1
 199 96 181 44 166 0 c 1
 30 0 l 1
 273 694 l 1
 458 694 l 1
 701 0 l 1
 548 0 l 1
 533 44 514 96 495 151 c 1
174 937 m 1
 173 937 l 1
 306 938 l 1
 307 938 l 1
 407 792 l 1
 407 790 l 1
 406 790 l 1
 336 790 l 1
 335 791 l 1
 174 937 l 1
EndSplineSet
Validated: 1
EndChar

StartChar: Aacute
Encoding: 193 193 125
Width: 733
GlyphClass: 2
Flags: W
LayerCount: 2
Fore
SplineSet
358 569 m 1
 356 569 l 1
 356 553 303 397 248 237 c 1
 465 237 l 1
 410 397 358 553 358 569 c 1
495 151 m 1
 219 151 l 1
 199 96 181 44 166 0 c 1
 30 0 l 1
 273 694 l 1
 458 694 l 1
 701 0 l 1
 548 0 l 1
 533 44 514 96 495 151 c 1
413 938 m 1
 414 938 l 1
 547 937 l 1
 546 937 l 1
 385 791 l 1
 384 790 l 1
 314 790 l 1
 313 791 l 1
 313 792 l 1
 413 938 l 1
EndSplineSet
Validated: 1
EndChar

StartChar: Acircumflex
Encoding: 194 194 126
Width: 733
GlyphClass: 2
Flags: W
LayerCount: 2
Fore
SplineSet
358 569 m 1
 356 569 l 1
 356 553 303 397 248 237 c 1
 465 237 l 1
 410 397 358 553 358 569 c 1
495 151 m 1
 219 151 l 1
 199 96 181 44 166 0 c 1
 30 0 l 1
 273 694 l 1
 458 694 l 1
 701 0 l 1
 548 0 l 1
 533 44 514 96 495 151 c 1
306 920 m 1
 414 920 l 1
 526 772 l 1
 525 771 l 1
 455 771 l 2
 454 771 454 771 454 772 c 2
 360 858 l 1
 266 772 l 2
 266 771 266 771 265 771 c 2
 194 772 l 1
 194 773 l 1
 306 920 l 1
EndSplineSet
Validated: 1
EndChar

StartChar: Atilde
Encoding: 195 195 127
Width: 733
GlyphClass: 2
Flags: W
LayerCount: 2
Fore
SplineSet
358 569 m 1
 356 569 l 1
 356 553 303 397 248 237 c 1
 465 237 l 1
 410 397 358 553 358 569 c 1
495 151 m 1
 219 151 l 1
 199 96 181 44 166 0 c 1
 30 0 l 1
 273 694 l 1
 458 694 l 1
 701 0 l 1
 548 0 l 1
 533 44 514 96 495 151 c 1
278 820 m 0
 278 819 277 819 277 819 c 1
 213 819 l 1
 213 819 212 819 212 820 c 0
 212 881 254 934 311 934 c 0
 368 934 416 884 442 884 c 0
 464 884 475 907 477 934 c 1
 540 934 l 1
 540 934 541 934 541 933 c 0
 541 871 499 819 442 819 c 0
 386 819 337 869 311 869 c 0
 290 869 278 846 278 820 c 0
EndSplineSet
Validated: 1
EndChar

StartChar: Adieresis
Encoding: 196 196 128
Width: 733
GlyphClass: 2
Flags: MW
HStem: 0 21G<30 166 30 30 548 548 548 701> 151 86<248 465 248 495 219 465> 674 20G<273 458 458 458> 746 103
VStem: 158 132 444 132
LayerCount: 2
Fore
SplineSet
433.5 777 m 1
 433.5 882 l 1
 537.5 882 l 1
 537.5 777 l 1
 433.5 777 l 1
193.5 777 m 1
 193.5 882 l 1
 297.5 882 l 1
 297.5 777 l 1
 193.5 777 l 1
358 569 m 1
 356 569 l 1
 356 553 303 397 248 237 c 1
 465 237 l 1
 410 397 358 553 358 569 c 1
495 151 m 1
 219 151 l 1
 199 96 181 44 166 0 c 1
 30 0 l 1
 273 694 l 1
 458 694 l 1
 701 0 l 1
 548 0 l 1
 533 44 514 96 495 151 c 1
EndSplineSet
Validated: 1
Position2: "'cpsp' +AKsDkQPBA7EDrwPJA8MDtwC7 +A5oDtQPGA7EDuwOxA68DyQO9 lookup 0 subtable" dx=7 dy=0 dh=14 dv=0
EndChar

StartChar: Aring
Encoding: 197 197 129
Width: 733
GlyphClass: 2
Flags: MW
HStem: 0 21G<30 166 30 30 548 548 548 701> 151 86<248 465 248 495 219 465> 694 45 807 45
VStem: 244 68 422 68
LayerCount: 2
Fore
SplineSet
420.5 790.733398438 m 0
 420.5 821.733398438 397.5 824.733398438 365.5 824.733398438 c 0
 330.5 824.733398438 310.5 821.733398438 310.5 790.733398438 c 0
 310.5 759.733398438 333.5 756.733398438 365.5 756.733398438 c 0
 400.5 756.733398438 420.5 759.733398438 420.5 790.733398438 c 0
488.5 789.733398438 m 0
 488.5 711.733398438 392.5 711.733398438 365.5 711.733398438 c 0
 337.5 711.733398438 242.5 711.733398438 242.5 791.733398438 c 0
 242.5 869.733398438 338.5 869.733398438 365.5 869.733398438 c 0
 393.5 869.733398438 488.5 869.733398438 488.5 789.733398438 c 0
358 569 m 1
 356 569 l 1
 356 553 303 397 248 237 c 1
 465 237 l 1
 410 397 358 553 358 569 c 1
495 151 m 1
 219 151 l 1
 199 96 181 44 166 0 c 1
 30 0 l 1
 273 694 l 1
 458 694 l 1
 701 0 l 1
 548 0 l 1
 533 44 514 96 495 151 c 1
EndSplineSet
Validated: 1
Position2: "'cpsp' +AKsDkQPBA7EDrwPJA8MDtwC7 +A5oDtQPGA7EDuwOxA68DyQO9 lookup 0 subtable" dx=7 dy=0 dh=14 dv=0
EndChar

StartChar: AE
Encoding: 198 198 130
Width: 947
GlyphClass: 2
Flags: W
LayerCount: 2
Fore
SplineSet
460 0 m 1
 460 192 l 1
 236 192 l 1
 166 0 l 1
 30 0 l 1
 282 694 l 1
 884 694 l 1
 884 594 l 1
 607 594 l 1
 607 408 l 1
 854 408 l 1
 854 314 l 1
 607 314 l 1
 607 110 l 1
 899 110 l 1
 899 0 l 1
 460 0 l 1
267 278 m 1
 460 278 l 1
 460 594 l 1
 381 594 l 1
 267 278 l 1
EndSplineSet
Validated: 1
EndChar

StartChar: Ccedilla
Encoding: 199 199 131
Width: 703
GlyphClass: 2
Flags: MW
HStem: -22 100 568 100 616 100
VStem: 61 147<292.5 401>
LayerCount: 2
Fore
SplineSet
462 -18.400390625 m 2x00
 462 -18.400390625 462 -21.400390625 457 -34.400390625 c 2
 406 -155.400390625 l 2
 398 -173.400390625 397 -173.400390625 375 -173.400390625 c 2
 325 -173.400390625 l 2
 309 -173.400390625 299 -173.400390625 299 -160.400390625 c 0
 299 -154.400390625 372 -43.400390625 383 -26.400390625 c 0
 396 -6.400390625 397 -5.400390625 418 -5.400390625 c 2
 436 -5.400390625 l 2
 452 -5.400390625 462 -5.400390625 462 -18.400390625 c 2x00
427 706 m 0
 505 706 559 696 633 671 c 1
 634 670 l 1
 611 540 l 1
 609 540 l 1
 552 587 501 606 427 606 c 0
 274 606 208 503 208 347 c 0
 208 192 272 89 427 89 c 0
 520 89 559 101 635 155 c 1
 636 155 l 1
 646 45 l 1
 561 -1 522 -11 427 -11 c 0
 315 -11 219 13 152 79 c 0
 87 143 61 238 61 347 c 0
 61 455 86 551 152 616 c 0
 219 681 315 706 427 706 c 0
EndSplineSet
Validated: 5
Position2: "'cpsp' +AKsDkQPBA7EDrwPJA8MDtwC7 +A5oDtQPGA7EDuwOxA68DyQO9 lookup 0 subtable" dx=7 dy=0 dh=14 dv=0
EndChar

StartChar: Egrave
Encoding: 200 200 132
Width: 642
GlyphClass: 2
Flags: W
LayerCount: 2
Fore
SplineSet
91 0 m 1
 91 692 l 1
 579 692 l 1
 579 591 l 1
 239 591 l 1
 239 407 l 1
 548 407 l 1
 548 312 l 1
 239 312 l 1
 239 110 l 1
 594 110 l 1
 594 0 l 1
 91 0 l 1
144 937 m 1
 143 937 l 1
 276 938 l 1
 277 938 l 1
 377 792 l 1
 377 790 l 1
 376 790 l 1
 306 790 l 1
 305 791 l 1
 144 937 l 1
EndSplineSet
Validated: 1
EndChar

StartChar: Eacute
Encoding: 201 201 133
Width: 642
GlyphClass: 2
Flags: W
LayerCount: 2
Fore
SplineSet
91 0 m 1
 91 692 l 1
 579 692 l 1
 579 591 l 1
 239 591 l 1
 239 407 l 1
 548 407 l 1
 548 312 l 1
 239 312 l 1
 239 110 l 1
 594 110 l 1
 594 0 l 1
 91 0 l 1
383 938 m 1
 384 938 l 1
 517 937 l 1
 516 937 l 1
 355 791 l 1
 354 790 l 1
 284 790 l 1
 283 791 l 1
 283 792 l 1
 383 938 l 1
EndSplineSet
Validated: 1
EndChar

StartChar: Ecircumflex
Encoding: 202 202 134
Width: 642
GlyphClass: 2
Flags: W
LayerCount: 2
Fore
SplineSet
91 0 m 1
 91 692 l 1
 579 692 l 1
 579 591 l 1
 239 591 l 1
 239 407 l 1
 548 407 l 1
 548 312 l 1
 239 312 l 1
 239 110 l 1
 594 110 l 1
 594 0 l 1
 91 0 l 1
276 920 m 1
 384 920 l 1
 496 772 l 1
 495 771 l 1
 425 771 l 2
 424 771 424 771 424 772 c 2
 330 858 l 1
 236 772 l 2
 236 771 236 771 235 771 c 2
 164 772 l 1
 164 773 l 1
 276 920 l 1
EndSplineSet
Validated: 1
EndChar

StartChar: Edieresis
Encoding: 203 203 135
Width: 642
GlyphClass: 2
Flags: MW
HStem: 0 108 311 94 587 104 746 103
VStem: 91 147 112 132 398 132
LayerCount: 2
Fore
SplineSet
403 777 m 1x00
 403 882 l 1
 507 882 l 1
 507 777 l 1
 403 777 l 1x00
163 777 m 1
 163 882 l 1
 267 882 l 1
 267 777 l 1
 163 777 l 1
91 0 m 1
 91 692 l 1
 579 692 l 1
 579 591 l 1
 239 591 l 1
 239 407 l 1
 548 407 l 1
 548 312 l 1
 239 312 l 1
 239 110 l 1
 594 110 l 1
 594 0 l 1
 91 0 l 1
EndSplineSet
Validated: 1
Position2: "'cpsp' +AKsDkQPBA7EDrwPJA8MDtwC7 +A5oDtQPGA7EDuwOxA68DyQO9 lookup 0 subtable" dx=7 dy=0 dh=14 dv=0
EndChar

StartChar: Igrave
Encoding: 204 204 136
Width: 331
GlyphClass: 2
Flags: W
LayerCount: 2
Fore
SplineSet
91 694 m 1
 238 694 l 1
 238 0 l 1
 91 0 l 1
 91 694 l 1
-16 937 m 1
 -17 937 l 1
 116 938 l 1
 117 938 l 1
 217 792 l 1
 217 790 l 1
 216 790 l 1
 146 790 l 1
 145 791 l 1
 -16 937 l 1
EndSplineSet
Validated: 1
EndChar

StartChar: Iacute
Encoding: 205 205 137
Width: 331
GlyphClass: 2
Flags: W
LayerCount: 2
Fore
SplineSet
91 694 m 1
 238 694 l 1
 238 0 l 1
 91 0 l 1
 91 694 l 1
223 938 m 1
 224 938 l 1
 357 937 l 1
 356 937 l 1
 195 791 l 1
 194 790 l 1
 124 790 l 1
 123 791 l 1
 123 792 l 1
 223 938 l 1
EndSplineSet
Validated: 1
EndChar

StartChar: Icircumflex
Encoding: 206 206 138
Width: 331
GlyphClass: 2
Flags: MW
HStem: 0 21G<91 238 91 91> 674 20G<91 238 238 238> 746 21G 853 20G
VStem: 92 147
LayerCount: 2
Fore
SplineSet
337.125976562 799 m 2
 345.125976562 792 339.125976562 777 328.125976562 777 c 2
 281.125976562 777 l 1
 276.125976562 778 l 1
 164.125976562 859 l 1
 52.1259765625 778 l 1
 47.1259765625 777 l 1
 0.1259765625 777 l 2
 -10.8740234375 777 -15.8740234375 790 -7.8740234375 797 c 2
 102.125976562 901 l 2
 104.125976562 903 107.125976562 904 110.125976562 904 c 2
 221.125976562 904 l 2
 224.125976562 904 227.125976562 903 229.125976562 901 c 2
 337.125976562 799 l 2
91 694 m 1
 238 694 l 1
 238 0 l 1
 91 0 l 1
 91 694 l 1
EndSplineSet
Validated: 1
Position2: "'cpsp' +AKsDkQPBA7EDrwPJA8MDtwC7 +A5oDtQPGA7EDuwOxA68DyQO9 lookup 0 subtable" dx=7 dy=0 dh=14 dv=0
EndChar

StartChar: Idieresis
Encoding: 207 207 139
Width: 331
GlyphClass: 2
Flags: MW
HStem: 0 21G<91 238 91 91> 674 20G<91 238 238 238> 746 103
VStem: -44 132 92 147 242 132
LayerCount: 2
Fore
SplineSet
232.5 777 m 1
 232.5 882 l 1
 336.5 882 l 1
 336.5 777 l 1
 232.5 777 l 1
-7.5 777 m 1
 -7.5 882 l 1
 96.5 882 l 1
 96.5 777 l 1
 -7.5 777 l 1
91 694 m 1
 238 694 l 1
 238 0 l 1
 91 0 l 1
 91 694 l 1
EndSplineSet
Validated: 1
Position2: "'cpsp' +AKsDkQPBA7EDrwPJA8MDtwC7 +A5oDtQPGA7EDuwOxA68DyQO9 lookup 0 subtable" dx=7 dy=0 dh=14 dv=0
EndChar

StartChar: Eth
Encoding: 208 208 140
Width: 794
GlyphClass: 2
Flags: W
CounterMasks: 1 00
LayerCount: 2
Fore
SplineSet
21 315 m 1
 20 316 l 1
 20 399 l 2
 20 400 21 400 21 400 c 1
 91 400 l 1
 91 694 l 1
 396 694 l 2
 489 694 584 673 648 606 c 0
 714 536 731 437 731 341 c 0
 730 248 713 151 648 85 c 0
 583 20 489 0 396 0 c 2
 91 0 l 1
 91 315 l 1
 21 315 l 1
236 86 m 1
 359 86 l 2
 425 86 493 98 537 146 c 0
 583 198 587 272 587 341 c 0
 587 414 584 490 537 545 c 0
 494 595 425 608 359 608 c 2
 236 608 l 1
 236 400 l 1
 329 400 l 1
 329 400 330 400 330 399 c 2
 330 315 l 1
 236 315 l 1
 236 86 l 1
EndSplineSet
Validated: 1
EndChar

StartChar: Ntilde
Encoding: 209 209 141
Width: 794
GlyphClass: 2
Flags: MW
HStem: 0 21G<91 91 91 214 510 510 510 701> 674 20G<91 282 282 282 579 701 701 701> 746 72 805 72
VStem: 91 123<0 575 0 694 0 694> 579 123
LayerCount: 2
Fore
SplineSet
578.5 891 m 0x00
 578.5 842 539.5 777 468.5 777 c 0
 423.5 777 392.5 799 370.5 814 c 0
 355.5 825 339.5 836 323.5 836 c 0
 313.5 836 289.5 831 285.5 792 c 0
 283.5 777 278.5 777 258.5 777 c 2
 240.5 777 l 2
 221.5 777 213.5 777 213.5 794 c 0
 213.5 843 252.5 908 323.5 908 c 0
 368.5 908 399.5 886 421.5 871 c 0
 436.5 860 452.5 849 468.5 849 c 0
 478.5 849 502.5 854 506.5 893 c 0
 508.5 908 513.5 908 533.5 908 c 2
 551.5 908 l 2
 571.5 908 578.5 908 578.5 891 c 0x00
91 0 m 1
 91 694 l 1
 282 694 l 1
 579 119 l 1
 579 694 l 1
 701 694 l 1
 701 0 l 1
 510 0 l 1
 214 575 l 1
 214 0 l 1
 91 0 l 1
EndSplineSet
Validated: 1
Position2: "'cpsp' +AKsDkQPBA7EDrwPJA8MDtwC7 +A5oDtQPGA7EDuwOxA68DyQO9 lookup 0 subtable" dx=7 dy=0 dh=14 dv=0
EndChar

StartChar: Ograve
Encoding: 210 210 142
Width: 794
GlyphClass: 2
Flags: W
LayerCount: 2
Fore
SplineSet
396 717 m 0
 490 717 585 693 648 623 c 0
 715 547 731 443 731 342 c 0
 731 243 714 141 648 69 c 0
 585 0 490 -22 396 -22 c 0
 303 -22 208 0 145 69 c 0
 78 141 61 243 61 342 c 0
 61 443 77 547 145 623 c 0
 207 693 302 717 396 717 c 0
396 639 m 0
 340 639 284 618 252 571 c 0
 211 510 208 434 208 361 c 0
 208 231 227 58 396 58 c 0
 564 58 584 231 584 361 c 0
 584 487 559 639 396 639 c 0
214 937 m 1
 213 937 l 1
 346 938 l 1
 347 938 l 1
 447 792 l 1
 447 790 l 1
 446 790 l 1
 376 790 l 1
 375 791 l 1
 214 937 l 1
EndSplineSet
Validated: 1
EndChar

StartChar: Oacute
Encoding: 211 211 143
Width: 794
GlyphClass: 2
Flags: W
LayerCount: 2
Fore
SplineSet
396 717 m 0
 490 717 585 693 648 623 c 0
 715 547 731 443 731 342 c 0
 731 243 714 141 648 69 c 0
 585 0 490 -22 396 -22 c 0
 303 -22 208 0 145 69 c 0
 78 141 61 243 61 342 c 0
 61 443 77 547 145 623 c 0
 207 693 302 717 396 717 c 0
396 639 m 0
 340 639 284 618 252 571 c 0
 211 510 208 434 208 361 c 0
 208 231 227 58 396 58 c 0
 564 58 584 231 584 361 c 0
 584 487 559 639 396 639 c 0
453 938 m 1
 454 938 l 1
 587 937 l 1
 586 937 l 1
 425 791 l 1
 424 790 l 1
 354 790 l 1
 353 791 l 1
 353 792 l 1
 453 938 l 1
EndSplineSet
Validated: 1
EndChar

StartChar: Ocircumflex
Encoding: 212 212 144
Width: 794
GlyphClass: 2
Flags: W
LayerCount: 2
Fore
SplineSet
396 717 m 0
 490 717 585 693 648 623 c 0
 715 547 731 443 731 342 c 0
 731 243 714 141 648 69 c 0
 585 0 490 -22 396 -22 c 0
 303 -22 208 0 145 69 c 0
 78 141 61 243 61 342 c 0
 61 443 77 547 145 623 c 0
 207 693 302 717 396 717 c 0
396 639 m 0
 340 639 284 618 252 571 c 0
 211 510 208 434 208 361 c 0
 208 231 227 58 396 58 c 0
 564 58 584 231 584 361 c 0
 584 487 559 639 396 639 c 0
346 920 m 1
 454 920 l 1
 566 772 l 1
 565 771 l 1
 495 771 l 2
 494 771 494 771 494 772 c 2
 400 858 l 1
 306 772 l 2
 306 771 306 771 305 771 c 2
 234 772 l 1
 234 773 l 1
 346 920 l 1
EndSplineSet
Validated: 1
EndChar

StartChar: Otilde
Encoding: 213 213 145
Width: 794
GlyphClass: 2
Flags: W
LayerCount: 2
Fore
SplineSet
396 717 m 0
 490 717 585 693 648 623 c 0
 715 547 731 443 731 342 c 0
 731 243 714 141 648 69 c 0
 585 0 490 -22 396 -22 c 0
 303 -22 208 0 145 69 c 0
 78 141 61 243 61 342 c 0
 61 443 77 547 145 623 c 0
 207 693 302 717 396 717 c 0
396 639 m 0
 340 639 284 618 252 571 c 0
 211 510 208 434 208 361 c 0
 208 231 227 58 396 58 c 0
 564 58 584 231 584 361 c 0
 584 487 559 639 396 639 c 0
318 820 m 0
 318 819 317 819 317 819 c 1
 253 819 l 1
 253 819 252 819 252 820 c 0
 252 881 294 934 351 934 c 0
 408 934 456 884 482 884 c 0
 504 884 515 907 517 934 c 1
 580 934 l 1
 580 934 581 934 581 933 c 0
 581 871 539 819 482 819 c 0
 426 819 377 869 351 869 c 0
 330 869 318 846 318 820 c 0
EndSplineSet
Validated: 1
EndChar

StartChar: Odieresis
Encoding: 214 214 146
Width: 794
GlyphClass: 2
Flags: MW
HStem: -22 80<349.5 443> 638 78 746 103
VStem: 61 147<296 392.5> 188 132 474 132 585 147
LayerCount: 2
Fore
SplineSet
464 777 m 1x00
 464 882 l 1
 568 882 l 1
 568 777 l 1
 464 777 l 1x00
224 777 m 1
 224 882 l 1
 328 882 l 1
 328 777 l 1
 224 777 l 1
396 717 m 0
 490 717 585 693 648 623 c 0
 715 547 731 443 731 342 c 0
 731 243 714 141 648 69 c 0
 585 0 490 -22 396 -22 c 0
 303 -22 208 0 145 69 c 0
 78 141 61 243 61 342 c 0
 61 443 77 547 145 623 c 0
 207 693 302 717 396 717 c 0
396 639 m 0
 340 639 284 618 252 571 c 0
 211 510 208 434 208 361 c 0
 208 231 227 58 396 58 c 0
 564 58 584 231 584 361 c 0
 584 487 559 639 396 639 c 0
EndSplineSet
Validated: 1
Position2: "'cpsp' +AKsDkQPBA7EDrwPJA8MDtwC7 +A5oDtQPGA7EDuwOxA68DyQO9 lookup 0 subtable" dx=7 dy=0 dh=14 dv=0
EndChar

StartChar: multiply
Encoding: 215 215 147
Width: 856
GlyphClass: 2
Flags: W
LayerCount: 2
Fore
SplineSet
687 -9 m 0
 658 -39 627 -8 620 -1 c 2
 428 191 l 1
 236 -1 l 2
 228 -8 198 -39 168 -9 c 0
 139 21 169 51 176 58 c 2
 368 250 l 1
 176 443 l 2
 169 450 139 480 168 510 c 0
 198 540 228 509 236 502 c 2
 428 310 l 1
 619 501 l 2
 627 508 657 539 687 509 c 0
 716 479 686 449 679 442 c 2
 487 250 l 1
 680 58 l 2
 687 51 717 21 687 -9 c 0
EndSplineSet
Validated: 33
EndChar

StartChar: Oslash
Encoding: 216 216 148
Width: 856
GlyphClass: 2
Flags: W
LayerCount: 2
Fore
SplineSet
427 717 m 0
 481 717 535 710 585 694 c 1
 622 756 l 1
 689 716 l 1
 656 660 l 1
 765 585 793 465 793 342 c 0
 793 242 772 139 701 69 c 0
 630 -2 527 -22 427 -22 c 0
 373 -22 318 -16 268 0 c 1
 231 -61 l 1
 164 -22 l 1
 197 33 l 1
 91 99 61 223 61 342 c 0
 61 444 81 550 152 623 c 0
 223 695 326 717 427 717 c 0
427 644 m 0
 357 644 287 626 244 572 c 0
 194 508 191 423 191 342 c 0
 191 263 195 181 244 120 c 0
 245 119 246 118 246 117 c 2
 544 622 l 1
 508 638 467 644 427 644 c 0
606 576 m 2
 310 71 l 1
 345 56 386 50 427 50 c 0
 496 50 566 67 609 120 c 0
 659 181 663 263 663 342 c 0
 663 423 659 508 609 572 c 0
 608 573 607 574 606 576 c 2
EndSplineSet
Validated: 1
EndChar

StartChar: Ugrave
Encoding: 217 217 149
Width: 764
GlyphClass: 2
Flags: W
LayerCount: 2
Fore
SplineSet
91 694 m 1
 239 694 l 1
 239 231 l 2
 239 186 239 137 269 102 c 0
 296 70 341 64 384 64 c 0
 427 64 473 70 502 102 c 0
 533 136 534 185 534 231 c 2
 534 694 l 1
 671 694 l 1
 671 231 l 2
 671 160 652 88 599 41 c 0
 541 -10 461 -22 384 -22 c 0
 305 -22 223 -11 164 41 c 0
 111 88 91 160 91 231 c 2
 91 694 l 1
199 937 m 1
 198 937 l 1
 331 938 l 1
 332 938 l 1
 432 792 l 1
 432 790 l 1
 431 790 l 1
 361 790 l 1
 360 791 l 1
 199 937 l 1
EndSplineSet
Validated: 1
EndChar

StartChar: Uacute
Encoding: 218 218 150
Width: 764
GlyphClass: 2
Flags: W
LayerCount: 2
Fore
SplineSet
91 694 m 1
 239 694 l 1
 239 231 l 2
 239 186 239 137 269 102 c 0
 296 70 341 64 384 64 c 0
 427 64 473 70 502 102 c 0
 533 136 534 185 534 231 c 2
 534 694 l 1
 671 694 l 1
 671 231 l 2
 671 160 652 88 599 41 c 0
 541 -10 461 -22 384 -22 c 0
 305 -22 223 -11 164 41 c 0
 111 88 91 160 91 231 c 2
 91 694 l 1
438 938 m 1
 439 938 l 1
 572 937 l 1
 571 937 l 1
 410 791 l 1
 409 790 l 1
 339 790 l 1
 338 791 l 1
 338 792 l 1
 438 938 l 1
EndSplineSet
Validated: 1
EndChar

StartChar: Ucircumflex
Encoding: 219 219 151
Width: 764
GlyphClass: 2
Flags: MW
HStem: -22 86<362.5 405.5 362.5 422.5> 674 20G<91 239 239 239 534 671 671 671> 746 21G 853 20G
VStem: 91 147 238 147 536 136
LayerCount: 2
Fore
SplineSet
553.625976562 799 m 2x00
 561.625976562 792 555.625976562 777 544.625976562 777 c 2
 497.625976562 777 l 1
 492.625976562 778 l 1
 380.625976562 859 l 1
 268.625976562 778 l 1
 263.625976562 777 l 1
 216.625976562 777 l 2
 205.625976562 777 200.625976562 790 208.625976562 797 c 2
 318.625976562 901 l 2
 320.625976562 903 323.625976562 904 326.625976562 904 c 2
 437.625976562 904 l 2
 440.625976562 904 443.625976562 903 445.625976562 901 c 2
 553.625976562 799 l 2x00
91 694 m 1
 239 694 l 1
 239 231 l 2
 239 186 239 137 269 102 c 0
 296 70 341 64 384 64 c 0
 427 64 473 70 502 102 c 0
 533 136 534 185 534 231 c 2
 534 694 l 1
 671 694 l 1
 671 231 l 2
 671 160 652 88 599 41 c 0
 541 -10 461 -22 384 -22 c 0
 305 -22 223 -11 164 41 c 0
 111 88 91 160 91 231 c 2
 91 694 l 1
EndSplineSet
Validated: 1
Position2: "'cpsp' +AKsDkQPBA7EDrwPJA8MDtwC7 +A5oDtQPGA7EDuwOxA68DyQO9 lookup 0 subtable" dx=7 dy=0 dh=14 dv=0
EndChar

StartChar: Udieresis
Encoding: 220 220 152
Width: 764
GlyphClass: 2
Flags: MW
HStem: -22 86<362.5 405.5 362.5 422.5> 674 20G<91 239 239 239 534 671 671 671> 746 103
VStem: 91 147 173 132 238 147 459 132 536 136
LayerCount: 2
Fore
SplineSet
304 820 m 2x00
 304 793 299 777 261 777 c 2
 215 777 l 2
 177 777 172 794 172 820 c 2
 172 837 l 2
 172 868 181 880 215 880 c 2
 261 880 l 2
 298 880 304 866 304 837 c 2
 304 820 l 2x00
590 820 m 2
 590 793 585 777 547 777 c 2
 501 777 l 2
 463 777 458 794 458 820 c 2
 458 837 l 2
 458 868 467 880 501 880 c 2
 547 880 l 2
 584 880 590 866 590 837 c 2
 590 820 l 2
91 694 m 1
 239 694 l 1
 239 231 l 2
 239 186 239 137 269 102 c 0
 296 70 341 64 384 64 c 0
 427 64 473 70 502 102 c 0
 533 136 534 185 534 231 c 2
 534 694 l 1
 671 694 l 1
 671 231 l 2
 671 160 652 88 599 41 c 0
 541 -10 461 -22 384 -22 c 0
 305 -22 223 -11 164 41 c 0
 111 88 91 160 91 231 c 2
 91 694 l 1
EndSplineSet
Validated: 1
Position2: "'cpsp' +AKsDkQPBA7EDrwPJA8MDtwC7 +A5oDtQPGA7EDuwOxA68DyQO9 lookup 0 subtable" dx=7 dy=0 dh=14 dv=0
EndChar

StartChar: Yacute
Encoding: 221 221 153
Width: 733
GlyphClass: 2
Flags: W
LayerCount: 2
Fore
SplineSet
373 403 m 1
 375 403 l 1
 375 416 500 596 569 694 c 1
 728 694 l 1
 438 278 l 1
 438 0 l 1
 293 0 l 1
 293 278 l 1
 3 694 l 1
 179 694 l 1
 248 596 373 416 373 403 c 1
428 938 m 1
 429 938 l 1
 562 937 l 1
 561 937 l 1
 400 791 l 1
 399 790 l 1
 329 790 l 1
 328 791 l 1
 328 792 l 1
 428 938 l 1
EndSplineSet
Validated: 1
EndChar

StartChar: Thorn
Encoding: 222 222 154
Width: 642
GlyphClass: 2
Flags: MW
HStem: 0 21G<121 141 141 177> 180 86<227 309 309 331 227 342 227 309> 505 86<227 311 227 363> 674 20G<141 177 177 197>
VStem: 91 136<50 180 266 505 591 644> 446 134<325.5 429>
LayerCount: 2
Fore
SplineSet
580 386 m 0
 580 185 416 180 342 180 c 2
 227 180 l 1
 227 50 l 2
 227 10 215 0 177 0 c 2
 141 0 l 2
 101 0 91 12 91 50 c 2
 91 644 l 2
 91 684 103 694 141 694 c 2
 177 694 l 2
 217 694 227 682 227 644 c 2
 227 591 l 1
 363 591 l 2
 475 591 580 546 580 386 c 0
446 385 m 0
 446 473 392 505 311 505 c 2
 227 505 l 1
 227 266 l 1
 309 266 l 2
 353 266 446 266 446 385 c 0
EndSplineSet
Validated: 1
Position2: "'cpsp' +AKsDkQPBA7EDrwPJA8MDtwC7 +A5oDtQPGA7EDuwOxA68DyQO9 lookup 0 subtable" dx=7 dy=0 dh=14 dv=0
EndChar

StartChar: germandbls
Encoding: 223 223 155
Width: 565
GlyphClass: 2
Flags: W
LayerCount: 2
Fore
SplineSet
194 0 m 1
 61 0 l 1
 61 571 l 2
 61 673 160 706 281 706 c 0
 402 706 502 673 502 571 c 0
 502 511 475 458 424 433 c 1
 504 385 533 295 533 189 c 0
 533 55 455 -11 322 -11 c 0
 289 -11 257 -5 227 7 c 1
 226 8 l 1
 250 75 l 1
 252 76 l 1
 274 66 298 61 322 61 c 0
 384 61 398 108 398 189 c 0
 398 319 364 400 256 400 c 0
 255 400 255 400 255 401 c 2
 255 471 l 2
 255 472 255 472 256 472 c 0
 330 472 368 496 368 571 c 0
 368 622 336 633 281 633 c 0
 225 633 194 621 194 571 c 2
 194 0 l 1
EndSplineSet
Validated: 1
EndChar

StartChar: agrave
Encoding: 224 224 156
Width: 525
GlyphClass: 2
Flags: W
LayerCount: 2
Fore
SplineSet
91 347 m 1
 90 347 l 1
 82 446 l 1
 144 477 193 489 262 489 c 0
 384 489 464 439 464 324 c 2
 464 0 l 1
 330 0 l 1
 330 70 l 1
 299 20 237 -11 167 -11 c 0
 91 -11 30 53 30 131 c 0
 30 237 179 266 328 270 c 1
 328 324 l 2
 328 380 310 423 262 423 c 0
 190 423 140 400 92 347 c 2
 92 347 91 346 91 346 c 1
 91 346 91 347 91 347 c 1
328 230 m 1
 246 226 161 201 161 131 c 0
 161 93 191 61 228 61 c 0
 282 61 328 97 328 144 c 2
 328 230 l 1
74 715 m 1
 73 715 l 1
 206 716 l 1
 207 716 l 1
 307 570 l 1
 307 568 l 1
 306 568 l 1
 236 568 l 1
 235 569 l 1
 74 715 l 1
EndSplineSet
Validated: 1
EndChar

StartChar: aacute
Encoding: 225 225 157
Width: 525
GlyphClass: 2
Flags: W
LayerCount: 2
Fore
SplineSet
91 347 m 1
 90 347 l 1
 82 446 l 1
 144 477 193 489 262 489 c 0
 384 489 464 439 464 324 c 2
 464 0 l 1
 330 0 l 1
 330 70 l 1
 299 20 237 -11 167 -11 c 0
 91 -11 30 53 30 131 c 0
 30 237 179 266 328 270 c 1
 328 324 l 2
 328 380 310 423 262 423 c 0
 190 423 140 400 92 347 c 2
 92 347 91 346 91 346 c 1
 91 346 91 347 91 347 c 1
328 230 m 1
 246 226 161 201 161 131 c 0
 161 93 191 61 228 61 c 0
 282 61 328 97 328 144 c 2
 328 230 l 1
313 716 m 1
 314 716 l 1
 447 715 l 1
 446 715 l 1
 285 569 l 1
 284 568 l 1
 214 568 l 1
 213 569 l 1
 213 570 l 1
 313 716 l 1
EndSplineSet
Validated: 1
EndChar

StartChar: acircumflex
Encoding: 226 226 158
Width: 525
GlyphClass: 2
Flags: W
LayerCount: 2
Fore
SplineSet
91 347 m 1
 90 347 l 1
 82 446 l 1
 144 477 193 489 262 489 c 0
 384 489 464 439 464 324 c 2
 464 0 l 1
 330 0 l 1
 330 70 l 1
 299 20 237 -11 167 -11 c 0
 91 -11 30 53 30 131 c 0
 30 237 179 266 328 270 c 1
 328 324 l 2
 328 380 310 423 262 423 c 0
 190 423 140 400 92 347 c 2
 92 347 91 346 91 346 c 1
 91 346 91 347 91 347 c 1
328 230 m 1
 246 226 161 201 161 131 c 0
 161 93 191 61 228 61 c 0
 282 61 328 97 328 144 c 2
 328 230 l 1
206 698 m 1
 314 698 l 1
 426 550 l 1
 425 549 l 1
 355 549 l 2
 354 549 354 549 354 550 c 2
 260 636 l 1
 166 550 l 2
 166 549 166 549 165 549 c 2
 94 550 l 1
 94 551 l 1
 206 698 l 1
EndSplineSet
Validated: 1
EndChar

StartChar: atilde
Encoding: 227 227 159
Width: 525
GlyphClass: 2
Flags: W
LayerCount: 2
Fore
SplineSet
91 347 m 1
 90 347 l 1
 82 446 l 1
 144 477 193 489 262 489 c 0
 384 489 464 439 464 324 c 2
 464 0 l 1
 330 0 l 1
 330 70 l 1
 299 20 237 -11 167 -11 c 0
 91 -11 30 53 30 131 c 0
 30 237 179 266 328 270 c 1
 328 324 l 2
 328 380 310 423 262 423 c 0
 190 423 140 400 92 347 c 2
 92 347 91 346 91 346 c 1
 91 346 91 347 91 347 c 1
328 230 m 1
 246 226 161 201 161 131 c 0
 161 93 191 61 228 61 c 0
 282 61 328 97 328 144 c 2
 328 230 l 1
178 598 m 0
 178 597 177 597 177 597 c 1
 113 597 l 1
 113 597 112 597 112 598 c 0
 112 659 154 712 211 712 c 0
 268 712 316 662 342 662 c 0
 364 662 375 685 377 712 c 1
 440 712 l 1
 440 712 441 712 441 711 c 0
 441 649 399 597 342 597 c 0
 286 597 237 647 211 647 c 0
 190 647 178 624 178 598 c 0
EndSplineSet
Validated: 1
EndChar

StartChar: adieresis
Encoding: 228 228 160
Width: 525
GlyphClass: 2
Flags: MW
HStem: -11 72<129 255> 409 66 564 103
VStem: 41 130 76 132 318 132 338 136
LayerCount: 2
Fore
SplineSet
330 549 m 1x00
 330 654 l 1
 434 654 l 1
 434 549 l 1
 330 549 l 1x00
90 549 m 1
 90 654 l 1
 194 654 l 1
 194 549 l 1
 90 549 l 1
91 347 m 1
 90 347 l 1
 82 446 l 1
 144 477 193 489 262 489 c 0
 384 489 464 439 464 324 c 2
 464 0 l 1
 330 0 l 1
 330 70 l 1
 299 20 237 -11 167 -11 c 0
 91 -11 30 53 30 131 c 0
 30 237 179 266 328 270 c 1
 328 324 l 2
 328 380 310 423 262 423 c 0
 190 423 140 400 92 347 c 2
 92 347 91 346 91 346 c 1
 91 346 91 347 91 347 c 1
328 230 m 1
 246 226 161 201 161 131 c 0
 161 93 191 61 228 61 c 0
 282 61 328 97 328 144 c 2
 328 230 l 1
EndSplineSet
Validated: 1
Substitution2: "'smcp' +A6ADtQO2A6wA +A8MDtQAA +A8ADtQO2A6wA +A7oDtQPGA7EDuwOxA68DsQAA lookup 12 subtable" Adieresis.sc
EndChar

StartChar: aring
Encoding: 229 229 161
Width: 525
GlyphClass: 2
Flags: MW
HStem: -11 72<129 255> 409 66 526 45 639 45
VStem: 41 130 140 68 318 68 338 136
LayerCount: 2
Fore
SplineSet
262.5 697 m 0x00
 314.5 697 384.5 686 384.5 623 c 0
 384.5 561 313.5 549 262.5 549 c 0
 209.5 549 139.5 561 139.5 623 c 0
 139.5 686 209.5 697 262.5 697 c 0x00
262.5 659 m 0
 231.5 659 201.5 658 201.5 623 c 0
 201.5 588 232.5 587 262.5 587 c 0
 288.5 587 322.5 586 322.5 623 c 0
 322.5 660 289.5 659 262.5 659 c 0
91 347 m 1
 90 347 l 1
 82 446 l 1
 144 477 193 489 262 489 c 0
 384 489 464 439 464 324 c 2
 464 0 l 1
 330 0 l 1
 330 70 l 1
 299 20 237 -11 167 -11 c 0
 91 -11 30 53 30 131 c 0
 30 237 179 266 328 270 c 1
 328 324 l 2
 328 380 310 423 262 423 c 0
 190 423 140 400 92 347 c 2
 92 347 91 346 91 346 c 1
 91 346 91 347 91 347 c 1
328 230 m 1
 246 226 161 201 161 131 c 0
 161 93 191 61 228 61 c 0
 282 61 328 97 328 144 c 2
 328 230 l 1
EndSplineSet
Validated: 33
Substitution2: "'smcp' +A6ADtQO2A6wA +A8MDtQAA +A8ADtQO2A6wA +A7oDtQPGA7EDuwOxA68DsQAA lookup 12 subtable" Aring.sc
EndChar

StartChar: ae
Encoding: 230 230 162
Width: 794
GlyphClass: 2
Flags: W
LayerCount: 2
Fore
SplineSet
715 432 m 0
 756 382 762 315 762 250 c 1
 464 250 l 1
 464 239 l 2
 464 158 486 61 581 61 c 0
 643 61 702 85 746 129 c 1
 748 129 l 1
 756 39 l 2
 756 38 756 38 755 38 c 0
 703 6 643 -11 581 -11 c 0
 515 -11 448 1 399 45 c 1
 350 6 266 -11 168 -11 c 0
 91 -11 30 54 30 133 c 0
 30 242 177 273 328 277 c 1
 328 324 l 2
 328 381 311 423 262 423 c 0
 190 423 140 400 92 347 c 1
 92 346 l 1
 90 347 l 1
 82 446 l 1
 144 477 193 489 262 489 c 0
 324 489 375 479 413 448 c 1
 456 479 512 489 566 489 c 0
 622 489 680 475 715 432 c 0
328 223 m 1
 251 219 161 199 161 133 c 0
 161 94 191 61 229 61 c 0
 287 61 337 83 346 123 c 1
 335 154 330 189 328 223 c 1
468 303 m 1
 647 303 l 1
 643 354 624 417 566 417 c 0
 506 417 475 362 468 303 c 1
EndSplineSet
Validated: 1
EndChar

StartChar: ccedilla
Encoding: 231 231 163
Width: 489
GlyphClass: 2
Flags: MW
HStem: -11 78<225 287.5> 397 78<229 312.5>
VStem: 37 136<200 272.5 200 317.5>
LayerCount: 2
Fore
SplineSet
457 50 m 0
 457 40 456 39 428 24 c 0
 361 -10 301 -11 274 -11 c 0
 123 -11 37 64 37 230 c 0
 37 405 130 475 279 475 c 0
 349 475 379 465 427 443 c 0
 444 435 451 431 451 422 c 0
 451 417 441 361 439 353 c 0
 438 349 436 340 426 340 c 0
 422 340 420 340 408 351 c 0
 372 381 345 397 280 397 c 0
 178 397 173 313 173 232 c 0
 173 168 173 67 277 67 c 0
 359 67 406 108 423 123 c 0
 433 133 435 133 439 133 c 0
 449 133 451 123 451 120 c 0
 453 107 457 61 457 50 c 0
332 -59 m 2
 332 -59 332 -62 327 -75 c 2
 276 -196 l 2
 268 -214 267 -214 245 -214 c 2
 195 -214 l 2
 179 -214 169 -214 169 -201 c 0
 169 -195 242 -84 253 -67 c 0
 266 -47 267 -46 288 -46 c 2
 306 -46 l 2
 322 -46 332 -46 332 -59 c 2
EndSplineSet
Validated: 1
Substitution2: "'smcp' +A6ADtQO2A6wA +A8MDtQAA +A8ADtQO2A6wA +A7oDtQPGA7EDuwOxA68DsQAA lookup 12 subtable" Ccedilla.sc
EndChar

StartChar: egrave
Encoding: 232 232 164
Width: 511
GlyphClass: 2
Flags: W
LayerCount: 2
Fore
SplineSet
429 432 m 0
 471 383 479 315 479 250 c 1
 158 250 l 1
 158 163 178 61 285 61 c 0
 351 61 414 85 463 129 c 1
 465 129 l 1
 473 39 l 2
 473 38 472 38 472 38 c 1
 415 6 351 -11 285 -11 c 0
 215 -11 144 3 94 51 c 0
 45 99 30 170 30 239 c 0
 30 425 139 489 270 489 c 0
 329 489 390 476 429 432 c 0
162 303 m 1
 366 303 l 1
 359 362 333 417 270 417 c 0
 208 417 172 368 162 303 c 1
84 715 m 1
 83 715 l 1
 216 716 l 1
 217 716 l 1
 317 570 l 1
 317 568 l 1
 316 568 l 1
 246 568 l 1
 245 569 l 1
 84 715 l 1
EndSplineSet
Validated: 1
EndChar

StartChar: eacute
Encoding: 233 233 165
Width: 511
GlyphClass: 2
Flags: W
LayerCount: 2
Fore
SplineSet
429 432 m 0
 471 383 479 315 479 250 c 1
 158 250 l 1
 158 163 178 61 285 61 c 0
 351 61 414 85 463 129 c 1
 465 129 l 1
 473 39 l 2
 473 38 472 38 472 38 c 1
 415 6 351 -11 285 -11 c 0
 215 -11 144 3 94 51 c 0
 45 99 30 170 30 239 c 0
 30 425 139 489 270 489 c 0
 329 489 390 476 429 432 c 0
162 303 m 1
 366 303 l 1
 359 362 333 417 270 417 c 0
 208 417 172 368 162 303 c 1
323 716 m 1
 324 716 l 1
 457 715 l 1
 456 715 l 1
 295 569 l 1
 294 568 l 1
 224 568 l 1
 223 569 l 1
 223 570 l 1
 323 716 l 1
EndSplineSet
Validated: 1
EndChar

StartChar: ecircumflex
Encoding: 234 234 166
Width: 511
GlyphClass: 2
Flags: W
LayerCount: 2
Fore
SplineSet
429 432 m 0
 471 383 479 315 479 250 c 1
 158 250 l 1
 158 163 178 61 285 61 c 0
 351 61 414 85 463 129 c 1
 465 129 l 1
 473 39 l 2
 473 38 472 38 472 38 c 1
 415 6 351 -11 285 -11 c 0
 215 -11 144 3 94 51 c 0
 45 99 30 170 30 239 c 0
 30 425 139 489 270 489 c 0
 329 489 390 476 429 432 c 0
162 303 m 1
 366 303 l 1
 359 362 333 417 270 417 c 0
 208 417 172 368 162 303 c 1
216 698 m 1
 324 698 l 1
 436 550 l 1
 435 549 l 1
 365 549 l 2
 364 549 364 549 364 550 c 2
 270 636 l 1
 176 550 l 2
 176 549 176 549 175 549 c 2
 104 550 l 1
 104 551 l 1
 216 698 l 1
EndSplineSet
Validated: 1
EndChar

StartChar: edieresis
Encoding: 235 235 167
Width: 511
GlyphClass: 2
Flags: MW
HStem: -11 72<250 318> 214 53 403 72 564 103
VStem: 31 129 69 132 159 111 311 132 368 111
LayerCount: 2
Fore
SplineSet
339 546 m 1x00
 339 651 l 1
 443 651 l 1
 443 546 l 1
 339 546 l 1x00
99 546 m 1
 99 651 l 1
 203 651 l 1
 203 546 l 1
 99 546 l 1
429 432 m 0
 471 383 479 315 479 250 c 1
 158 250 l 1
 158 163 178 61 285 61 c 0
 351 61 414 85 463 129 c 1
 465 129 l 1
 473 39 l 2
 473 38 472 38 472 38 c 1
 415 6 351 -11 285 -11 c 0
 215 -11 144 3 94 51 c 0
 45 99 30 170 30 239 c 0
 30 425 139 489 270 489 c 0
 329 489 390 476 429 432 c 0
162 303 m 1
 366 303 l 1
 359 362 333 417 270 417 c 0
 208 417 172 368 162 303 c 1
EndSplineSet
Validated: 1
Substitution2: "'smcp' +A6ADtQO2A6wA +A8MDtQAA +A8ADtQO2A6wA +A7oDtQPGA7EDuwOxA68DsQAA lookup 12 subtable" Edieresis.sc
EndChar

StartChar: igrave
Encoding: 236 236 168
Width: 256
GlyphClass: 2
Flags: W
LayerCount: 2
Fore
SplineSet
59 472 m 1
 192 472 l 1
 192 0 l 1
 59 0 l 1
 59 472 l 1
-66 715 m 1
 -67 715 l 1
 66 716 l 1
 67 716 l 1
 167 570 l 1
 167 568 l 1
 166 568 l 1
 96 568 l 1
 95 569 l 1
 -66 715 l 1
EndSplineSet
Validated: 1
EndChar

StartChar: iacute
Encoding: 237 237 169
Width: 256
GlyphClass: 2
Flags: W
LayerCount: 2
Fore
SplineSet
59 472 m 1
 192 472 l 1
 192 0 l 1
 59 0 l 1
 59 472 l 1
173 716 m 1
 174 716 l 1
 307 715 l 1
 306 715 l 1
 145 569 l 1
 144 568 l 1
 74 568 l 1
 73 569 l 1
 73 570 l 1
 173 716 l 1
EndSplineSet
Validated: 1
EndChar

StartChar: icircumflex
Encoding: 238 238 170
Width: 256
GlyphClass: 2
Flags: MW
HStem: 0 21G<59 192 59 59> 438 20G 535 21G 677 20G<71.5 179.5 179.5 179.5>
VStem: 61 133
LayerCount: 2
Fore
SplineSet
71.5 697 m 1
 179.5 697 l 1
 291.5 550 l 1
 290.5 549 l 1
 220.5 549 l 2
 219.5 549 219.5 549 219.5 550 c 2
 125.5 635 l 1
 31.5 550 l 2
 31.5 549 31.5 549 30.5 549 c 2
 -40.5 550 l 1
 -40.5 551 l 1
 71.5 697 l 1
59 472 m 1
 192 472 l 1
 192 0 l 1
 59 0 l 1
 59 472 l 1
EndSplineSet
Validated: 1
Substitution2: "'smcp' +A6ADtQO2A6wA +A8MDtQAA +A8ADtQO2A6wA +A7oDtQPGA7EDuwOxA68DsQAA lookup 12 subtable" Icircumflex.sc
EndChar

StartChar: idieresis
Encoding: 239 239 171
Width: 256
GlyphClass: 2
Flags: MW
HStem: 0 21G<59 192 59 59> 438 20G 564 103
VStem: -59 132 61 133 183 132
LayerCount: 2
Fore
SplineSet
194.5 546 m 1x00
 194.5 651 l 1
 298.5 651 l 1
 298.5 546 l 1
 194.5 546 l 1x00
-45.5 546 m 1
 -45.5 651 l 1
 58.5 651 l 1
 58.5 546 l 1
 -45.5 546 l 1
59 472 m 1
 192 472 l 1
 192 0 l 1
 59 0 l 1
 59 472 l 1
EndSplineSet
Validated: 1
Substitution2: "'smcp' +A6ADtQO2A6wA +A8MDtQAA +A8ADtQO2A6wA +A7oDtQPGA7EDuwOxA68DsQAA lookup 12 subtable" Idieresis.sc
EndChar

StartChar: eth
Encoding: 240 240 172
Width: 550
GlyphClass: 2
Flags: MW
HStem: -11 78<221 327.5 221 396> 403 72<220.5 275 197 327>
VStem: 31 136<199 273.5 199 310> 382 136<209.5 268>
LayerCount: 2
Fore
SplineSet
518 254 m 0
 518 165 518 -11 274 -11 c 0
 116 -11 31 65 31 225 c 0
 31 395 119 475 275 475 c 1
 275 475 301 475 327 472 c 1
 302 514 269 551 231 580 c 1
 134 537 l 2
 128 534 123 533 118 533 c 0
 97 533 82 552 82 571 c 0
 82 584 89 596 104 603 c 2
 155 626 l 1
 136 635 116 642 96 647 c 0
 87 650 87 659 87 659 c 2
 87 664 88 665 107 681 c 2
 131 702 l 2
 140 710 155 722 160 722 c 0
 165 722 179 719 196 713 c 0
 223 704 250 693 274 679 c 1
 364 719 l 2
 370 722 375 723 380 723 c 0
 401 723 416 704 416 685 c 0
 416 672 409 660 394 653 c 2
 345 631 l 1
 453 541 518 402 518 254 c 0
382 232 m 0
 382 304 380 403 274 403 c 0
 167 403 167 310 167 237 c 0
 167 161 167 67 275 67 c 0
 380 67 382 161 382 232 c 0
EndSplineSet
Validated: 1
Substitution2: "'ss05' Style Set 5 lookup 23 IPA alts-1" eth.ipa
Substitution2: "'smcp' +A6ADtQO2A6wA +A8MDtQAA +A8ADtQO2A6wA +A7oDtQPGA7EDuwOxA68DsQAA lookup 12 subtable" Eth.sc
EndChar

StartChar: ntilde
Encoding: 241 241 173
Width: 561
GlyphClass: 2
Flags: MW
HStem: 0 21G<59 195 59 59 364 500 364 364> 325 72 397 72 550 72 609 72
VStem: 60 136 364 136<0 324 0 354>
LayerCount: 2
Fore
SplineSet
169.5 550 m 0x00
 169.5 549 168.5 549 168.5 549 c 1
 97.5 549 l 1
 97.5 549 96.5 549 96.5 550 c 0
 96.5 618 143.5 676 206.5 676 c 0
 269.5 676 323.5 621 352.5 621 c 0
 376.5 621 388.5 647 390.5 676 c 1
 461.5 676 l 1
 461.5 676 462.5 676 462.5 675 c 0
 462.5 607 415.5 549 352.5 549 c 0
 289.5 549 235.5 604 206.5 604 c 0
 183.5 604 169.5 579 169.5 550 c 0x00
59 478 m 1
 190 478 l 1
 190 372 l 1
 219 437 277 483 348 483 c 0
 461 483 500 437 500 324 c 2
 500 0 l 1
 364 0 l 1
 364 324 l 2
 364 384 349 411 295 411 c 0
 235 411 195 350 195 278 c 2
 195 0 l 1
 59 0 l 1
 59 478 l 1
EndSplineSet
Validated: 1
Substitution2: "'smcp' +A6ADtQO2A6wA +A8MDtQAA +A8ADtQO2A6wA +A7oDtQPGA7EDuwOxA68DsQAA lookup 12 subtable" Ntilde.sc
EndChar

StartChar: ograve
Encoding: 242 242 174
Width: 550
GlyphClass: 2
Flags: W
LayerCount: 2
Fore
SplineSet
274 489 m 0
 342 489 411 473 457 424 c 0
 505 373 518 301 518 231 c 0
 518 164 504 96 457 49 c 0
 409 2 341 -11 274 -11 c 0
 207 -11 139 2 91 49 c 0
 44 96 30 164 30 231 c 0
 30 301 43 373 91 424 c 0
 137 473 206 489 274 489 c 0
274 417 m 0
 174 417 167 331 167 246 c 0
 167 156 173 67 274 67 c 0
 375 67 381 156 381 246 c 0
 381 331 374 417 274 417 c 0
89 715 m 1
 88 715 l 1
 221 716 l 1
 222 716 l 1
 322 570 l 1
 322 568 l 1
 321 568 l 1
 251 568 l 1
 250 569 l 1
 89 715 l 1
EndSplineSet
Validated: 1
EndChar

StartChar: oacute
Encoding: 243 243 175
Width: 550
GlyphClass: 2
Flags: W
LayerCount: 2
Fore
SplineSet
274 489 m 0
 342 489 411 473 457 424 c 0
 505 373 518 301 518 231 c 0
 518 164 504 96 457 49 c 0
 409 2 341 -11 274 -11 c 0
 207 -11 139 2 91 49 c 0
 44 96 30 164 30 231 c 0
 30 301 43 373 91 424 c 0
 137 473 206 489 274 489 c 0
274 417 m 0
 174 417 167 331 167 246 c 0
 167 156 173 67 274 67 c 0
 375 67 381 156 381 246 c 0
 381 331 374 417 274 417 c 0
328 716 m 1
 329 716 l 1
 462 715 l 1
 461 715 l 1
 300 569 l 1
 299 568 l 1
 229 568 l 1
 228 569 l 1
 228 570 l 1
 328 716 l 1
EndSplineSet
Validated: 1
EndChar

StartChar: ocircumflex
Encoding: 244 244 176
Width: 550
GlyphClass: 2
Flags: W
LayerCount: 2
Fore
SplineSet
274 489 m 0
 342 489 411 473 457 424 c 0
 505 373 518 301 518 231 c 0
 518 164 504 96 457 49 c 0
 409 2 341 -11 274 -11 c 0
 207 -11 139 2 91 49 c 0
 44 96 30 164 30 231 c 0
 30 301 43 373 91 424 c 0
 137 473 206 489 274 489 c 0
274 417 m 0
 174 417 167 331 167 246 c 0
 167 156 173 67 274 67 c 0
 375 67 381 156 381 246 c 0
 381 331 374 417 274 417 c 0
221 698 m 1
 329 698 l 1
 441 550 l 1
 440 549 l 1
 370 549 l 2
 369 549 369 549 369 550 c 2
 275 636 l 1
 181 550 l 2
 181 549 181 549 180 549 c 2
 109 550 l 1
 109 551 l 1
 221 698 l 1
EndSplineSet
Validated: 1
EndChar

StartChar: otilde
Encoding: 245 245 177
Width: 550
GlyphClass: 2
Flags: W
LayerCount: 2
Fore
SplineSet
274 489 m 0
 342 489 411 473 457 424 c 0
 505 373 518 301 518 231 c 0
 518 164 504 96 457 49 c 0
 409 2 341 -11 274 -11 c 0
 207 -11 139 2 91 49 c 0
 44 96 30 164 30 231 c 0
 30 301 43 373 91 424 c 0
 137 473 206 489 274 489 c 0
274 417 m 0
 174 417 167 331 167 246 c 0
 167 156 173 67 274 67 c 0
 375 67 381 156 381 246 c 0
 381 331 374 417 274 417 c 0
193 598 m 0
 193 597 192 597 192 597 c 1
 128 597 l 1
 128 597 127 597 127 598 c 0
 127 659 169 712 226 712 c 0
 283 712 331 662 357 662 c 0
 379 662 390 685 392 712 c 1
 455 712 l 1
 455 712 456 712 456 711 c 0
 456 649 414 597 357 597 c 0
 301 597 252 647 226 647 c 0
 205 647 193 624 193 598 c 0
EndSplineSet
Validated: 1
EndChar

StartChar: odieresis
Encoding: 246 246 178
Width: 550
GlyphClass: 2
Flags: MW
HStem: -11 78<240.5 307.5> 403 72 564 103
VStem: 31 136 88 132 330 132 382 136
LayerCount: 2
Fore
SplineSet
343 546 m 1x00
 343 651 l 1
 447 651 l 1
 447 546 l 1
 343 546 l 1x00
103 546 m 1
 103 651 l 1
 207 651 l 1
 207 546 l 1
 103 546 l 1
274 489 m 0
 342 489 411 473 457 424 c 0
 505 373 518 301 518 231 c 0
 518 164 504 96 457 49 c 0
 409 2 341 -11 274 -11 c 0
 207 -11 139 2 91 49 c 0
 44 96 30 164 30 231 c 0
 30 301 43 373 91 424 c 0
 137 473 206 489 274 489 c 0
274 417 m 0
 174 417 167 331 167 246 c 0
 167 156 173 67 274 67 c 0
 375 67 381 156 381 246 c 0
 381 331 374 417 274 417 c 0
EndSplineSet
Validated: 1
Substitution2: "'smcp' +A6ADtQO2A6wA +A8MDtQAA +A8ADtQO2A6wA +A7oDtQPGA7EDuwOxA68DsQAA lookup 12 subtable" Odieresis.sc
EndChar

StartChar: divide
Encoding: 247 247 179
Width: 856
GlyphClass: 2
Flags: MW
HStem: -33 131<376 466 389 466> 208 84<114 115 115 740> 401 131<376 466 389 466>
VStem: 362 131<-6 71 -19 84 428 505>
LayerCount: 2
Fore
SplineSet
794 250 m 0
 794 208 752 208 740 208 c 2
 115 208 l 2
 104 208 61 208 61 250 c 0
 61 292 104 292 114 292 c 2
 741 292 l 2
 751 292 794 292 794 250 c 0
493 428 m 2
 493 402 492 401 466 401 c 2
 389 401 l 2
 363 401 362 402 362 428 c 2
 362 505 l 2
 362 531 363 532 389 532 c 2
 466 532 l 2
 492 532 493 531 493 505 c 2
 493 428 l 2
493 -6 m 2
 493 -32 492 -33 466 -33 c 2
 389 -33 l 2
 363 -33 362 -32 362 -6 c 2
 362 71 l 2
 362 97 363 98 389 98 c 2
 466 98 l 2
 492 98 493 97 493 71 c 2
 493 -6 l 2
EndSplineSet
Validated: 1
EndChar

StartChar: oslash
Encoding: 248 248 180
Width: 550
GlyphClass: 2
Flags: W
LayerCount: 2
Fore
SplineSet
274 489 m 0
 307 489 340 485 370 476 c 1
 426 574 l 1
 489 538 l 1
 435 444 l 1
 501 394 518 310 518 231 c 0
 518 164 504 96 457 49 c 0
 409 2 341 -11 274 -11 c 0
 242 -11 210 -8 180 0 c 1
 122 -101 l 1
 59 -65 l 1
 114 30 l 1
 48 79 30 152 30 231 c 0
 30 301 43 373 91 424 c 0
 137 473 206 489 274 489 c 0
274 417 m 0
 161 417 150 321 150 231 c 0
 150 193 150 152 165 119 c 1
 330 406 l 1
 313 414 293 417 274 417 c 0
383 353 m 1
 220 69 l 1
 237 63 255 61 274 61 c 0
 385 61 398 145 398 231 c 0
 398 272 398 316 383 353 c 1
EndSplineSet
Validated: 1
EndChar

StartChar: ugrave
Encoding: 249 249 181
Width: 561
GlyphClass: 2
Flags: W
LayerCount: 2
Fore
SplineSet
59 472 m 1
 195 472 l 1
 195 125 l 2
 195 46 212 50 264 50 c 0
 321 50 364 103 364 167 c 2
 364 472 l 1
 500 472 l 1
 500 0 l 1
 367 0 l 1
 367 80 l 1
 337 26 280 -11 214 -11 c 0
 109 -11 59 17 59 125 c 2
 59 472 l 1
94 715 m 1
 93 715 l 1
 226 716 l 1
 227 716 l 1
 327 570 l 1
 327 568 l 1
 326 568 l 1
 256 568 l 1
 255 569 l 1
 94 715 l 1
EndSplineSet
Validated: 33
EndChar

StartChar: uacute
Encoding: 250 250 182
Width: 561
GlyphClass: 2
Flags: W
LayerCount: 2
Fore
SplineSet
59 472 m 1
 195 472 l 1
 195 125 l 2
 195 46 212 50 264 50 c 0
 321 50 364 103 364 167 c 2
 364 472 l 1
 500 472 l 1
 500 0 l 1
 367 0 l 1
 367 80 l 1
 337 26 280 -11 214 -11 c 0
 109 -11 59 17 59 125 c 2
 59 472 l 1
333 716 m 1
 334 716 l 1
 467 715 l 1
 466 715 l 1
 305 569 l 1
 304 568 l 1
 234 568 l 1
 233 569 l 1
 233 570 l 1
 333 716 l 1
EndSplineSet
Validated: 33
EndChar

StartChar: ucircumflex
Encoding: 251 251 183
Width: 561
GlyphClass: 2
Flags: MW
HStem: -11 61<230 235.5> 438 20G<108 148 148 168.5 412 452 452 472.5> 535 21G<385 443> 677 20G<227 338 338 340>
VStem: 60 136<126 410> 364 136<173 410>
LayerCount: 2
Fore
SplineSet
500 48 m 2
 500 13 490 0 452 0 c 2
 415 0 l 2
 374 0 367 16 367 48 c 2
 367 74 l 1
 320 -11 249 -11 222 -11 c 0
 118 -11 60 19 60 126 c 2
 60 410 l 2
 60 447 72 458 108 458 c 2
 148 458 l 2
 189 458 196 442 196 410 c 2
 196 117 l 2
 196 64 202 50 258 50 c 0
 329 50 364 107 364 173 c 2
 364 410 l 2
 364 445 374 458 412 458 c 2
 452 458 l 2
 493 458 500 442 500 410 c 2
 500 48 l 2
443 556 m 2
 448 548 442 535 432 535 c 2
 385 535 l 1
 385 535 381 536 379 537 c 2
 281 638 l 1
 183 537 l 2
 181 536 177 535 177 535 c 1
 130 535 l 2
 120 535 115 546 120 554 c 2
 218 693 l 2
 220 696 223 697 227 697 c 2
 338 697 l 2
 342 697 345 696 347 693 c 2
 443 556 l 2
EndSplineSet
Validated: 1
Substitution2: "'smcp' +A6ADtQO2A6wA +A8MDtQAA +A8ADtQO2A6wA +A7oDtQPGA7EDuwOxA68DsQAA lookup 12 subtable" Ucircumflex.sc
EndChar

StartChar: udieresis
Encoding: 252 252 184
Width: 561
GlyphClass: 2
Flags: MW
HStem: -11 61<238 247> 438 20G 564 103
VStem: 60 136 94 132 336 132 364 136<167 472 0 472>
LayerCount: 2
Fore
SplineSet
347.5 549 m 1x00
 347.5 654 l 1
 451.5 654 l 1
 451.5 549 l 1
 347.5 549 l 1x00
107.5 549 m 1
 107.5 654 l 1
 211.5 654 l 1
 211.5 549 l 1
 107.5 549 l 1
59 472 m 1
 195 472 l 1
 195 125 l 2
 195 46 212 50 264 50 c 0
 321 50 364 103 364 167 c 2
 364 472 l 1
 500 472 l 1
 500 0 l 1
 367 0 l 1
 367 80 l 1
 337 26 280 -11 214 -11 c 0
 109 -11 59 17 59 125 c 2
 59 472 l 1
EndSplineSet
Validated: 33
Substitution2: "'smcp' +A6ADtQO2A6wA +A8MDtQAA +A8ADtQO2A6wA +A7oDtQPGA7EDuwOxA68DsQAA lookup 12 subtable" Udieresis.sc
EndChar

StartChar: yacute
Encoding: 253 253 185
Width: 500
GlyphClass: 2
Flags: W
LayerCount: 2
Fore
SplineSet
267 136 m 1
 269 136 l 1
 269 191 325 361 362 472 c 1
 483 472 l 1
 310 -47 l 2
 284 -125 209 -178 127 -178 c 0
 100 -178 73 -176 46 -171 c 1
 45 -170 l 1
 37 -69 l 1
 65 -85 96 -93 127 -93 c 0
 162 -93 196 -79 207 -47 c 2
 215 -24 l 2
 219 -12 222 0 222 0 c 1
 15 472 l 1
 143 472 l 1
 192 361 267 190 267 136 c 1
313 716 m 1
 314 716 l 1
 447 715 l 1
 446 715 l 1
 285 569 l 1
 284 568 l 1
 214 568 l 1
 213 569 l 1
 213 570 l 1
 313 716 l 1
EndSplineSet
Validated: 1
EndChar

StartChar: thorn
Encoding: 254 254 186
Width: 561
GlyphClass: 2
Flags: MW
HStem: -194 21G<90.5 109 109 149> -11 72<304 330.5 262.5 417> 391 78<312.5 335> 674 20G<109 146 146 166.5>
VStem: 61 136<-146 39 109 118 118 358> 387 136<209 251>
LayerCount: 2
Fore
SplineSet
523 231 m 0
 523 181 523 -11 311 -11 c 0
 297 -11 242 -11 197 39 c 1
 197 -146 l 2
 197 -181 187 -194 149 -194 c 2
 109 -194 l 2
 72 -194 61 -182 61 -146 c 2
 61 646 l 2
 61 683 73 694 109 694 c 2
 146 694 l 2
 187 694 194 678 194 646 c 2
 194 411 l 1
 230 445 283 469 342 469 c 0
 523 469 523 280 523 231 c 0
387 229 m 0
 387 273 386 391 284 391 c 0
 241 391 208 368 197 358 c 1
 197 118 l 2
 197 100 197 95 221 78 c 0
 233 69 251 61 274 61 c 0
 387 61 387 189 387 229 c 0
EndSplineSet
Validated: 1
Substitution2: "'smcp' +A6ADtQO2A6wA +A8MDtQAA +A8ADtQO2A6wA +A7oDtQPGA7EDuwOxA68DsQAA lookup 12 subtable" Thorn.sc
EndChar

StartChar: ydieresis
Encoding: 255 255 187
Width: 500
GlyphClass: 2
Flags: MW
HStem: -205 85 438 20G 564 103
VStem: 36 437 63 132 305 132
LayerCount: 2
Fore
SplineSet
317 549 m 1x00
 317 654 l 1
 421 654 l 1
 421 549 l 1
 317 549 l 1x00
77 549 m 1
 77 654 l 1
 181 654 l 1
 181 549 l 1
 77 549 l 1
267 136 m 1
 269 136 l 1
 269 191 325 361 362 472 c 1
 483 472 l 1
 310 -47 l 2
 284 -125 209 -178 127 -178 c 0
 100 -178 73 -176 46 -171 c 1
 45 -170 l 1
 37 -69 l 1
 65 -85 96 -93 127 -93 c 0
 162 -93 196 -79 207 -47 c 2
 215 -24 l 2
 219 -12 222 0 222 0 c 1
 15 472 l 1
 143 472 l 1
 192 361 267 190 267 136 c 1
EndSplineSet
Validated: 1
Substitution2: "'smcp' +A6ADtQO2A6wA +A8MDtQAA +A8ADtQO2A6wA +A7oDtQPGA7EDuwOxA68DsQAA lookup 12 subtable" Ydieresis.sc
EndChar

StartChar: Amacron
Encoding: 256 256 188
Width: 733
GlyphClass: 2
Flags: MW
HStem: 0 21G<30 166 30 30 548 548 548 701> 151 86<248 465 248 495 219 465> 674 20G<273 458 458 458> 766 85
LayerCount: 2
Fore
SplineSet
564 804 m 2
 564 778 563 777 537 777 c 2
 194 777 l 2
 168 777 167 778 167 804 c 2
 167 835 l 2
 167 861 168 862 194 862 c 2
 537 862 l 2
 563 862 564 861 564 835 c 2
 564 804 l 2
358 569 m 1
 356 569 l 1
 356 553 303 397 248 237 c 1
 465 237 l 1
 410 397 358 553 358 569 c 1
495 151 m 1
 219 151 l 1
 199 96 181 44 166 0 c 1
 30 0 l 1
 273 694 l 1
 458 694 l 1
 701 0 l 1
 548 0 l 1
 533 44 514 96 495 151 c 1
EndSplineSet
Validated: 1
Position2: "'cpsp' +AKsDkQPBA7EDrwPJA8MDtwC7 +A5oDtQPGA7EDuwOxA68DyQO9 lookup 0 subtable" dx=7 dy=0 dh=14 dv=0
EndChar

StartChar: amacron
Encoding: 257 257 189
Width: 525
GlyphClass: 2
Flags: MW
HStem: -11 72<129 255> 409 66 573 85
VStem: 41 130 338 136
LayerCount: 2
Fore
SplineSet
63.5029296875 594 m 2
 63.5029296875 608 l 2
 63.5029296875 625 65.5029296875 634 84.5029296875 634 c 2
 439.502929688 634 l 2
 451.502929688 634 459.502929688 631 460.502929688 616 c 2
 460.502929688 571 l 2
 460.502929688 555 456.502929688 550 440.502929688 549 c 2
 85.5029296875 549 l 2
 62.5029296875 549 63.5029296875 555 63.5029296875 594 c 2
91 347 m 1
 90 347 l 1
 82 446 l 1
 144 477 193 489 262 489 c 0
 384 489 464 439 464 324 c 2
 464 0 l 1
 330 0 l 1
 330 70 l 1
 299 20 237 -11 167 -11 c 0
 91 -11 30 53 30 131 c 0
 30 237 179 266 328 270 c 1
 328 324 l 2
 328 380 310 423 262 423 c 0
 190 423 140 400 92 347 c 2
 92 347 91 346 91 346 c 1
 91 346 91 347 91 347 c 1
328 230 m 1
 246 226 161 201 161 131 c 0
 161 93 191 61 228 61 c 0
 282 61 328 97 328 144 c 2
 328 230 l 1
EndSplineSet
Validated: 33
EndChar

StartChar: Abreve
Encoding: 258 258 190
Width: 733
GlyphClass: 2
Flags: W
LayerCount: 2
Fore
SplineSet
358 569 m 1
 356 569 l 1
 356 553 303 397 248 237 c 1
 465 237 l 1
 410 397 358 553 358 569 c 1
495 151 m 1
 219 151 l 1
 199 96 181 44 166 0 c 1
 30 0 l 1
 273 694 l 1
 458 694 l 1
 701 0 l 1
 548 0 l 1
 533 44 514 96 495 151 c 1
200 926 m 1
 261 926 l 1
 261 882 310 859 360 859 c 0
 409 859 458 882 458 926 c 1
 520 926 l 1
 520 843 446 780 360 780 c 0
 274 780 200 843 200 926 c 1
EndSplineSet
Validated: 1
EndChar

StartChar: abreve
Encoding: 259 259 191
Width: 525
GlyphClass: 2
Flags: W
LayerCount: 2
Fore
SplineSet
91 347 m 1
 90 347 l 1
 82 446 l 1
 144 477 193 489 262 489 c 0
 384 489 464 439 464 324 c 2
 464 0 l 1
 330 0 l 1
 330 70 l 1
 299 20 237 -11 167 -11 c 0
 91 -11 30 53 30 131 c 0
 30 237 179 266 328 270 c 1
 328 324 l 2
 328 380 310 423 262 423 c 0
 190 423 140 400 92 347 c 2
 92 347 91 346 91 346 c 1
 91 346 91 347 91 347 c 1
328 230 m 1
 246 226 161 201 161 131 c 0
 161 93 191 61 228 61 c 0
 282 61 328 97 328 144 c 2
 328 230 l 1
100 714 m 1
 161 714 l 1
 161 670 210 647 260 647 c 0
 309 647 358 670 358 714 c 1
 420 714 l 1
 420 631 346 568 260 568 c 0
 174 568 100 631 100 714 c 1
EndSplineSet
Validated: 1
EndChar

StartChar: Aogonek
Encoding: 260 260 192
Width: 733
GlyphClass: 2
Flags: MW
HStem: -213 87 -86 86 151 86<248 465 248 495 219 465> 567 127
VStem: 81 99 258 99 503 99
LayerCount: 2
Fore
SplineSet
522.5 -172.299804688 m 2
 522.5 -179.299804688 518.5 -188.299804688 513.5 -191.299804688 c 0
 478.5 -209.299804688 434.5 -223.299804688 397.5 -223.299804688 c 0
 325.5 -223.299804688 289.5 -179.299804688 289.5 -122.299804688 c 0
 289.5 -68.2998046875 318.5 -18.2998046875 365.5 7.7001953125 c 1
 436.5 -0.2998046875 l 1
 406.5 -23.2998046875 389.5 -59.2998046875 388.5 -96.2998046875 c 0
 387.5 -126.299804688 406.5 -135.299804688 427.5 -136.299804688 c 0
 448.5 -136.299804688 469.5 -129.299804688 491.5 -124.299804688 c 0
 498.5 -122.299804688 510.5 -129.299804688 511.5 -136.299804688 c 2
 522.5 -172.299804688 l 2
358 569 m 1
 356 569 l 1
 356 553 303 397 248 237 c 1
 465 237 l 1
 410 397 358 553 358 569 c 1
495 151 m 1
 219 151 l 1
 199 96 181 44 166 0 c 1
 30 0 l 1
 273 694 l 1
 458 694 l 1
 701 0 l 1
 548 0 l 1
 533 44 514 96 495 151 c 1
EndSplineSet
Validated: 33
Position2: "'cpsp' +AKsDkQPBA7EDrwPJA8MDtwC7 +A5oDtQPGA7EDuwOxA68DyQO9 lookup 0 subtable" dx=7 dy=0 dh=14 dv=0
EndChar

StartChar: aogonek
Encoding: 261 261 193
Width: 525
GlyphClass: 2
Flags: MW
HStem: -213 87 -11 72<129 255> 409 66
VStem: 41 130 338 136
LayerCount: 2
Fore
SplineSet
324 -183.299804688 m 2
 324 -190.299804688 320 -199.299804688 315 -202.299804688 c 0
 280 -220.299804688 236 -234.299804688 199 -234.299804688 c 0
 127 -234.299804688 91 -190.299804688 91 -133.299804688 c 0
 91 -79.2998046875 120 -29.2998046875 167 -3.2998046875 c 1
 238 -11.2998046875 l 1
 208 -34.2998046875 191 -70.2998046875 190 -107.299804688 c 0
 189 -137.299804688 208 -146.299804688 229 -147.299804688 c 0
 250 -147.299804688 271 -140.299804688 293 -135.299804688 c 0
 300 -133.299804688 312 -140.299804688 313 -147.299804688 c 2
 324 -183.299804688 l 2
91 347 m 1
 90 347 l 1
 82 446 l 1
 144 477 193 489 262 489 c 0
 384 489 464 439 464 324 c 2
 464 0 l 1
 330 0 l 1
 330 70 l 1
 299 20 237 -11 167 -11 c 0
 91 -11 30 53 30 131 c 0
 30 237 179 266 328 270 c 1
 328 324 l 2
 328 380 310 423 262 423 c 0
 190 423 140 400 92 347 c 2
 92 347 91 346 91 346 c 1
 91 346 91 347 91 347 c 1
328 230 m 1
 246 226 161 201 161 131 c 0
 161 93 191 61 228 61 c 0
 282 61 328 97 328 144 c 2
 328 230 l 1
EndSplineSet
Validated: 37
Substitution2: "'smcp' +A6ADtQO2A6wA +A8MDtQAA +A8ADtQO2A6wA +A7oDtQPGA7EDuwOxA68DsQAA lookup 12 subtable" Aogonek.sc
EndChar

StartChar: Cacute
Encoding: 262 262 194
Width: 703
GlyphClass: 2
Flags: MW
HStem: -11 100<371 473.5 349.5 474.5> 606 100<371 464> 756 21G 865 20G
VStem: 61 147<292.5 401>
LayerCount: 2
Fore
SplineSet
615.5 921 m 0
 615.5 915 609.5 910 604.5 906 c 2
 445.5 777 l 1
 408.5 777 l 2
 392.5 777 381.5 777 381.5 790 c 1
 381.5 790 381.5 794 390.5 805 c 2
 476.5 922 l 2
 485.5 933 486.5 934 506.5 934 c 2
 588.5 934 l 2
 604.5 934 615.5 934 615.5 921 c 0
427 706 m 0
 505 706 559 696 633 671 c 1
 634 670 l 1
 611 540 l 1
 609 540 l 1
 552 587 501 606 427 606 c 0
 274 606 208 503 208 347 c 0
 208 192 272 89 427 89 c 0
 520 89 559 101 635 155 c 1
 636 155 l 1
 646 45 l 1
 561 -1 522 -11 427 -11 c 0
 315 -11 219 13 152 79 c 0
 87 143 61 238 61 347 c 0
 61 455 86 551 152 616 c 0
 219 681 315 706 427 706 c 0
EndSplineSet
Validated: 1
Position2: "'cpsp' +AKsDkQPBA7EDrwPJA8MDtwC7 +A5oDtQPGA7EDuwOxA68DyQO9 lookup 0 subtable" dx=7 dy=0 dh=14 dv=0
EndChar

StartChar: cacute
Encoding: 263 263 195
Width: 489
GlyphClass: 2
Flags: MW
HStem: -11 78<233 308.5 233 308.5> 397 78 537 21G 674 20G
VStem: 37 136<184 293 184 315>
LayerCount: 2
Fore
SplineSet
239.5 562 m 0
 239.5 569 246.5 576 332.5 692 c 0
 339.5 701 342.5 707 358.5 707 c 2
 448.5 707 l 2
 462.5 707 471.5 705 472.5 693 c 0
 471.5 685 466.5 683 433.5 656 c 0
 302.5 549 310.5 549 288.5 549 c 2
 259.5 549 l 2
 254.5 549 239.5 549 239.5 562 c 0
274 411 m 0
 192 411 173 350 173 236 c 0
 173 132 192 67 274 67 c 0
 343 67 398 89 446 132 c 1
 448 132 l 1
 456 36 l 1
 456 35 l 1
 399 4 343 -11 274 -11 c 0
 115 -11 37 79 37 236 c 0
 37 394 113 489 274 489 c 0
 350 489 382 481 450 446 c 1
 434 351 l 1
 432 351 l 1
 378 399 347 411 274 411 c 0
EndSplineSet
Validated: 1
Substitution2: "'smcp' +A6ADtQO2A6wA +A8MDtQAA +A8ADtQO2A6wA +A7oDtQPGA7EDuwOxA68DsQAA lookup 12 subtable" Cacute.sc
EndChar

StartChar: Ccircumflex
Encoding: 264 264 196
Width: 703
GlyphClass: 2
Flags: MW
HStem: -11 100<371 473.5 349.5 474.5> 606 100<371 464> 746 21G 853 20G
VStem: 61 147<292.5 401>
LayerCount: 2
Fore
SplineSet
599.625976562 799 m 2
 607.625976562 792 601.625976562 777 590.625976562 777 c 2
 543.625976562 777 l 1
 538.625976562 778 l 1
 426.625976562 859 l 1
 314.625976562 778 l 1
 309.625976562 777 l 1
 262.625976562 777 l 2
 251.625976562 777 246.625976562 790 254.625976562 797 c 2
 364.625976562 901 l 2
 366.625976562 903 369.625976562 904 372.625976562 904 c 2
 483.625976562 904 l 2
 486.625976562 904 489.625976562 903 491.625976562 901 c 2
 599.625976562 799 l 2
427 706 m 0
 505 706 559 696 633 671 c 1
 634 670 l 1
 611 540 l 1
 609 540 l 1
 552 587 501 606 427 606 c 0
 274 606 208 503 208 347 c 0
 208 192 272 89 427 89 c 0
 520 89 559 101 635 155 c 1
 636 155 l 1
 646 45 l 1
 561 -1 522 -11 427 -11 c 0
 315 -11 219 13 152 79 c 0
 87 143 61 238 61 347 c 0
 61 455 86 551 152 616 c 0
 219 681 315 706 427 706 c 0
EndSplineSet
Validated: 1
Position2: "'cpsp' +AKsDkQPBA7EDrwPJA8MDtwC7 +A5oDtQPGA7EDuwOxA68DyQO9 lookup 0 subtable" dx=7 dy=0 dh=14 dv=0
EndChar

StartChar: ccircumflex
Encoding: 265 265 197
Width: 489
GlyphClass: 2
Flags: MW
HStem: -11 78<233 308.5 233 308.5> 397 78 535 21G 677 20G<220 328 328 328>
VStem: 37 136<184 293 184 315>
LayerCount: 2
Fore
SplineSet
220 697 m 1
 328 697 l 1
 440 550 l 1
 439 549 l 1
 369 549 l 2
 368 549 368 549 368 550 c 2
 274 635 l 1
 180 550 l 2
 180 549 180 549 179 549 c 2
 108 550 l 1
 108 551 l 1
 220 697 l 1
274 411 m 0
 192 411 173 350 173 236 c 0
 173 132 192 67 274 67 c 0
 343 67 398 89 446 132 c 1
 448 132 l 1
 456 36 l 1
 456 35 l 1
 399 4 343 -11 274 -11 c 0
 115 -11 37 79 37 236 c 0
 37 394 113 489 274 489 c 0
 350 489 382 481 450 446 c 1
 434 351 l 1
 432 351 l 1
 378 399 347 411 274 411 c 0
EndSplineSet
Validated: 1
EndChar

StartChar: Cdotaccent
Encoding: 266 266 198
Width: 703
GlyphClass: 2
Flags: MW
HStem: -11 100<371 473.5 349.5 474.5> 606 100<371 464> 746 115
VStem: 61 147<292.5 401> 313 147
LayerCount: 2
Fore
SplineSet
500.5 825 m 2
 500.5 795 494.5 777 452.5 777 c 2
 401.5 777 l 2
 358.5 777 353.5 796 353.5 825 c 2
 353.5 844 l 2
 353.5 879 363.5 892 401.5 892 c 2
 452.5 892 l 2
 493.5 892 500.5 876 500.5 844 c 2
 500.5 825 l 2
427 706 m 0
 505 706 559 696 633 671 c 1
 634 670 l 1
 611 540 l 1
 609 540 l 1
 552 587 501 606 427 606 c 0
 274 606 208 503 208 347 c 0
 208 192 272 89 427 89 c 0
 520 89 559 101 635 155 c 1
 636 155 l 1
 646 45 l 1
 561 -1 522 -11 427 -11 c 0
 315 -11 219 13 152 79 c 0
 87 143 61 238 61 347 c 0
 61 455 86 551 152 616 c 0
 219 681 315 706 427 706 c 0
EndSplineSet
Validated: 1
Position2: "'cpsp' +AKsDkQPBA7EDrwPJA8MDtwC7 +A5oDtQPGA7EDuwOxA68DyQO9 lookup 0 subtable" dx=7 dy=0 dh=14 dv=0
EndChar

StartChar: cdotaccent
Encoding: 267 267 199
Width: 489
GlyphClass: 2
Flags: MW
HStem: -11 78<233 308.5 233 308.5> 397 78 558 115
VStem: 37 136<184 293 184 315> 195 147
LayerCount: 2
Fore
SplineSet
208.5 549 m 1
 208.5 636 l 1
 339.5 636 l 1
 339.5 549 l 1
 208.5 549 l 1
274 411 m 0
 192 411 173 350 173 236 c 0
 173 132 192 67 274 67 c 0
 343 67 398 89 446 132 c 1
 448 132 l 1
 456 36 l 1
 456 35 l 1
 399 4 343 -11 274 -11 c 0
 115 -11 37 79 37 236 c 0
 37 394 113 489 274 489 c 0
 350 489 382 481 450 446 c 1
 434 351 l 1
 432 351 l 1
 378 399 347 411 274 411 c 0
EndSplineSet
Validated: 1
EndChar

StartChar: Ccaron
Encoding: 268 268 200
Width: 703
GlyphClass: 2
Flags: MW
HStem: -11 100<371 473.5 349.5 474.5> 606 100<371 464> 746 21G 853 20G
VStem: 61 147<292.5 401>
LayerCount: 2
Fore
SplineSet
599.374023438 884 m 2
 489.374023438 780 l 2
 487.374023438 778 484.374023438 777 481.374023438 777 c 2
 370.374023438 777 l 2
 367.374023438 777 364.374023438 778 362.374023438 780 c 2
 254.374023438 882 l 2
 246.374023438 889 252.374023438 904 263.374023438 904 c 2
 310.374023438 904 l 1
 315.374023438 903 l 1
 427.374023438 822 l 1
 539.374023438 903 l 1
 544.374023438 904 l 1
 591.374023438 904 l 2
 602.374023438 904 607.374023438 891 599.374023438 884 c 2
427 706 m 0
 505 706 559 696 633 671 c 1
 634 670 l 1
 611 540 l 1
 609 540 l 1
 552 587 501 606 427 606 c 0
 274 606 208 503 208 347 c 0
 208 192 272 89 427 89 c 0
 520 89 559 101 635 155 c 1
 636 155 l 1
 646 45 l 1
 561 -1 522 -11 427 -11 c 0
 315 -11 219 13 152 79 c 0
 87 143 61 238 61 347 c 0
 61 455 86 551 152 616 c 0
 219 681 315 706 427 706 c 0
EndSplineSet
Validated: 1
Position2: "'cpsp' +AKsDkQPBA7EDrwPJA8MDtwC7 +A5oDtQPGA7EDuwOxA68DyQO9 lookup 0 subtable" dx=7 dy=0 dh=14 dv=0
EndChar

StartChar: ccaron
Encoding: 269 269 201
Width: 489
GlyphClass: 2
Flags: MW
HStem: -11 78<233 308.5 233 308.5> 397 78 535 21G 677 20G<108 109 109 179 179 180 180 180 368 369 369 439 439 440 440 440>
VStem: 37 136<184 293 184 315>
LayerCount: 2
Fore
SplineSet
439 697 m 1
 440 697 l 1
 328 549 l 1
 220 549 l 1
 108 697 l 1
 109 697 l 1
 179 697 l 1
 180 697 l 1
 274 612 l 1
 368 697 l 1
 369 697 l 1
 439 697 l 1
274 411 m 0
 192 411 173 350 173 236 c 0
 173 132 192 67 274 67 c 0
 343 67 398 89 446 132 c 1
 448 132 l 1
 456 36 l 1
 456 35 l 1
 399 4 343 -11 274 -11 c 0
 115 -11 37 79 37 236 c 0
 37 394 113 489 274 489 c 0
 350 489 382 481 450 446 c 1
 434 351 l 1
 432 351 l 1
 378 399 347 411 274 411 c 0
EndSplineSet
Validated: 1
Substitution2: "'smcp' +A6ADtQO2A6wA +A8MDtQAA +A8ADtQO2A6wA +A7oDtQPGA7EDuwOxA68DsQAA lookup 12 subtable" Ccaron.sc
EndChar

StartChar: Dcaron
Encoding: 270 270 202
Width: 794
GlyphClass: 2
Flags: MW
HStem: 0 86<236 359 359 392 236 396> 608 86<236 359 236 236> 746 21G 853 20G
VStem: 91 144 588 144
LayerCount: 2
Fore
SplineSet
583.374023438 884 m 2
 473.374023438 780 l 2
 471.374023438 778 468.374023438 777 465.374023438 777 c 2
 354.374023438 777 l 2
 351.374023438 777 348.374023438 778 346.374023438 780 c 2
 238.374023438 882 l 2
 230.374023438 889 236.374023438 904 247.374023438 904 c 2
 294.374023438 904 l 1
 299.374023438 903 l 1
 411.374023438 822 l 1
 523.374023438 903 l 1
 528.374023438 904 l 1
 575.374023438 904 l 2
 586.374023438 904 591.374023438 891 583.374023438 884 c 2
91 0 m 1
 91 694 l 1
 396 694 l 2
 489 694 584 673 648 606 c 0
 714 536 731 437 731 341 c 0
 730 248 713 151 648 85 c 0
 583 20 489 0 396 0 c 2
 91 0 l 1
236 86 m 1
 359 86 l 2
 425 86 493 98 537 146 c 0
 583 198 587 272 587 341 c 0
 587 414 584 490 537 545 c 0
 494 595 425 608 359 608 c 2
 236 608 l 1
 236 86 l 1
EndSplineSet
Validated: 1
Position2: "'cpsp' +AKsDkQPBA7EDrwPJA8MDtwC7 +A5oDtQPGA7EDuwOxA68DyQO9 lookup 0 subtable" dx=7 dy=0 dh=14 dv=0
EndChar

StartChar: dcaron
Encoding: 271 271 203
Width: 561
GlyphClass: 2
Flags: MW
HStem: -11 72<234.5 249> 397 72 481 21G 576 118
VStem: 37 136<171.5 301.5 171.5 308> 363 136 366 133
LayerCount: 2
Fore
SplineSet
589 585 m 2x00
 589 661 l 2
 589 686 590 694 610 694 c 2
 698 694 l 2
 717 694 720 689 720 672 c 2
 720 586 l 2
 720 568 719 568 663 479 c 0
 652 462 650 458 631 458 c 2
 611 458 l 2
 596 458 591 463 591 471 c 0
 591 480 596 490 623 563 c 1
 611 563 l 2
 599 563 589 565 589 585 c 2x00
223 483 m 0
 278 483 328 463 365 428 c 1
 365 694 l 1
 499 694 l 1
 499 0 l 1
 362 0 l 1
 362 52 l 1
 326 13 277 -11 221 -11 c 0
 87 -11 37 93 37 236 c 0
 37 380 88 483 223 483 c 0
362 104 m 1
 362 382 l 1
 342 400 315 411 286 411 c 0
 201 411 173 367 173 236 c 0
 173 107 195 61 274 61 c 0
 309 61 340 77 362 104 c 1
EndSplineSet
Validated: 1
Substitution2: "'smcp' +A6ADtQO2A6wA +A8MDtQAA +A8ADtQO2A6wA +A7oDtQPGA7EDuwOxA68DsQAA lookup 12 subtable" Dcaron.sc
EndChar

StartChar: Dcroat
Encoding: 272 272 204
Width: 794
GlyphClass: 2
Flags: W
CounterMasks: 1 00
LayerCount: 2
Fore
SplineSet
21 315 m 1
 20 316 l 1
 20 399 l 2
 20 400 21 400 21 400 c 1
 91 400 l 1
 91 694 l 1
 396 694 l 2
 489 694 584 673 648 606 c 0
 714 536 731 437 731 341 c 0
 730 248 713 151 648 85 c 0
 583 20 489 0 396 0 c 2
 91 0 l 1
 91 315 l 1
 21 315 l 1
236 86 m 1
 359 86 l 2
 425 86 493 98 537 146 c 0
 583 198 587 272 587 341 c 0
 587 414 584 490 537 545 c 0
 494 595 425 608 359 608 c 2
 236 608 l 1
 236 400 l 1
 329 400 l 1
 329 400 330 400 330 399 c 2
 330 315 l 1
 236 315 l 1
 236 86 l 1
EndSplineSet
Validated: 1
EndChar

StartChar: dcroat
Encoding: 273 273 205
Width: 561
GlyphClass: 2
Flags: W
LayerCount: 2
Fore
SplineSet
291 541 m 1
 290 542 l 1
 290 625 l 2
 290 626 291 626 291 626 c 1
 365 626 l 1
 365 694 l 1
 499 694 l 1
 499 626 l 1
 560 626 l 1
 560 626 561 626 561 625 c 2
 561 541 l 1
 499 541 l 1
 499 0 l 1
 362 0 l 1
 362 52 l 1
 326 13 277 -11 221 -11 c 0
 87 -11 37 93 37 236 c 0
 37 380 88 483 223 483 c 0
 278 483 328 463 365 428 c 1
 365 541 l 1
 291 541 l 1
362 104 m 1
 362 382 l 1
 342 400 315 411 286 411 c 0
 201 411 173 367 173 236 c 0
 173 107 195 61 274 61 c 0
 309 61 340 77 362 104 c 1
EndSplineSet
Validated: 1
EndChar

StartChar: Emacron
Encoding: 274 274 206
Width: 642
GlyphClass: 2
Flags: MW
HStem: 0 108 311 94 587 104 766 85
VStem: 91 147
LayerCount: 2
Fore
SplineSet
533.5 804 m 2
 533.5 778 532.5 777 506.5 777 c 2
 163.5 777 l 2
 137.5 777 136.5 778 136.5 804 c 2
 136.5 835 l 2
 136.5 861 137.5 862 163.5 862 c 2
 506.5 862 l 2
 532.5 862 533.5 861 533.5 835 c 2
 533.5 804 l 2
91 0 m 1
 91 692 l 1
 579 692 l 1
 579 591 l 1
 239 591 l 1
 239 407 l 1
 548 407 l 1
 548 312 l 1
 239 312 l 1
 239 110 l 1
 594 110 l 1
 594 0 l 1
 91 0 l 1
EndSplineSet
Validated: 1
Position2: "'cpsp' +AKsDkQPBA7EDrwPJA8MDtwC7 +A5oDtQPGA7EDuwOxA68DyQO9 lookup 0 subtable" dx=7 dy=0 dh=14 dv=0
EndChar

StartChar: emacron
Encoding: 275 275 207
Width: 511
GlyphClass: 2
Flags: MW
HStem: -11 72<250 318> 214 53 403 72 573 85
VStem: 31 129 159 111 368 111
LayerCount: 2
Fore
SplineSet
71.5029296875 594 m 2x00
 71.5029296875 608 l 2
 71.5029296875 625 73.5029296875 634 92.5029296875 634 c 2
 447.502929688 634 l 2
 459.502929688 634 467.502929688 631 468.502929688 616 c 2
 468.502929688 571 l 2
 468.502929688 555 464.502929688 550 448.502929688 549 c 2
 93.5029296875 549 l 2
 70.5029296875 549 71.5029296875 555 71.5029296875 594 c 2x00
429 432 m 0
 471 383 479 315 479 250 c 1
 158 250 l 1
 158 163 178 61 285 61 c 0
 351 61 414 85 463 129 c 1
 465 129 l 1
 473 39 l 2
 473 38 472 38 472 38 c 1
 415 6 351 -11 285 -11 c 0
 215 -11 144 3 94 51 c 0
 45 99 30 170 30 239 c 0
 30 425 139 489 270 489 c 0
 329 489 390 476 429 432 c 0
162 303 m 1
 366 303 l 1
 359 362 333 417 270 417 c 0
 208 417 172 368 162 303 c 1
EndSplineSet
Validated: 33
EndChar

StartChar: Ebreve
Encoding: 276 276 208
Width: 642
GlyphClass: 2
Flags: MW
HStem: 0 108 311 94 587 104 756 93 878 20G
VStem: 91 147
LayerCount: 2
Fore
SplineSet
523.5 881 m 0
 523.5 777 381.5 777 334.5 777 c 0
 289.5 777 146.5 777 146.5 881 c 0
 146.5 907 166.5 919 182.5 919 c 0
 188.5 919 215.5 917 218.5 883 c 1
 244.5 870 284.5 870 335.5 870 c 0
 384.5 870 425.5 870 451.5 883 c 1
 454.5 917 481.5 919 487.5 919 c 0
 502.5 919 523.5 908 523.5 881 c 0
91 0 m 1
 91 692 l 1
 579 692 l 1
 579 591 l 1
 239 591 l 1
 239 407 l 1
 548 407 l 1
 548 312 l 1
 239 312 l 1
 239 110 l 1
 594 110 l 1
 594 0 l 1
 91 0 l 1
EndSplineSet
Validated: 1
Position2: "'cpsp' +AKsDkQPBA7EDrwPJA8MDtwC7 +A5oDtQPGA7EDuwOxA68DyQO9 lookup 0 subtable" dx=7 dy=0 dh=14 dv=0
EndChar

StartChar: ebreve
Encoding: 277 277 209
Width: 511
GlyphClass: 2
Flags: MW
HStem: -11 72<250 318> 214 53 403 72 545 93 667 20G
VStem: 31 129 159 111 368 111
LayerCount: 2
Fore
SplineSet
82 721 m 1x00
 154 721 l 1
 154 669 212 642 270 642 c 0
 328 642 386 669 386 721 c 1
 458 721 l 1
 458 623 371 549 270 549 c 0
 169 549 82 623 82 721 c 1x00
429 432 m 0
 471 383 479 315 479 250 c 1
 158 250 l 1
 158 163 178 61 285 61 c 0
 351 61 414 85 463 129 c 1
 465 129 l 1
 473 39 l 2
 473 38 472 38 472 38 c 1
 415 6 351 -11 285 -11 c 0
 215 -11 144 3 94 51 c 0
 45 99 30 170 30 239 c 0
 30 425 139 489 270 489 c 0
 329 489 390 476 429 432 c 0
162 303 m 1
 366 303 l 1
 359 362 333 417 270 417 c 0
 208 417 172 368 162 303 c 1
EndSplineSet
Validated: 1
EndChar

StartChar: Edotaccent
Encoding: 278 278 210
Width: 642
GlyphClass: 2
Flags: MW
HStem: 0 108 311 94 587 104 746 115
VStem: 91 147 247 147
LayerCount: 2
Fore
SplineSet
408.5 825 m 2
 408.5 795 402.5 777 360.5 777 c 2
 309.5 777 l 2
 266.5 777 261.5 796 261.5 825 c 2
 261.5 844 l 2
 261.5 879 271.5 892 309.5 892 c 2
 360.5 892 l 2
 401.5 892 408.5 876 408.5 844 c 2
 408.5 825 l 2
91 0 m 1
 91 692 l 1
 579 692 l 1
 579 591 l 1
 239 591 l 1
 239 407 l 1
 548 407 l 1
 548 312 l 1
 239 312 l 1
 239 110 l 1
 594 110 l 1
 594 0 l 1
 91 0 l 1
EndSplineSet
Validated: 1
Position2: "'cpsp' +AKsDkQPBA7EDrwPJA8MDtwC7 +A5oDtQPGA7EDuwOxA68DyQO9 lookup 0 subtable" dx=7 dy=0 dh=14 dv=0
EndChar

StartChar: edotaccent
Encoding: 279 279 211
Width: 511
GlyphClass: 2
Flags: MW
HStem: -11 72<250 318> 214 53 403 72 558 115
VStem: 31 129 159 111 182 147 368 111
LayerCount: 2
Fore
SplineSet
204.5 549 m 1x00
 204.5 636 l 1
 335.5 636 l 1
 335.5 549 l 1
 204.5 549 l 1x00
429 432 m 0
 471 383 479 315 479 250 c 1
 158 250 l 1
 158 163 178 61 285 61 c 0
 351 61 414 85 463 129 c 1
 465 129 l 1
 473 39 l 2
 473 38 472 38 472 38 c 1
 415 6 351 -11 285 -11 c 0
 215 -11 144 3 94 51 c 0
 45 99 30 170 30 239 c 0
 30 425 139 489 270 489 c 0
 329 489 390 476 429 432 c 0
162 303 m 1
 366 303 l 1
 359 362 333 417 270 417 c 0
 208 417 172 368 162 303 c 1
EndSplineSet
Validated: 1
EndChar

StartChar: Eogonek
Encoding: 280 280 212
Width: 642
GlyphClass: 2
Flags: MW
HStem: -213 87 -213 101 0 106 311 94 590 101
VStem: 91 147 139 99 361 99 408 99
LayerCount: 2
Fore
SplineSet
499.5 -172.299804688 m 2x00
 499.5 -179.299804688 495.5 -188.299804688 490.5 -191.299804688 c 0
 455.5 -209.299804688 411.5 -223.299804688 374.5 -223.299804688 c 0
 302.5 -223.299804688 266.5 -179.299804688 266.5 -122.299804688 c 0
 266.5 -68.2998046875 295.5 -18.2998046875 342.5 7.7001953125 c 1
 413.5 -0.2998046875 l 1
 383.5 -23.2998046875 366.5 -59.2998046875 365.5 -96.2998046875 c 0
 364.5 -126.299804688 383.5 -135.299804688 404.5 -136.299804688 c 0
 425.5 -136.299804688 446.5 -129.299804688 468.5 -124.299804688 c 0
 475.5 -122.299804688 487.5 -129.299804688 488.5 -136.299804688 c 2
 499.5 -172.299804688 l 2x00
91 0 m 1
 91 692 l 1
 579 692 l 1
 579 591 l 1
 239 591 l 1
 239 407 l 1
 548 407 l 1
 548 312 l 1
 239 312 l 1
 239 110 l 1
 594 110 l 1
 594 0 l 1
 91 0 l 1
EndSplineSet
Validated: 37
Position2: "'cpsp' +AKsDkQPBA7EDrwPJA8MDtwC7 +A5oDtQPGA7EDuwOxA68DyQO9 lookup 0 subtable" dx=7 dy=0 dh=14 dv=0
EndChar

StartChar: eogonek
Encoding: 281 281 213
Width: 511
GlyphClass: 2
Flags: HMW
HStem: -213 87 -11 72<250 318> 0 53 214 53 403 72
VStem: 31 128 159 111 159 128 223 99 262 99 368 111
LayerCount: 2
Fore
SplineSet
406.5 -183.299804688 m 2x00
 406.5 -190.299804688 402.5 -199.299804688 397.5 -202.299804688 c 0
 362.5 -220.299804688 318.5 -234.299804688 281.5 -234.299804688 c 0
 209.5 -234.299804688 173.5 -190.299804688 173.5 -133.299804688 c 0
 173.5 -79.2998046875 202.5 -29.2998046875 249.5 -3.2998046875 c 1
 320.5 -11.2998046875 l 1
 290.5 -34.2998046875 273.5 -70.2998046875 272.5 -107.299804688 c 0
 271.5 -137.299804688 290.5 -146.299804688 311.5 -147.299804688 c 0
 332.5 -147.299804688 353.5 -140.299804688 375.5 -135.299804688 c 0
 382.5 -133.299804688 394.5 -140.299804688 395.5 -147.299804688 c 2
 406.5 -183.299804688 l 2x00
429 432 m 0
 390 476 329 489 270 489 c 0
 139 489 30 425 30 239 c 0
 30 170 45 99 94 51 c 0
 144 3 215 -11 285 -11 c 0
 351 -11 415 6 472 38 c 1
 472 38 473 38 473 39 c 2
 465 129 l 1
 463 129 l 1
 414 85 351 61 285 61 c 0
 178 61 158 163 158 250 c 1
 479 250 l 1
 479 315 471 383 429 432 c 0
162 303 m 1
 172 368 208 417 270 417 c 0
 333 417 359 362 366 303 c 1
 162 303 l 1
EndSplineSet
Validated: 37
Substitution2: "'smcp' +A6ADtQO2A6wA +A8MDtQAA +A8ADtQO2A6wA +A7oDtQPGA7EDuwOxA68DsQAA lookup 12 subtable" Eogonek.sc
EndChar

StartChar: Ecaron
Encoding: 282 282 214
Width: 642
GlyphClass: 2
Flags: MW
HStem: 0 108 311 94 587 104 746 21G 853 20G
VStem: 91 147
LayerCount: 2
Fore
SplineSet
507.374023438 884 m 2
 397.374023438 780 l 2
 395.374023438 778 392.374023438 777 389.374023438 777 c 2
 278.374023438 777 l 2
 275.374023438 777 272.374023438 778 270.374023438 780 c 2
 162.374023438 882 l 2
 154.374023438 889 160.374023438 904 171.374023438 904 c 2
 218.374023438 904 l 1
 223.374023438 903 l 1
 335.374023438 822 l 1
 447.374023438 903 l 1
 452.374023438 904 l 1
 499.374023438 904 l 2
 510.374023438 904 515.374023438 891 507.374023438 884 c 2
91 0 m 1
 91 692 l 1
 579 692 l 1
 579 591 l 1
 239 591 l 1
 239 407 l 1
 548 407 l 1
 548 312 l 1
 239 312 l 1
 239 110 l 1
 594 110 l 1
 594 0 l 1
 91 0 l 1
EndSplineSet
Validated: 1
Position2: "'cpsp' +AKsDkQPBA7EDrwPJA8MDtwC7 +A5oDtQPGA7EDuwOxA68DyQO9 lookup 0 subtable" dx=7 dy=0 dh=14 dv=0
EndChar

StartChar: ecaron
Encoding: 283 283 215
Width: 511
GlyphClass: 2
Flags: MW
HStem: -11 72<250 318> 214 53 403 72 535 21G 677 20G<104 105 105 175 175 176 176 176 364 365 365 435 435 436 436 436>
VStem: 31 129 159 111 368 111
LayerCount: 2
Fore
SplineSet
435 697 m 1x00
 436 697 l 1
 324 549 l 1
 216 549 l 1
 104 697 l 1
 105 697 l 1
 175 697 l 1
 176 697 l 1
 270 612 l 1
 364 697 l 1
 365 697 l 1
 435 697 l 1x00
429 432 m 0
 471 383 479 315 479 250 c 1
 158 250 l 1
 158 163 178 61 285 61 c 0
 351 61 414 85 463 129 c 1
 465 129 l 1
 473 39 l 2
 473 38 472 38 472 38 c 1
 415 6 351 -11 285 -11 c 0
 215 -11 144 3 94 51 c 0
 45 99 30 170 30 239 c 0
 30 425 139 489 270 489 c 0
 329 489 390 476 429 432 c 0
162 303 m 1
 366 303 l 1
 359 362 333 417 270 417 c 0
 208 417 172 368 162 303 c 1
EndSplineSet
Validated: 1
Substitution2: "'smcp' +A6ADtQO2A6wA +A8MDtQAA +A8ADtQO2A6wA +A7oDtQPGA7EDuwOxA68DsQAA lookup 12 subtable" Ecaron.sc
EndChar

StartChar: Gcircumflex
Encoding: 284 284 216
Width: 733
GlyphClass: 2
Flags: MW
HStem: -11 100<371 443 349.5 466.5> 230 95 606 100<371 468> 746 21G 853 20G
VStem: 61 147<292.5 401> 522 136<99 235 235 235>
LayerCount: 2
Fore
SplineSet
599.625976562 799 m 2
 607.625976562 792 601.625976562 777 590.625976562 777 c 2
 543.625976562 777 l 1
 538.625976562 778 l 1
 426.625976562 859 l 1
 314.625976562 778 l 1
 309.625976562 777 l 1
 262.625976562 777 l 2
 251.625976562 777 246.625976562 790 254.625976562 797 c 2
 364.625976562 901 l 2
 366.625976562 903 369.625976562 904 372.625976562 904 c 2
 483.625976562 904 l 2
 486.625976562 904 489.625976562 903 491.625976562 901 c 2
 599.625976562 799 l 2
427 706 m 0
 512 706 571 693 648 657 c 1
 649 656 l 1
 625 526 l 1
 565 583 509 606 427 606 c 0
 274 606 208 503 208 347 c 0
 208 192 272 89 427 89 c 0
 459 89 491 92 522 99 c 1
 522 235 l 1
 428 235 l 2
 427 235 427 236 427 236 c 1
 427 329 l 1
 427 329 427 330 428 330 c 2
 657 330 l 2
 658 330 658 329 658 329 c 1
 658 39 l 1
 658 38 l 1
 585 5 506 -11 427 -11 c 0
 315 -11 219 13 152 79 c 0
 87 143 61 238 61 347 c 0
 61 455 86 551 152 616 c 0
 219 681 315 706 427 706 c 0
EndSplineSet
Validated: 1
Position2: "'cpsp' +AKsDkQPBA7EDrwPJA8MDtwC7 +A5oDtQPGA7EDuwOxA68DyQO9 lookup 0 subtable" dx=7 dy=0 dh=14 dv=0
EndChar

StartChar: gcircumflex
Encoding: 285 285 217
Width: 527
GlyphClass: 2
Flags: HMW
HStem: -206 72 -17 109 92 72 138 72 397 72 535 21G 677 20G<317 425 425 425>
VStem: 43 128 317 128 421 102
LayerCount: 2
Fore
SplineSet
237 697 m 5x00
 345 697 l 5
 457 550 l 5
 456 549 l 5
 386 549 l 6
 385 549 385 549 385 550 c 6
 291 635 l 5
 197 550 l 6
 197 549 197 549 196 549 c 6
 125 550 l 5
 125 551 l 5
 237 697 l 5x00
365 413 m 1
 365 483 l 1
 499 483 l 1
 499 0 l 2
 499 -131 411 -191 274 -191 c 0
 197 -191 143 -177 76 -139 c 1
 76 -49 l 1
 78 -48 l 1
 139 -99 194 -119 274 -119 c 0
 338 -119 362 -69 362 0 c 2
 362 121 l 1
 337 63 292 24 234 24 c 0
 100 24 37 103 37 236 c 0
 37 388 100 483 243 483 c 0
 294 483 336 456 365 413 c 1
362 250 m 1
 363 251 l 1
 365 251 l 1
 365 353 l 1
 349 388 322 411 286 411 c 0
 199 411 173 332 173 236 c 0
 173 154 200 96 274 96 c 0
 334 96 362 165 362 250 c 1
EndSplineSet
EndChar

StartChar: Gbreve
Encoding: 286 286 218
Width: 733
GlyphClass: 2
Flags: MW
HStem: -11 100<371 443 349.5 466.5> 230 95 606 100<371 468> 756 93 878 20G
VStem: 61 147<292.5 401> 522 136<99 235 235 235>
LayerCount: 2
Fore
SplineSet
615.5 881 m 0
 615.5 777 473.5 777 426.5 777 c 0
 381.5 777 238.5 777 238.5 881 c 0
 238.5 907 258.5 919 274.5 919 c 0
 280.5 919 307.5 917 310.5 883 c 1
 336.5 870 376.5 870 427.5 870 c 0
 476.5 870 517.5 870 543.5 883 c 1
 546.5 917 573.5 919 579.5 919 c 0
 594.5 919 615.5 908 615.5 881 c 0
427 706 m 0
 512 706 571 693 648 657 c 1
 649 656 l 1
 625 526 l 1
 565 583 509 606 427 606 c 0
 274 606 208 503 208 347 c 0
 208 192 272 89 427 89 c 0
 459 89 491 92 522 99 c 1
 522 235 l 1
 428 235 l 2
 427 235 427 236 427 236 c 1
 427 329 l 1
 427 329 427 330 428 330 c 2
 657 330 l 2
 658 330 658 329 658 329 c 1
 658 39 l 1
 658 38 l 1
 585 5 506 -11 427 -11 c 0
 315 -11 219 13 152 79 c 0
 87 143 61 238 61 347 c 0
 61 455 86 551 152 616 c 0
 219 681 315 706 427 706 c 0
EndSplineSet
Validated: 1
Position2: "'cpsp' +AKsDkQPBA7EDrwPJA8MDtwC7 +A5oDtQPGA7EDuwOxA68DyQO9 lookup 0 subtable" dx=7 dy=0 dh=14 dv=0
EndChar

StartChar: gbreve
Encoding: 287 287 219
Width: 527
GlyphClass: 2
Flags: HMW
HStem: -206 72 -17 109 92 72 138 72 397 72 545 93 667 20G
VStem: 43 128 317 128 421 102
LayerCount: 2
Fore
SplineSet
83 721 m 5x00
 155 721 l 5
 155 669 213 642 271 642 c 4
 329 642 387 669 387 721 c 5
 459 721 l 5
 459 623 372 549 271 549 c 4
 170 549 83 623 83 721 c 5x00
365 413 m 1
 365 483 l 1
 499 483 l 1
 499 0 l 2
 499 -131 411 -191 274 -191 c 0
 197 -191 143 -177 76 -139 c 1
 76 -49 l 1
 78 -48 l 1
 139 -99 194 -119 274 -119 c 0
 338 -119 362 -69 362 0 c 2
 362 121 l 1
 337 63 292 24 234 24 c 0
 100 24 37 103 37 236 c 0
 37 388 100 483 243 483 c 0
 294 483 336 456 365 413 c 1
362 250 m 1
 363 251 l 1
 365 251 l 1
 365 353 l 1
 349 388 322 411 286 411 c 0
 199 411 173 332 173 236 c 0
 173 154 200 96 274 96 c 0
 334 96 362 165 362 250 c 1
EndSplineSet
Substitution2: "'smcp' +A6ADtQO2A6wA +A8MDtQAA +A8ADtQO2A6wA +A7oDtQPGA7EDuwOxA68DsQAA lookup 12 subtable" Gbreve.sc
EndChar

StartChar: Gdotaccent
Encoding: 288 288 220
Width: 733
GlyphClass: 2
Flags: MW
HStem: -11 100<371 443 349.5 466.5> 230 95 606 100<371 468> 746 115
VStem: 61 147<292.5 401> 293 147 522 136<99 235 235 235>
LayerCount: 2
Fore
SplineSet
500.5 825 m 2
 500.5 795 494.5 777 452.5 777 c 2
 401.5 777 l 2
 358.5 777 353.5 796 353.5 825 c 2
 353.5 844 l 2
 353.5 879 363.5 892 401.5 892 c 2
 452.5 892 l 2
 493.5 892 500.5 876 500.5 844 c 2
 500.5 825 l 2
427 706 m 0
 512 706 571 693 648 657 c 1
 649 656 l 1
 625 526 l 1
 565 583 509 606 427 606 c 0
 274 606 208 503 208 347 c 0
 208 192 272 89 427 89 c 0
 459 89 491 92 522 99 c 1
 522 235 l 1
 428 235 l 2
 427 235 427 236 427 236 c 1
 427 329 l 1
 427 329 427 330 428 330 c 2
 657 330 l 2
 658 330 658 329 658 329 c 1
 658 39 l 1
 658 38 l 1
 585 5 506 -11 427 -11 c 0
 315 -11 219 13 152 79 c 0
 87 143 61 238 61 347 c 0
 61 455 86 551 152 616 c 0
 219 681 315 706 427 706 c 0
EndSplineSet
Validated: 1
Position2: "'cpsp' +AKsDkQPBA7EDrwPJA8MDtwC7 +A5oDtQPGA7EDuwOxA68DyQO9 lookup 0 subtable" dx=7 dy=0 dh=14 dv=0
EndChar

StartChar: gdotaccent
Encoding: 289 289 221
Width: 561
GlyphClass: 2
Flags: HMW
HStem: -206 72 -17 109 92 72 138 72 397 72 558 115
VStem: 43 128 163 147 317 128 421 102
LayerCount: 2
Fore
SplineSet
215.5 549 m 5x00
 215.5 636 l 5
 346.5 636 l 5
 346.5 549 l 5
 215.5 549 l 5x00
365 413 m 1
 365 483 l 1
 499 483 l 1
 499 0 l 2
 499 -131 411 -191 274 -191 c 0
 197 -191 143 -177 76 -139 c 1
 76 -49 l 1
 78 -48 l 1
 139 -99 194 -119 274 -119 c 0
 338 -119 362 -69 362 0 c 2
 362 121 l 1
 337 63 292 24 234 24 c 0
 100 24 37 103 37 236 c 0
 37 388 100 483 243 483 c 0
 294 483 336 456 365 413 c 1
362 250 m 1
 363 251 l 1
 365 251 l 1
 365 353 l 1
 349 388 322 411 286 411 c 0
 199 411 173 332 173 236 c 0
 173 154 200 96 274 96 c 0
 334 96 362 165 362 250 c 1
EndSplineSet
EndChar

StartChar: Gcommaaccent
Encoding: 290 290 222
Width: 733
GlyphClass: 2
Flags: MW
HStem: -292 21G -197 118 -11 100<371 443 349.5 466.5> 230 95 606 100<371 468>
VStem: 61 147<292.5 401> 522 136<99 235 235 235>
LayerCount: 2
Fore
SplineSet
486 -165 m 2
 486 -180 486 -182 478 -194 c 2
 431 -269 l 2
 422 -284 421 -284 403 -284 c 2
 392 -284 l 2
 378 -284 369 -284 369 -273 c 2
 383 -232 l 2
 389 -218 393 -203 399 -189 c 1
 369 -189 368 -188 368 -165 c 2
 368 -95 l 2
 368 -72 369 -71 392 -71 c 2
 462 -71 l 2
 485 -71 486 -72 486 -95 c 2
 486 -165 l 2
427 706 m 0
 512 706 571 693 648 657 c 1
 649 656 l 1
 625 526 l 1
 565 583 509 606 427 606 c 0
 274 606 208 503 208 347 c 0
 208 192 272 89 427 89 c 0
 459 89 491 92 522 99 c 1
 522 235 l 1
 428 235 l 2
 427 235 427 236 427 236 c 1
 427 329 l 1
 427 329 427 330 428 330 c 2
 657 330 l 2
 658 330 658 329 658 329 c 1
 658 39 l 1
 658 38 l 1
 585 5 506 -11 427 -11 c 0
 315 -11 219 13 152 79 c 0
 87 143 61 238 61 347 c 0
 61 455 86 551 152 616 c 0
 219 681 315 706 427 706 c 0
EndSplineSet
Validated: 1
Position2: "'cpsp' +AKsDkQPBA7EDrwPJA8MDtwC7 +A5oDtQPGA7EDuwOxA68DyQO9 lookup 0 subtable" dx=7 dy=0 dh=14 dv=0
EndChar

StartChar: gcommaaccent
Encoding: 291 291 223
Width: 561
GlyphClass: 2
Flags: MW
HStem: -206 72 -17 109 92 72 138 72 397 72 532 118 725 20G
VStem: 43 128 317 128 421 102
LayerCount: 2
Fore
SplineSet
305.5 571 m 2x00
 305.5 658 l 2
 305.5 676 310.5 680 363.5 765 c 0
 374.5 782 375.5 786 393.5 786 c 2
 415.5 786 l 2
 428.5 786 434.5 782 434.5 773 c 0
 434.5 759 422.5 732 402.5 680 c 1
 415.5 680 l 2
 427.5 680 436.5 678 436.5 659 c 2
 436.5 581 l 2
 436.5 557 434.5 549 415.5 549 c 2
 326.5 549 l 2
 306.5 549 305.5 557 305.5 571 c 2x00
365 413 m 1
 365 483 l 1
 499 483 l 1
 499 0 l 2
 499 -131 411 -191 274 -191 c 0
 197 -191 143 -177 76 -139 c 1
 76 -49 l 1
 78 -48 l 1
 139 -99 194 -119 274 -119 c 0
 338 -119 362 -69 362 0 c 2
 362 121 l 1
 337 63 292 24 234 24 c 0
 100 24 37 103 37 236 c 0
 37 388 100 483 243 483 c 0
 294 483 336 456 365 413 c 1
362 250 m 1
 363 251 l 1
 365 251 l 1
 365 353 l 1
 349 388 322 411 286 411 c 0
 199 411 173 332 173 236 c 0
 173 154 200 96 274 96 c 0
 334 96 362 165 362 250 c 1
EndSplineSet
Validated: 1
EndChar

StartChar: Hcircumflex
Encoding: 292 292 224
Width: 794
GlyphClass: 2
Flags: MW
HStem: 0 21G<91 239 91 91 554 701 554 554> 314 94<239 554 239 554> 674 20G<91 239 239 239 554 701 701 701> 746 21G 853 20G
VStem: 91 147 555 147
LayerCount: 2
Fore
SplineSet
568.625976562 799 m 2
 576.625976562 792 570.625976562 777 559.625976562 777 c 2
 512.625976562 777 l 1
 507.625976562 778 l 1
 395.625976562 859 l 1
 283.625976562 778 l 1
 278.625976562 777 l 1
 231.625976562 777 l 2
 220.625976562 777 215.625976562 790 223.625976562 797 c 2
 333.625976562 901 l 2
 335.625976562 903 338.625976562 904 341.625976562 904 c 2
 452.625976562 904 l 2
 455.625976562 904 458.625976562 903 460.625976562 901 c 2
 568.625976562 799 l 2
91 694 m 1
 239 694 l 1
 239 408 l 1
 554 408 l 1
 554 694 l 1
 701 694 l 1
 701 0 l 1
 554 0 l 1
 554 314 l 1
 239 314 l 1
 239 0 l 1
 91 0 l 1
 91 694 l 1
EndSplineSet
Validated: 1
Position2: "'cpsp' +AKsDkQPBA7EDrwPJA8MDtwC7 +A5oDtQPGA7EDuwOxA68DyQO9 lookup 0 subtable" dx=7 dy=0 dh=14 dv=0
EndChar

StartChar: hcircumflex
Encoding: 293 293 225
Width: 561
GlyphClass: 2
Flags: MW
HStem: 0 21G<59 195 59 59 364 500 364 364> 325 72 397 72 674 20G<59 193 193 193> 746 21G 853 20G
VStem: 60 136 364 136<0 324 0 354>
LayerCount: 2
Fore
SplineSet
225.5 902 m 1x00
 333.5 902 l 1
 445.5 755 l 1
 444.5 754 l 1
 374.5 754 l 2
 373.5 754 373.5 754 373.5 755 c 2
 279.5 840 l 1
 185.5 755 l 2
 185.5 754 185.5 754 184.5 754 c 2
 113.5 755 l 1
 113.5 756 l 1
 225.5 902 l 1x00
59 694 m 1
 193 694 l 1
 193 378 l 1
 222 440 279 483 348 483 c 0
 461 483 500 437 500 324 c 2
 500 0 l 1
 364 0 l 1
 364 324 l 2
 364 384 349 411 295 411 c 0
 235 411 195 350 195 278 c 2
 195 0 l 1
 59 0 l 1
 59 694 l 1
EndSplineSet
Validated: 1
EndChar

StartChar: Hbar
Encoding: 294 294 226
Width: 794
GlyphClass: 2
Flags: MW
HStem: 0 21G<120.5 139 139 190 582.5 603 603 654> 314 94<238 555 238 555> 471 100<26 91 36 91 238 555 702 757> 674 20G<139 190 190 210.5 603 654 654 674.5>
VStem: 91 147<48 314 408 471 571 646> 555 147<48 314 314 314 408 471 571 646>
LayerCount: 2
Fore
SplineSet
793 507 m 2
 793 487 777 471 757 471 c 2
 702 471 l 1
 702 48 l 2
 702 13 692 0 654 0 c 2
 603 0 l 2
 562 0 555 16 555 48 c 2
 555 314 l 1
 238 314 l 1
 238 48 l 2
 238 13 228 0 190 0 c 2
 139 0 l 2
 102 0 91 12 91 48 c 2
 91 471 l 1
 36 471 l 2
 16 471 0 487 0 507 c 2
 0 535 l 2
 0 555 16 571 36 571 c 2
 91 571 l 1
 91 646 l 2
 91 683 103 694 139 694 c 2
 190 694 l 2
 231 694 238 678 238 646 c 2
 238 571 l 1
 555 571 l 1
 555 646 l 2
 555 681 565 694 603 694 c 2
 654 694 l 2
 695 694 702 678 702 646 c 2
 702 571 l 1
 757 571 l 2
 777 571 793 555 793 535 c 2
 793 507 l 2
555 408 m 1
 555 471 l 1
 238 471 l 1
 238 408 l 1
 555 408 l 1
EndSplineSet
Validated: 1
Position2: "'cpsp' +AKsDkQPBA7EDrwPJA8MDtwC7 +A5oDtQPGA7EDuwOxA68DyQO9 lookup 0 subtable" dx=7 dy=0 dh=14 dv=0
EndChar

StartChar: hbar
Encoding: 295 295 227
Width: 561
GlyphClass: 2
Flags: MW
HStem: 0 21G<89.5 108 108 148 391.5 412 412 452> 325 72 397 72<304 330> 526 100<-5 60 5 60 193 245> 674 20G<108 145 145 165.5>
VStem: 60 136<48 269> 145 136<552.5 694> 364 136<48 323 323 325>
LayerCount: 2
Fore
SplineSet
500 48 m 2x41
 500 13 490 0 452 0 c 2
 412 0 l 2
 371 0 364 16 364 48 c 2
 364 323 l 2
 364 374 354 397 306 397 c 0
 254 397 196 356 196 269 c 2
 196 48 l 2
 196 13 186 0 148 0 c 2
 108 0 l 2
 71 0 60 12 60 48 c 2
 60 526 l 1
 5 526 l 2
 -15 526 -31 543 -31 562 c 2
 -31 590 l 2
 -31 610 -15 626 5 626 c 2
 60 626 l 1
 60 646 l 2xb5
 60 683 72 694 108 694 c 2
 145 694 l 2
 186 694 193 678 193 646 c 2
 193 626 l 1
 245 626 l 2
 264 626 281 610 281 590 c 2
 281 562 l 2
 281 543 264 526 245 526 c 2
 193 526 l 1
 193 372 l 1
 194 372 l 1
 208 400 254 469 354 469 c 0x3a
 456 469 500 428 500 325 c 2
 500 48 l 2x41
EndSplineSet
Validated: 1
EndChar

StartChar: Itilde
Encoding: 296 296 228
Width: 331
GlyphClass: 2
Flags: W
LayerCount: 2
Fore
SplineSet
91 694 m 1
 238 694 l 1
 238 0 l 1
 91 0 l 1
 91 694 l 1
88 820 m 0
 88 819 87 819 87 819 c 1
 23 819 l 1
 23 819 22 819 22 820 c 0
 22 881 64 934 121 934 c 0
 178 934 226 884 252 884 c 0
 274 884 285 907 287 934 c 1
 350 934 l 1
 350 934 351 934 351 933 c 0
 351 871 309 819 252 819 c 0
 196 819 147 869 121 869 c 0
 100 869 88 846 88 820 c 0
EndSplineSet
Validated: 1
EndChar

StartChar: itilde
Encoding: 297 297 229
Width: 256
GlyphClass: 2
Flags: W
LayerCount: 2
Fore
SplineSet
59 472 m 1
 192 472 l 1
 192 0 l 1
 59 0 l 1
 59 472 l 1
38 598 m 0
 38 597 37 597 37 597 c 1
 -27 597 l 1
 -27 597 -28 597 -28 598 c 0
 -28 659 14 712 71 712 c 0
 128 712 176 662 202 662 c 0
 224 662 235 685 237 712 c 1
 300 712 l 1
 300 712 301 712 301 711 c 0
 301 649 259 597 202 597 c 0
 146 597 97 647 71 647 c 0
 50 647 38 624 38 598 c 0
EndSplineSet
Validated: 1
EndChar

StartChar: Imacron
Encoding: 298 298 230
Width: 331
GlyphClass: 2
Flags: MW
HStem: 0 21G<91 238 91 91> 674 20G<91 238 238 238> 766 85
VStem: 92 147
LayerCount: 2
Fore
SplineSet
363 804 m 2
 363 778 362 777 336 777 c 2
 -7 777 l 2
 -33 777 -34 778 -34 804 c 2
 -34 835 l 2
 -34 861 -33 862 -7 862 c 2
 336 862 l 2
 362 862 363 861 363 835 c 2
 363 804 l 2
91 694 m 1
 238 694 l 1
 238 0 l 1
 91 0 l 1
 91 694 l 1
EndSplineSet
Validated: 1
Position2: "'cpsp' +AKsDkQPBA7EDrwPJA8MDtwC7 +A5oDtQPGA7EDuwOxA68DyQO9 lookup 0 subtable" dx=7 dy=0 dh=14 dv=0
EndChar

StartChar: imacron
Encoding: 299 299 231
Width: 256
GlyphClass: 2
Flags: MW
HStem: 0 21G<59 192 59 59> 438 20G 573 85
VStem: 61 133
LayerCount: 2
Fore
SplineSet
-72.9970703125 594 m 2
 -72.9970703125 608 l 2
 -72.9970703125 625 -70.9970703125 634 -51.9970703125 634 c 2
 303.002929688 634 l 2
 315.002929688 634 323.002929688 631 324.002929688 616 c 2
 324.002929688 571 l 2
 324.002929688 555 320.002929688 550 304.002929688 549 c 2
 -50.9970703125 549 l 2
 -73.9970703125 549 -72.9970703125 555 -72.9970703125 594 c 2
59 472 m 1
 192 472 l 1
 192 0 l 1
 59 0 l 1
 59 472 l 1
EndSplineSet
Validated: 33
EndChar

StartChar: Ibreve
Encoding: 300 300 232
Width: 331
GlyphClass: 2
Flags: MW
HStem: 0 21G<91 238 91 91> 674 20G<91 238 238 238> 756 93 878 20G
VStem: 92 147
LayerCount: 2
Fore
SplineSet
353 881 m 0
 353 777 211 777 164 777 c 0
 119 777 -24 777 -24 881 c 0
 -24 907 -4 919 12 919 c 0
 18 919 45 917 48 883 c 1
 74 870 114 870 165 870 c 0
 214 870 255 870 281 883 c 1
 284 917 311 919 317 919 c 0
 332 919 353 908 353 881 c 0
91 694 m 1
 238 694 l 1
 238 0 l 1
 91 0 l 1
 91 694 l 1
EndSplineSet
Validated: 1
Position2: "'cpsp' +AKsDkQPBA7EDrwPJA8MDtwC7 +A5oDtQPGA7EDuwOxA68DyQO9 lookup 0 subtable" dx=7 dy=0 dh=14 dv=0
EndChar

StartChar: ibreve
Encoding: 301 301 233
Width: 256
GlyphClass: 2
Flags: MW
HStem: 0 21G<59 192 59 59> 438 20G 545 93 667 20G
VStem: 61 133
LayerCount: 2
Fore
SplineSet
-62.5 721 m 1
 9.5 721 l 1
 9.5 669 67.5 642 125.5 642 c 0
 183.5 642 241.5 669 241.5 721 c 1
 313.5 721 l 1
 313.5 623 226.5 549 125.5 549 c 0
 24.5 549 -62.5 623 -62.5 721 c 1
59 472 m 1
 192 472 l 1
 192 0 l 1
 59 0 l 1
 59 472 l 1
EndSplineSet
Validated: 1
EndChar

StartChar: Iogonek
Encoding: 302 302 234
Width: 331
GlyphClass: 2
Flags: MW
HStem: -213 87 0 21G<91 238 91 91> 674 20G<91 238 238 238>
VStem: 92 147
LayerCount: 2
Fore
SplineSet
286 -172.299804688 m 2
 286 -179.299804688 282 -188.299804688 277 -191.299804688 c 0
 242 -209.299804688 198 -223.299804688 161 -223.299804688 c 0
 89 -223.299804688 53 -179.299804688 53 -122.299804688 c 0
 53 -68.2998046875 82 -18.2998046875 129 7.7001953125 c 1
 200 -0.2998046875 l 1
 170 -23.2998046875 153 -59.2998046875 152 -96.2998046875 c 0
 151 -126.299804688 170 -135.299804688 191 -136.299804688 c 0
 212 -136.299804688 233 -129.299804688 255 -124.299804688 c 0
 262 -122.299804688 274 -129.299804688 275 -136.299804688 c 2
 286 -172.299804688 l 2
91 694 m 1
 238 694 l 1
 238 0 l 1
 91 0 l 1
 91 694 l 1
EndSplineSet
Validated: 37
Position2: "'cpsp' +AKsDkQPBA7EDrwPJA8MDtwC7 +A5oDtQPGA7EDuwOxA68DyQO9 lookup 0 subtable" dx=7 dy=0 dh=14 dv=0
EndChar

StartChar: iogonek
Encoding: 303 303 235
Width: 256
GlyphClass: 2
Flags: MW
HStem: -213 87 0 21G<59 192 59 59> 438 20G 558 137
VStem: 61 133 102 133
LayerCount: 2
Fore
SplineSet
247 -172.299804688 m 2x00
 247 -179.299804688 243 -188.299804688 238 -191.299804688 c 0
 203 -209.299804688 159 -223.299804688 122 -223.299804688 c 0
 50 -223.299804688 14 -179.299804688 14 -122.299804688 c 0
 14 -68.2998046875 43 -18.2998046875 90 7.7001953125 c 1
 161 -0.2998046875 l 1
 131 -23.2998046875 114 -59.2998046875 113 -96.2998046875 c 0
 112 -126.299804688 131 -135.299804688 152 -136.299804688 c 0
 173 -136.299804688 194 -129.299804688 216 -124.299804688 c 0
 223 -122.299804688 235 -129.299804688 236 -136.299804688 c 2
 247 -172.299804688 l 2x00
59 472 m 1
 192 472 l 1
 192 0 l 1
 59 0 l 1
 59 472 l 1
58 572 m 1
 58 694 l 1
 192 694 l 1
 192 572 l 1
 58 572 l 1
EndSplineSet
Validated: 37
EndChar

StartChar: Idotaccent
Encoding: 304 304 236
Width: 331
GlyphClass: 2
Flags: MW
HStem: 0 21G<91 238 91 91> 674 20G<91 238 238 238> 746 115
VStem: 92 147
LayerCount: 2
Fore
SplineSet
238 825 m 2
 238 795 232 777 190 777 c 2
 139 777 l 2
 96 777 91 796 91 825 c 2
 91 844 l 2
 91 879 101 892 139 892 c 2
 190 892 l 2
 231 892 238 876 238 844 c 2
 238 825 l 2
91 694 m 1
 238 694 l 1
 238 0 l 1
 91 0 l 1
 91 694 l 1
EndSplineSet
Validated: 1
EndChar

StartChar: dotlessi
Encoding: 305 305 237
Width: 256
GlyphClass: 2
Flags: W
LayerCount: 2
Fore
SplineSet
59 472 m 1
 192 472 l 1
 192 0 l 1
 59 0 l 1
 59 472 l 1
EndSplineSet
Validated: 1
EndChar

StartChar: I_J
Encoding: 306 306 238
Width: 817
GlyphClass: 3
Flags: MW
HStem: -22 100<509.5 536 463 585.5> 674 20G<140 191 191 211.5 628 676 676 696.5>
VStem: 92 147<48 646> 388 144 532 144 580 144<155 646>
LayerCount: 2
Fore
SplineSet
239 48 m 2x64
 239 13 229 0 191 0 c 2
 140 0 l 2
 103 0 92 12 92 48 c 2
 92 646 l 2
 92 683 104 694 140 694 c 2
 191 694 l 2
 232 694 239 678 239 646 c 2
 239 48 l 2x64
724 149 m 2
 724 32 639 -22 532 -22 c 0
 487 -22 427 -13 368 13 c 0
 349 21 343 24 343 33 c 0
 343 37 353 90 358 121 c 0
 360 131 362 140 372 140 c 0
 378 140 380 138 388 128 c 0
 402 110 434 78 492 78 c 0
 580 78 580 134 580 155 c 2
 580 646 l 2x94
 580 681 590 694 628 694 c 2
 676 694 l 2x48
 717 694 724 678 724 646 c 2
 724 149 l 2
EndSplineSet
Validated: 1
Ligature2: "'liga' Standard Ligatures lookup 9 subtable" I J
Position2: "'cpsp' +AKsDkQPBA7EDrwPJA8MDtwC7 +A5oDtQPGA7EDuwOxA68DyQO9 lookup 0 subtable" dx=7 dy=0 dh=14 dv=0
EndChar

StartChar: i_j
Encoding: 307 307 239
Width: 516
GlyphClass: 3
Flags: MW
HStem: -205 84<273.5 290 253 360> 558 115<80.5 153 102 153 355 406>
VStem: 54 147<606 625 591 642.5> 61 133<48 410> 307 147<606 625> 321 133<-55 -32 -32 410>
LayerCount: 2
Fore
SplineSet
201 606 m 2x64
 201 576 195 558 153 558 c 2
 102 558 l 2
 59 558 54 577 54 606 c 2
 54 625 l 2
 54 660 64 673 102 673 c 2
 153 673 l 2
 194 673 201 657 201 625 c 2
 201 606 l 2x64
454 606 m 2
 454 576 448 558 406 558 c 2
 355 558 l 2
 312 558 307 577 307 606 c 2
 307 625 l 2x58
 307 660 317 673 355 673 c 2
 406 673 l 2
 447 673 454 657 454 625 c 2
 454 606 l 2
194 48 m 2
 194 13 184 0 146 0 c 2
 109 0 l 2
 72 0 61 12 61 48 c 2
 61 410 l 2
 61 447 73 458 109 458 c 2
 146 458 l 2
 187 458 194 442 194 410 c 2
 194 48 l 2
454 -32 m 2
 454 -131 415 -205 305 -205 c 0
 242 -205 159 -177 159 -158 c 0
 159 -155 161 -147 168 -125 c 0
 173 -106 174 -99 184 -99 c 0
 187 -99 189 -99 199 -106 c 0
 220 -118 247 -121 259 -121 c 0
 321 -121 321 -81 321 -55 c 2
 321 410 l 2x84
 321 445 331 458 369 458 c 2
 406 458 l 2
 447 458 454 442 454 410 c 2
 454 -32 l 2
EndSplineSet
Validated: 1
Ligature2: "'liga' Standard Ligatures lookup 9 subtable" i j
Substitution2: "'smcp' +A6ADtQO2A6wA +A8MDtQAA +A8ADtQO2A6wA +A7oDtQPGA7EDuwOxA68DsQAA lookup 12 subtable" IJ.sc
EndChar

StartChar: Jcircumflex
Encoding: 308 308 240
Width: 519
GlyphClass: 2
Flags: MW
HStem: -22 100 674 20G<282 426 426 426> 746 21G 853 20G
VStem: 91 144 235 144 283 144
LayerCount: 2
Fore
SplineSet
526.625976562 799 m 2x00
 534.625976562 792 528.625976562 777 517.625976562 777 c 2
 470.625976562 777 l 1
 465.625976562 778 l 1
 353.625976562 859 l 1
 241.625976562 778 l 1
 236.625976562 777 l 1
 189.625976562 777 l 2
 178.625976562 777 173.625976562 790 181.625976562 797 c 2
 291.625976562 901 l 2
 293.625976562 903 296.625976562 904 299.625976562 904 c 2
 410.625976562 904 l 2
 413.625976562 904 416.625976562 903 418.625976562 901 c 2
 526.625976562 799 l 2x00
282 694 m 1
 426 694 l 1
 426 146 l 2
 426 40 351 -22 236 -22 c 0
 170 -22 106 -8 46 20 c 1
 67 140 l 1
 68 139 l 1
 92 99 135 75 182 75 c 0
 242 75 282 98 282 146 c 2
 282 694 l 1
EndSplineSet
Validated: 1
Position2: "'cpsp' +AKsDkQPBA7EDrwPJA8MDtwC7 +A5oDtQPGA7EDuwOxA68DyQO9 lookup 0 subtable" dx=7 dy=0 dh=14 dv=0
EndChar

StartChar: jcircumflex
Encoding: 309 309 241
Width: 286
GlyphClass: 2
Flags: MW
HStem: -205 84 438 20G 535 21G 677 20G<103.5 211.5 211.5 211.5>
VStem: -42 133 91 133<-66 -56 -56 472>
LayerCount: 2
Fore
SplineSet
103.5 697 m 1x00
 211.5 697 l 1
 323.5 550 l 1
 322.5 549 l 1
 252.5 549 l 2
 251.5 549 251.5 549 251.5 550 c 2
 157.5 635 l 1
 63.5 550 l 2
 63.5 549 63.5 549 62.5 549 c 2
 -8.5 550 l 1
 -8.5 551 l 1
 103.5 697 l 1x00
91 472 m 1
 224 472 l 1
 224 -56 l 2
 224 -141 164 -178 77 -178 c 0
 26 -178 -24 -168 -70 -148 c 1
 -71 -147 l 1
 -70 -147 l 1
 -45 -77 l 1
 -43 -76 l 1
 -23 -87 0 -93 24 -93 c 0
 59 -93 91 -87 91 -66 c 2
 91 472 l 1
EndSplineSet
Validated: 1
EndChar

StartChar: Kcommaaccent
Encoding: 310 310 242
Width: 764
GlyphClass: 2
Flags: MW
HStem: -292 21G -197 118 0 21G<91 221 91 91 568 716 568 568> 674 20G<91 221 221 221 543 701 701 701>
VStem: 91 130<0 217 374 694>
LayerCount: 2
Fore
SplineSet
462.5 -154 m 2
 462.5 -169 462.5 -171 454.5 -183 c 2
 407.5 -258 l 2
 398.5 -273 397.5 -273 379.5 -273 c 2
 368.5 -273 l 2
 354.5 -273 345.5 -273 345.5 -262 c 2
 359.5 -221 l 2
 365.5 -207 369.5 -192 375.5 -178 c 1
 345.5 -178 344.5 -177 344.5 -154 c 2
 344.5 -84 l 2
 344.5 -61 345.5 -60 368.5 -60 c 2
 438.5 -60 l 2
 461.5 -60 462.5 -61 462.5 -84 c 2
 462.5 -154 l 2
91 694 m 1
 221 694 l 1
 221 374 l 1
 543 694 l 1
 701 694 l 1
 423 418 l 1
 716 0 l 1
 568 0 l 1
 336 332 l 1
 221 217 l 1
 221 0 l 1
 91 0 l 1
 91 694 l 1
EndSplineSet
Validated: 1
Position2: "'cpsp' +AKsDkQPBA7EDrwPJA8MDtwC7 +A5oDtQPGA7EDuwOxA68DyQO9 lookup 0 subtable" dx=7 dy=0 dh=14 dv=0
EndChar

StartChar: kcommaaccent
Encoding: 311 311 243
Width: 531
GlyphClass: 2
Flags: MW
HStem: -292 21G -197 118 0 21G<69 183 69 69 376 376 376 510> 674 20G<69 186 186 186>
VStem: 69 117<315 694 315 694 315 694>
LayerCount: 2
Fore
SplineSet
348.5 -154 m 2
 348.5 -169 348.5 -171 340.5 -183 c 2
 293.5 -258 l 2
 284.5 -273 283.5 -273 265.5 -273 c 2
 254.5 -273 l 2
 240.5 -273 231.5 -273 231.5 -262 c 2
 245.5 -221 l 2
 251.5 -207 255.5 -192 261.5 -178 c 1
 231.5 -178 230.5 -177 230.5 -154 c 2
 230.5 -84 l 2
 230.5 -61 231.5 -60 254.5 -60 c 2
 324.5 -60 l 2
 347.5 -60 348.5 -61 348.5 -84 c 2
 348.5 -154 l 2
183 155 m 1
 183 0 l 1
 69 0 l 1
 69 694 l 1
 186 694 l 1
 186 315 l 1
 336 472 l 1
 486 472 l 1
 315 293 l 1
 510 0 l 1
 376 0 l 1
 236 210 l 1
 183 155 l 1
EndSplineSet
Validated: 1
EndChar

StartChar: Lacute
Encoding: 313 313 244
Width: 581
GlyphClass: 2
Flags: MW
HStem: 0 101 674 20G<91 238 238 238> 756 21G 865 20G
VStem: 91 147<105 694 105 694 105 694>
LayerCount: 2
Fore
SplineSet
500.5 921 m 0
 500.5 915 494.5 910 489.5 906 c 2
 330.5 777 l 1
 293.5 777 l 2
 277.5 777 266.5 777 266.5 790 c 1
 266.5 790 266.5 794 275.5 805 c 2
 361.5 922 l 2
 370.5 933 371.5 934 391.5 934 c 2
 473.5 934 l 2
 489.5 934 500.5 934 500.5 921 c 0
91 694 m 1
 238 694 l 1
 238 105 l 1
 533 105 l 1
 533 0 l 1
 91 0 l 1
 91 694 l 1
EndSplineSet
Validated: 1
Position2: "'cpsp' +AKsDkQPBA7EDrwPJA8MDtwC7 +A5oDtQPGA7EDuwOxA68DyQO9 lookup 0 subtable" dx=7 dy=0 dh=14 dv=0
EndChar

StartChar: lacute
Encoding: 314 314 245
Width: 256
GlyphClass: 2
Flags: MW
HStem: 0 21G<59 192 59 59> 674 20G<59 192 192 192> 756 21G 865 20G
VStem: 61 133
LayerCount: 2
Fore
SplineSet
91 767 m 0
 91 774 98 781 184 897 c 0
 191 906 194 912 210 912 c 2
 300 912 l 2
 314 912 323 910 324 898 c 0
 323 890 318 888 285 861 c 0
 154 754 162 754 140 754 c 2
 111 754 l 2
 106 754 91 754 91 767 c 0
59 694 m 1
 192 694 l 1
 192 0 l 1
 59 0 l 1
 59 694 l 1
EndSplineSet
Validated: 1
Substitution2: "'smcp' +A6ADtQO2A6wA +A8MDtQAA +A8ADtQO2A6wA +A7oDtQPGA7EDuwOxA68DsQAA lookup 12 subtable" Lacute.sc
EndChar

StartChar: Lcommaaccent
Encoding: 315 315 246
Width: 581
GlyphClass: 2
Flags: MW
HStem: -292 21G -197 118 0 101 674 20G<91 238 238 238>
VStem: 91 147<105 694 105 694 105 694>
LayerCount: 2
Fore
SplineSet
371 -154 m 2
 371 -169 371 -171 363 -183 c 2
 316 -258 l 2
 307 -273 306 -273 288 -273 c 2
 277 -273 l 2
 263 -273 254 -273 254 -262 c 2
 268 -221 l 2
 274 -207 278 -192 284 -178 c 1
 254 -178 253 -177 253 -154 c 2
 253 -84 l 2
 253 -61 254 -60 277 -60 c 2
 347 -60 l 2
 370 -60 371 -61 371 -84 c 2
 371 -154 l 2
91 694 m 1
 238 694 l 1
 238 105 l 1
 533 105 l 1
 533 0 l 1
 91 0 l 1
 91 694 l 1
EndSplineSet
Validated: 1
Position2: "'cpsp' +AKsDkQPBA7EDrwPJA8MDtwC7 +A5oDtQPGA7EDuwOxA68DyQO9 lookup 0 subtable" dx=7 dy=0 dh=14 dv=0
EndChar

StartChar: lcommaaccent
Encoding: 316 316 247
Width: 256
GlyphClass: 2
Flags: MW
HStem: -292 21G -197 118 0 21G<59 192 59 59> 674 20G<59 192 192 192>
VStem: 61 133
LayerCount: 2
Fore
SplineSet
184.5 -154 m 2
 184.5 -169 184.5 -171 176.5 -183 c 2
 129.5 -258 l 2
 120.5 -273 119.5 -273 101.5 -273 c 2
 90.5 -273 l 2
 76.5 -273 67.5 -273 67.5 -262 c 2
 81.5 -221 l 2
 87.5 -207 91.5 -192 97.5 -178 c 1
 67.5 -178 66.5 -177 66.5 -154 c 2
 66.5 -84 l 2
 66.5 -61 67.5 -60 90.5 -60 c 2
 160.5 -60 l 2
 183.5 -60 184.5 -61 184.5 -84 c 2
 184.5 -154 l 2
59 694 m 1
 192 694 l 1
 192 0 l 1
 59 0 l 1
 59 694 l 1
EndSplineSet
Validated: 1
EndChar

StartChar: Lcaron
Encoding: 317 317 248
Width: 581
GlyphClass: 2
Flags: MW
HStem: 0 101 481 21G<637.5 645 645 665> 576 118
VStem: 91 147<105 694 105 694 105 694>
LayerCount: 2
Fore
SplineSet
623 608 m 2
 623 684 l 2
 623 709 624 717 644 717 c 2
 732 717 l 2
 751 717 754 712 754 695 c 2
 754 609 l 2
 754 591 753 591 697 502 c 0
 686 485 684 481 665 481 c 2
 645 481 l 2
 630 481 625 486 625 494 c 0
 625 503 630 513 657 586 c 1
 645 586 l 2
 633 586 623 588 623 608 c 2
91 694 m 1
 238 694 l 1
 238 105 l 1
 533 105 l 1
 533 0 l 1
 91 0 l 1
 91 694 l 1
EndSplineSet
Validated: 1
Position2: "'cpsp' +AKsDkQPBA7EDrwPJA8MDtwC7 +A5oDtQPGA7EDuwOxA68DyQO9 lookup 0 subtable" dx=7 dy=0 dh=14 dv=0
EndChar

StartChar: lcaron
Encoding: 318 318 249
Width: 256
GlyphClass: 2
Flags: MW
HStem: 0 21G<59 192 59 59> 481 21G 576 118
VStem: 61 133
LayerCount: 2
Fore
SplineSet
282 585 m 2
 282 661 l 2
 282 686 283 694 303 694 c 2
 391 694 l 2
 410 694 413 689 413 672 c 2
 413 586 l 2
 413 568 412 568 356 479 c 0
 345 462 343 458 324 458 c 2
 304 458 l 2
 289 458 284 463 284 471 c 0
 284 480 289 490 316 563 c 1
 304 563 l 2
 292 563 282 565 282 585 c 2
59 694 m 1
 192 694 l 1
 192 0 l 1
 59 0 l 1
 59 694 l 1
EndSplineSet
Validated: 1
Substitution2: "'smcp' +A6ADtQO2A6wA +A8MDtQAA +A8ADtQO2A6wA +A7oDtQPGA7EDuwOxA68DsQAA lookup 12 subtable" Lcaron.sc
EndChar

StartChar: Ldot
Encoding: 319 319 250
Width: 581
GlyphClass: 2
Flags: HMW
HStem: 0 101 311 115 674 20G<91 238 238 238>
VStem: 91 147<105 694 105 694 105 694> 381 147
LayerCount: 2
Fore
SplineSet
527.5 320 m 6
 527.5 294 526.5 293 500.5 293 c 6
 423.5 293 l 6
 397.5 293 396.5 294 396.5 320 c 6
 396.5 397 l 6
 396.5 423 397.5 424 423.5 424 c 6
 500.5 424 l 6
 526.5 424 527.5 423 527.5 397 c 6
 527.5 320 l 6
91 694 m 1
 238 694 l 1
 238 105 l 1
 533 105 l 1
 533 0 l 1
 91 0 l 1
 91 694 l 1
EndSplineSet
Position2: "'cpsp' +AKsDkQPBA7EDrwPJA8MDtwC7 +A5oDtQPGA7EDuwOxA68DyQO9 lookup 0 subtable" dx=7 dy=0 dh=14 dv=0
EndChar

StartChar: ldot
Encoding: 320 320 251
Width: 456
GlyphClass: 2
Flags: HMW
HStem: 0 21G<59 192 59 59> 311 115 674 20G<59 192 192 192>
VStem: 61 133 266 147
LayerCount: 2
Fore
SplineSet
399 309 m 2
 399 283 398 282 372 282 c 2
 295 282 l 2
 269 282 268 283 268 309 c 2
 268 386 l 2
 268 412 269 413 295 413 c 2
 372 413 l 2
 398 413 399 412 399 386 c 2
 399 309 l 2
59 694 m 1
 192 694 l 1
 192 0 l 1
 59 0 l 1
 59 694 l 1
EndSplineSet
EndChar

StartChar: Lslash
Encoding: 321 321 252
Width: 672
GlyphClass: 2
Flags: MW
HStem: 0 103 674 20G<231 282 282 302.5>
VStem: 135 147 183 147<101 243 243 243 482 646>
LayerCount: 2
Fore
SplineSet
626 48 m 2x10
 626 13 616 0 578 0 c 2
 231 0 l 2
 194 0 183 12 183 48 c 2
 183 243 l 1x90
 135 205 l 2x20
 123 195 108 198 98 210 c 2
 72 244 l 2
 62 256 64 271 76 281 c 2
 183 366 l 1
 183 646 l 2x10
 183 683 195 694 231 694 c 2
 282 694 l 2x60
 323 694 330 678 330 646 c 2
 330 482 l 1
 448 575 l 2
 461 585 477 583 486 571 c 2
 512 538 l 2
 522 526 520 510 508 500 c 2
 330 359 l 1
 330 101 l 1
 579 105 l 2
 625 105 626 80 626 57 c 2
 626 48 l 2x10
EndSplineSet
Validated: 33
Position2: "'cpsp' +AKsDkQPBA7EDrwPJA8MDtwC7 +A5oDtQPGA7EDuwOxA68DyQO9 lookup 0 subtable" dx=7 dy=0 dh=14 dv=0
EndChar

StartChar: lslash
Encoding: 322 322 253
Width: 381
GlyphClass: 2
Flags: MW
HStem: 0 21G<146.5 165 165 202> 674 20G<165 202 202 222.5>
VStem: 117 133<48 295 295 295 390 401 496 646>
LayerCount: 2
Fore
SplineSet
367 541 m 0
 379 526 377 503 361 490 c 2
 250 401 l 1
 250 48 l 2
 250 13 240 0 202 0 c 2
 165 0 l 2
 128 0 117 12 117 48 c 2
 117 295 l 1
 75 261 l 2
 58 247 35 251 22 267 c 0
 10 283 12 306 28 319 c 2
 117 390 l 1
 117 646 l 2
 117 683 129 694 165 694 c 2
 202 694 l 2
 243 694 250 678 250 646 c 2
 250 496 l 1
 314 547 l 2
 332 561 354 557 367 541 c 0
EndSplineSet
Validated: 33
Substitution2: "'smcp' +A6ADtQO2A6wA +A8MDtQAA +A8ADtQO2A6wA +A7oDtQPGA7EDuwOxA68DsQAA lookup 12 subtable" Lslash.sc
EndChar

StartChar: Nacute
Encoding: 323 323 254
Width: 794
GlyphClass: 2
Flags: MW
HStem: 0 21G<91 91 91 214 510 510 510 701> 674 20G<91 282 282 282 579 701 701 701> 756 21G 865 20G
VStem: 91 123<0 575 0 694 0 694> 579 123
LayerCount: 2
Fore
SplineSet
584.5 921 m 0
 584.5 915 578.5 910 573.5 906 c 2
 414.5 777 l 1
 377.5 777 l 2
 361.5 777 350.5 777 350.5 790 c 1
 350.5 790 350.5 794 359.5 805 c 2
 445.5 922 l 2
 454.5 933 455.5 934 475.5 934 c 2
 557.5 934 l 2
 573.5 934 584.5 934 584.5 921 c 0
91 0 m 1
 91 694 l 1
 282 694 l 1
 579 119 l 1
 579 694 l 1
 701 694 l 1
 701 0 l 1
 510 0 l 1
 214 575 l 1
 214 0 l 1
 91 0 l 1
EndSplineSet
Validated: 1
Position2: "'cpsp' +AKsDkQPBA7EDrwPJA8MDtwC7 +A5oDtQPGA7EDuwOxA68DyQO9 lookup 0 subtable" dx=7 dy=0 dh=14 dv=0
EndChar

StartChar: nacute
Encoding: 324 324 255
Width: 561
GlyphClass: 2
Flags: MW
HStem: 0 21G<59 195 59 59 364 500 364 364> 325 72 397 72 537 21G 674 20G
VStem: 60 136 364 136<0 324 0 354>
LayerCount: 2
Fore
SplineSet
245 562 m 0x00
 245 569 252 576 338 692 c 0
 345 701 348 707 364 707 c 2
 454 707 l 2
 468 707 477 705 478 693 c 0
 477 685 472 683 439 656 c 0
 308 549 316 549 294 549 c 2
 265 549 l 2
 260 549 245 549 245 562 c 0x00
59 478 m 1
 190 478 l 1
 190 372 l 1
 219 437 277 483 348 483 c 0
 461 483 500 437 500 324 c 2
 500 0 l 1
 364 0 l 1
 364 324 l 2
 364 384 349 411 295 411 c 0
 235 411 195 350 195 278 c 2
 195 0 l 1
 59 0 l 1
 59 478 l 1
EndSplineSet
Validated: 1
Substitution2: "'smcp' +A6ADtQO2A6wA +A8MDtQAA +A8ADtQO2A6wA +A7oDtQPGA7EDuwOxA68DsQAA lookup 12 subtable" Nacute.sc
EndChar

StartChar: Ncommaaccent
Encoding: 325 325 256
Width: 794
GlyphClass: 2
Flags: MW
HStem: -292 21G -197 118 0 21G<91 91 91 214 510 510 510 701> 674 20G<91 282 282 282 579 701 701 701>
VStem: 91 123<0 575 0 694 0 694> 579 123
LayerCount: 2
Fore
SplineSet
455 -154 m 2
 455 -169 455 -171 447 -183 c 2
 400 -258 l 2
 391 -273 390 -273 372 -273 c 2
 361 -273 l 2
 347 -273 338 -273 338 -262 c 2
 352 -221 l 2
 358 -207 362 -192 368 -178 c 1
 338 -178 337 -177 337 -154 c 2
 337 -84 l 2
 337 -61 338 -60 361 -60 c 2
 431 -60 l 2
 454 -60 455 -61 455 -84 c 2
 455 -154 l 2
91 0 m 1
 91 694 l 1
 282 694 l 1
 579 119 l 1
 579 694 l 1
 701 694 l 1
 701 0 l 1
 510 0 l 1
 214 575 l 1
 214 0 l 1
 91 0 l 1
EndSplineSet
Validated: 1
Position2: "'cpsp' +AKsDkQPBA7EDrwPJA8MDtwC7 +A5oDtQPGA7EDuwOxA68DyQO9 lookup 0 subtable" dx=7 dy=0 dh=14 dv=0
EndChar

StartChar: ncommaaccent
Encoding: 326 326 257
Width: 561
GlyphClass: 2
Flags: MW
HStem: -292 21G -197 118 0 21G<59 195 59 59 364 500 364 364> 325 72 397 72
VStem: 60 136 364 136<0 324 0 354>
LayerCount: 2
Fore
SplineSet
338.5 -154 m 2x00
 338.5 -169 338.5 -171 330.5 -183 c 2
 283.5 -258 l 2
 274.5 -273 273.5 -273 255.5 -273 c 2
 244.5 -273 l 2
 230.5 -273 221.5 -273 221.5 -262 c 2
 235.5 -221 l 2
 241.5 -207 245.5 -192 251.5 -178 c 1
 221.5 -178 220.5 -177 220.5 -154 c 2
 220.5 -84 l 2
 220.5 -61 221.5 -60 244.5 -60 c 2
 314.5 -60 l 2
 337.5 -60 338.5 -61 338.5 -84 c 2
 338.5 -154 l 2x00
59 478 m 1
 190 478 l 1
 190 372 l 1
 219 437 277 483 348 483 c 0
 461 483 500 437 500 324 c 2
 500 0 l 1
 364 0 l 1
 364 324 l 2
 364 384 349 411 295 411 c 0
 235 411 195 350 195 278 c 2
 195 0 l 1
 59 0 l 1
 59 478 l 1
EndSplineSet
Validated: 1
EndChar

StartChar: Ncaron
Encoding: 327 327 258
Width: 794
GlyphClass: 2
Flags: MW
HStem: 0 21G<91 91 91 214 510 510 510 701> 674 20G<91 282 282 282 579 701 701 701> 746 21G 853 20G
VStem: 91 123<0 575 0 694 0 694> 579 123
LayerCount: 2
Fore
SplineSet
568.374023438 884 m 2
 458.374023438 780 l 2
 456.374023438 778 453.374023438 777 450.374023438 777 c 2
 339.374023438 777 l 2
 336.374023438 777 333.374023438 778 331.374023438 780 c 2
 223.374023438 882 l 2
 215.374023438 889 221.374023438 904 232.374023438 904 c 2
 279.374023438 904 l 1
 284.374023438 903 l 1
 396.374023438 822 l 1
 508.374023438 903 l 1
 513.374023438 904 l 1
 560.374023438 904 l 2
 571.374023438 904 576.374023438 891 568.374023438 884 c 2
91 0 m 1
 91 694 l 1
 282 694 l 1
 579 119 l 1
 579 694 l 1
 701 694 l 1
 701 0 l 1
 510 0 l 1
 214 575 l 1
 214 0 l 1
 91 0 l 1
EndSplineSet
Validated: 1
Position2: "'cpsp' +AKsDkQPBA7EDrwPJA8MDtwC7 +A5oDtQPGA7EDuwOxA68DyQO9 lookup 0 subtable" dx=7 dy=0 dh=14 dv=0
EndChar

StartChar: ncaron
Encoding: 328 328 259
Width: 561
GlyphClass: 2
Flags: MW
HStem: 0 21G<59 195 59 59 364 500 364 364> 325 72 397 72 535 21G 677 20G<113.5 114.5 114.5 184.5 184.5 185.5 185.5 185.5 373.5 374.5 374.5 444.5 444.5 445.5 445.5 445.5>
VStem: 60 136 364 136<0 324 0 354>
LayerCount: 2
Fore
SplineSet
444.5 697 m 1x00
 445.5 697 l 1
 333.5 549 l 1
 225.5 549 l 1
 113.5 697 l 1
 114.5 697 l 1
 184.5 697 l 1
 185.5 697 l 1
 279.5 612 l 1
 373.5 697 l 1
 374.5 697 l 1
 444.5 697 l 1x00
59 478 m 1
 190 478 l 1
 190 372 l 1
 219 437 277 483 348 483 c 0
 461 483 500 437 500 324 c 2
 500 0 l 1
 364 0 l 1
 364 324 l 2
 364 384 349 411 295 411 c 0
 235 411 195 350 195 278 c 2
 195 0 l 1
 59 0 l 1
 59 478 l 1
EndSplineSet
Validated: 1
Substitution2: "'smcp' +A6ADtQO2A6wA +A8MDtQAA +A8ADtQO2A6wA +A7oDtQPGA7EDuwOxA68DsQAA lookup 12 subtable" Ncaron.sc
EndChar

StartChar: Eng
Encoding: 330 330 260
Width: 794
GlyphClass: 2
Flags: MW
HStem: 0 21G<120.5 139 139 190> 580 136<400.5 485>
VStem: 91 99<0 646> 139 99<0 48> 555 148<301 403>
LayerCount: 2
Fore
SplineSet
703 347 m 0x60
 703 177 623 12 482 -17 c 0
 458 -22 437 -2 437 23 c 2
 437 69 l 2
 437 94 458 112 481 125 c 0
 540 156 555 255 555 347 c 0
 555 459 533 580 437 580 c 0
 346 580 260 532 238 456 c 1
 238 48 l 2x58
 238 13 228 0 190 0 c 2xa0
 139 0 l 2x90
 102 0 91 12 91 48 c 2
 91 646 l 2x20
 91 683 103 694 139 694 c 2x10
 190 694 l 2
 225 694 235 683 237 660 c 1
 294 696 364 716 437 716 c 0
 606 716 703 535 703 347 c 0x60
EndSplineSet
Validated: 33
Position2: "'cpsp' +AKsDkQPBA7EDrwPJA8MDtwC7 +A5oDtQPGA7EDuwOxA68DyQO9 lookup 0 subtable" dx=7 dy=0 dh=14 dv=0
EndChar

StartChar: eng
Encoding: 331 331 261
Width: 561
GlyphClass: 2
Flags: MW
HStem: 0 21G<89.5 108 108 148> 325 72 397 72<301.5 330>
VStem: 60 136<48 269> 364 136<48 323 323 325>
LayerCount: 2
Fore
SplineSet
500 48 m 2x48
 500 -62 444 -166 354 -192 c 0
 331 -199 309 -179 309 -153 c 2
 309 -144 l 1
 348 -75 l 2
 364 -47 364 3 364 48 c 2
 364 323 l 2
 364 374 354 397 306 397 c 0
 254 397 196 356 196 269 c 2
 196 48 l 2
 196 13 186 0 148 0 c 2
 108 0 l 2
 71 0 60 12 60 48 c 2
 60 416 l 2
 60 453 72 464 108 464 c 2
 142 464 l 2
 183 464 190 448 190 416 c 2
 190 366 l 1
 191 366 l 1
 204 393 249 469 354 469 c 0xb8
 456 469 500 428 500 325 c 2
 500 48 l 2x48
EndSplineSet
Validated: 33
Substitution2: "'ss05' Style Set 5 lookup 23 IPA alts-1" eng.ipa
Substitution2: "'smcp' +A6ADtQO2A6wA +A8MDtQAA +A8ADtQO2A6wA +A7oDtQPGA7EDuwOxA68DsQAA lookup 12 subtable" Eng.sc
EndChar

StartChar: Omacron
Encoding: 332 332 262
Width: 794
GlyphClass: 2
Flags: MW
HStem: -22 80<349.5 443> 638 78 766 85
VStem: 61 147<296 392.5> 585 147
LayerCount: 2
Fore
SplineSet
594.5 804 m 2
 594.5 778 593.5 777 567.5 777 c 2
 224.5 777 l 2
 198.5 777 197.5 778 197.5 804 c 2
 197.5 835 l 2
 197.5 861 198.5 862 224.5 862 c 2
 567.5 862 l 2
 593.5 862 594.5 861 594.5 835 c 2
 594.5 804 l 2
396 717 m 0
 490 717 585 693 648 623 c 0
 715 547 731 443 731 342 c 0
 731 243 714 141 648 69 c 0
 585 0 490 -22 396 -22 c 0
 303 -22 208 0 145 69 c 0
 78 141 61 243 61 342 c 0
 61 443 77 547 145 623 c 0
 207 693 302 717 396 717 c 0
396 639 m 0
 340 639 284 618 252 571 c 0
 211 510 208 434 208 361 c 0
 208 231 227 58 396 58 c 0
 564 58 584 231 584 361 c 0
 584 487 559 639 396 639 c 0
EndSplineSet
Validated: 1
Position2: "'cpsp' +AKsDkQPBA7EDrwPJA8MDtwC7 +A5oDtQPGA7EDuwOxA68DyQO9 lookup 0 subtable" dx=7 dy=0 dh=14 dv=0
EndChar

StartChar: omacron
Encoding: 333 333 263
Width: 550
GlyphClass: 2
Flags: MW
HStem: -11 78<240.5 307.5> 403 72 573 85
VStem: 31 136 382 136
LayerCount: 2
Fore
SplineSet
75.5029296875 594 m 2
 75.5029296875 608 l 2
 75.5029296875 625 77.5029296875 634 96.5029296875 634 c 2
 451.502929688 634 l 2
 463.502929688 634 471.502929688 631 472.502929688 616 c 2
 472.502929688 571 l 2
 472.502929688 555 468.502929688 550 452.502929688 549 c 2
 97.5029296875 549 l 2
 74.5029296875 549 75.5029296875 555 75.5029296875 594 c 2
274 489 m 0
 342 489 411 473 457 424 c 0
 505 373 518 301 518 231 c 0
 518 164 504 96 457 49 c 0
 409 2 341 -11 274 -11 c 0
 207 -11 139 2 91 49 c 0
 44 96 30 164 30 231 c 0
 30 301 43 373 91 424 c 0
 137 473 206 489 274 489 c 0
274 417 m 0
 174 417 167 331 167 246 c 0
 167 156 173 67 274 67 c 0
 375 67 381 156 381 246 c 0
 381 331 374 417 274 417 c 0
EndSplineSet
Validated: 33
EndChar

StartChar: Obreve
Encoding: 334 334 264
Width: 794
GlyphClass: 2
Flags: MW
HStem: -22 80<349.5 443> 638 78 756 93 878 20G
VStem: 61 147<296 392.5> 585 147
LayerCount: 2
Fore
SplineSet
584.5 881 m 0
 584.5 777 442.5 777 395.5 777 c 0
 350.5 777 207.5 777 207.5 881 c 0
 207.5 907 227.5 919 243.5 919 c 0
 249.5 919 276.5 917 279.5 883 c 1
 305.5 870 345.5 870 396.5 870 c 0
 445.5 870 486.5 870 512.5 883 c 1
 515.5 917 542.5 919 548.5 919 c 0
 563.5 919 584.5 908 584.5 881 c 0
396 717 m 0
 490 717 585 693 648 623 c 0
 715 547 731 443 731 342 c 0
 731 243 714 141 648 69 c 0
 585 0 490 -22 396 -22 c 0
 303 -22 208 0 145 69 c 0
 78 141 61 243 61 342 c 0
 61 443 77 547 145 623 c 0
 207 693 302 717 396 717 c 0
396 639 m 0
 340 639 284 618 252 571 c 0
 211 510 208 434 208 361 c 0
 208 231 227 58 396 58 c 0
 564 58 584 231 584 361 c 0
 584 487 559 639 396 639 c 0
EndSplineSet
Validated: 1
Position2: "'cpsp' +AKsDkQPBA7EDrwPJA8MDtwC7 +A5oDtQPGA7EDuwOxA68DyQO9 lookup 0 subtable" dx=7 dy=0 dh=14 dv=0
EndChar

StartChar: obreve
Encoding: 335 335 265
Width: 550
GlyphClass: 2
Flags: MW
HStem: -11 78<240.5 307.5> 403 72 545 93 667 20G
VStem: 31 136 382 136
LayerCount: 2
Fore
SplineSet
86 721 m 1
 158 721 l 1
 158 669 216 642 274 642 c 0
 332 642 390 669 390 721 c 1
 462 721 l 1
 462 623 375 549 274 549 c 0
 173 549 86 623 86 721 c 1
274 489 m 0
 342 489 411 473 457 424 c 0
 505 373 518 301 518 231 c 0
 518 164 504 96 457 49 c 0
 409 2 341 -11 274 -11 c 0
 207 -11 139 2 91 49 c 0
 44 96 30 164 30 231 c 0
 30 301 43 373 91 424 c 0
 137 473 206 489 274 489 c 0
274 417 m 0
 174 417 167 331 167 246 c 0
 167 156 173 67 274 67 c 0
 375 67 381 156 381 246 c 0
 381 331 374 417 274 417 c 0
EndSplineSet
Validated: 1
EndChar

StartChar: Ohungarumlaut
Encoding: 336 336 266
Width: 794
GlyphClass: 2
Flags: MW
HStem: -22 80<349.5 443> 638 78 756 21G 893 20G<287.5 287.5 470.5 470.5>
VStem: 61 147<296 392.5> 585 147
LayerCount: 2
Fore
SplineSet
425.5 921 m 1
 425.5 921 425.5 917 417.5 905 c 2
 343.5 791 l 2
 334.5 778 333.5 777 313.5 777 c 2
 295.5 777 l 2
 279.5 777 268.5 777 268.5 791 c 2
 287.5 913 l 2
 290.5 934 294.5 934 316.5 934 c 2
 398.5 934 l 2
 414.5 934 425.5 934 425.5 921 c 1
608.5 921 m 1
 608.5 921 608.5 917 600.5 905 c 2
 526.5 791 l 2
 517.5 778 516.5 777 496.5 777 c 2
 478.5 777 l 2
 462.5 777 451.5 777 451.5 791 c 2
 470.5 913 l 2
 473.5 934 477.5 934 499.5 934 c 2
 581.5 934 l 2
 597.5 934 608.5 934 608.5 921 c 1
396 717 m 0
 490 717 585 693 648 623 c 0
 715 547 731 443 731 342 c 0
 731 243 714 141 648 69 c 0
 585 0 490 -22 396 -22 c 0
 303 -22 208 0 145 69 c 0
 78 141 61 243 61 342 c 0
 61 443 77 547 145 623 c 0
 207 693 302 717 396 717 c 0
396 639 m 0
 340 639 284 618 252 571 c 0
 211 510 208 434 208 361 c 0
 208 231 227 58 396 58 c 0
 564 58 584 231 584 361 c 0
 584 487 559 639 396 639 c 0
EndSplineSet
Validated: 1
Position2: "'cpsp' +AKsDkQPBA7EDrwPJA8MDtwC7 +A5oDtQPGA7EDuwOxA68DyQO9 lookup 0 subtable" dx=7 dy=0 dh=14 dv=0
EndChar

StartChar: ohungarumlaut
Encoding: 337 337 267
Width: 550
GlyphClass: 2
Flags: MW
HStem: -11 78<240.5 307.5> 403 72 537 21G 674 20G
VStem: 31 136 382 136
LayerCount: 2
Fore
SplineSet
146.5 550 m 1
 168.5 696 l 1
 169.5 697 l 1
 304.5 697 l 1
 218.5 550 l 2
 218.5 549 218.5 549 217.5 549 c 2
 217.5 549 146.5 550 146.5 550 c 1
329.5 550 m 1
 351.5 696 l 1
 352.5 696 l 1
 487.5 696 l 1
 401.5 550 l 2
 401.5 549 400.5 549 400.5 549 c 1
 400.5 549 329.5 550 329.5 550 c 1
274 489 m 0
 342 489 411 473 457 424 c 0
 505 373 518 301 518 231 c 0
 518 164 504 96 457 49 c 0
 409 2 341 -11 274 -11 c 0
 207 -11 139 2 91 49 c 0
 44 96 30 164 30 231 c 0
 30 301 43 373 91 424 c 0
 137 473 206 489 274 489 c 0
274 417 m 0
 174 417 167 331 167 246 c 0
 167 156 173 67 274 67 c 0
 375 67 381 156 381 246 c 0
 381 331 374 417 274 417 c 0
EndSplineSet
Validated: 1
Substitution2: "'smcp' +A6ADtQO2A6wA +A8MDtQAA +A8ADtQO2A6wA +A7oDtQPGA7EDuwOxA68DsQAA lookup 12 subtable" Ohungarumlaut.sc
EndChar

StartChar: OE
Encoding: 338 338 268
Width: 1069
GlyphClass: 2
Flags: W
LayerCount: 2
Fore
SplineSet
591 0 m 2
 525 0 461 -22 396 -22 c 0
 296 -22 193 -2 122 69 c 0
 51 139 30 242 30 342 c 0
 30 444 50 550 122 623 c 0
 192 695 296 717 396 717 c 0
 461 717 525 694 591 694 c 2
 1006 694 l 1
 1006 594 l 1
 663 594 l 1
 663 408 l 1
 976 408 l 1
 976 314 l 1
 663 314 l 1
 663 110 l 1
 1022 110 l 1
 1022 0 l 1
 591 0 l 2
518 463 m 2
 518 514 518 579 496 612 c 0
 476 643 434 644 396 644 c 0
 333 644 268 623 230 574 c 0
 184 514 175 436 175 361 c 0
 175 279 183 195 230 128 c 0
 267 75 332 50 396 50 c 0
 434 50 475 52 496 83 c 0
 518 115 518 179 518 231 c 2
 518 463 l 2
EndSplineSet
Validated: 1
EndChar

StartChar: oe
Encoding: 339 339 269
Width: 856
GlyphClass: 2
Flags: W
LayerCount: 2
Fore
SplineSet
776 432 m 0
 817 382 823 315 823 250 c 1
 525 250 l 1
 525 239 l 2
 525 158 547 61 642 61 c 0
 704 61 763 85 807 129 c 1
 809 129 l 1
 817 39 l 2
 817 38 817 38 816 38 c 0
 764 6 704 -11 642 -11 c 0
 575 -11 507 2 458 46 c 1
 413 5 349 -11 277 -11 c 0
 113 -11 30 79 30 239 c 0
 30 400 115 489 277 489 c 0
 348 489 411 473 456 433 c 1
 501 475 565 489 627 489 c 0
 683 489 741 475 776 432 c 0
367 104 m 0
 386 136 389 175 389 239 c 2
 389 246 l 2
 389 368 364 417 277 417 c 0
 186 417 161 363 161 246 c 0
 161 116 187 61 277 61 c 0
 315 61 349 75 367 104 c 0
529 303 m 1
 708 303 l 1
 704 354 685 417 627 417 c 0
 568 417 536 363 529 303 c 1
EndSplineSet
Validated: 1
EndChar

StartChar: Racute
Encoding: 340 340 270
Width: 703
GlyphClass: 2
Flags: MW
HStem: 0 21G<91 91 91 236 523 523 523 670> 311 72<236 346 236 347> 608 86<236 347 236 236> 756 21G 865 20G
VStem: 91 144 235 144 502 139
LayerCount: 2
Fore
SplineSet
417 921 m 0x00
 417 915 411 910 406 906 c 2
 247 777 l 1
 210 777 l 2
 194 777 183 777 183 790 c 1
 183 790 183 794 192 805 c 2
 278 922 l 2
 287 933 288 934 308 934 c 2
 390 934 l 2
 406 934 417 934 417 921 c 0x00
91 0 m 1
 91 694 l 1
 366 694 l 2
 497 694 640 654 640 496 c 0
 640 406 583 343 482 321 c 1
 670 0 l 1
 523 0 l 1
 346 311 l 1
 236 311 l 1
 236 0 l 1
 91 0 l 1
236 383 m 1
 347 383 l 2
 420 383 501 389 501 496 c 0
 501 602 422 608 347 608 c 2
 236 608 l 1
 236 383 l 1
EndSplineSet
Validated: 1
Position2: "'cpsp' +AKsDkQPBA7EDrwPJA8MDtwC7 +A5oDtQPGA7EDuwOxA68DyQO9 lookup 0 subtable" dx=7 dy=0 dh=14 dv=0
EndChar

StartChar: racute
Encoding: 341 341 271
Width: 372
GlyphClass: 2
Flags: MW
HStem: 0 21G<60 194 60 60> 369 95 537 21G 674 20G
VStem: 61 133
LayerCount: 2
Fore
SplineSet
173 562 m 0
 173 569 180 576 266 692 c 0
 273 701 276 707 292 707 c 2
 382 707 l 2
 396 707 405 705 406 693 c 0
 405 685 400 683 367 656 c 0
 236 549 244 549 222 549 c 2
 193 549 l 2
 188 549 173 549 173 562 c 0
194 249 m 2
 194 0 l 1
 60 0 l 1
 60 478 l 1
 188 478 l 1
 188 355 l 1
 217 430 278 483 354 483 c 0
 355 483 355 483 355 482 c 2
 355 383 l 2
 355 382 355 382 354 382 c 0
 267 382 194 326 194 249 c 2
EndSplineSet
Validated: 1
Substitution2: "'smcp' +A6ADtQO2A6wA +A8MDtQAA +A8ADtQO2A6wA +A7oDtQPGA7EDuwOxA68DsQAA lookup 12 subtable" Racute.sc
EndChar

StartChar: Rcommaaccent
Encoding: 342 342 272
Width: 703
GlyphClass: 2
Flags: MW
HStem: -292 21G -197 118 0 21G<91 91 91 236 523 523 523 670> 311 72<236 346 236 347> 608 86<236 347 236 236>
VStem: 91 144 235 144 502 139
LayerCount: 2
Fore
SplineSet
439.5 -154 m 2x00
 439.5 -169 439.5 -171 431.5 -183 c 2
 384.5 -258 l 2
 375.5 -273 374.5 -273 356.5 -273 c 2
 345.5 -273 l 2
 331.5 -273 322.5 -273 322.5 -262 c 2
 336.5 -221 l 2
 342.5 -207 346.5 -192 352.5 -178 c 1
 322.5 -178 321.5 -177 321.5 -154 c 2
 321.5 -84 l 2
 321.5 -61 322.5 -60 345.5 -60 c 2
 415.5 -60 l 2
 438.5 -60 439.5 -61 439.5 -84 c 2
 439.5 -154 l 2x00
91 0 m 1
 91 694 l 1
 366 694 l 2
 497 694 640 654 640 496 c 0
 640 406 583 343 482 321 c 1
 670 0 l 1
 523 0 l 1
 346 311 l 1
 236 311 l 1
 236 0 l 1
 91 0 l 1
236 383 m 1
 347 383 l 2
 420 383 501 389 501 496 c 0
 501 602 422 608 347 608 c 2
 236 608 l 1
 236 383 l 1
EndSplineSet
Validated: 1
Position2: "'cpsp' +AKsDkQPBA7EDrwPJA8MDtwC7 +A5oDtQPGA7EDuwOxA68DyQO9 lookup 0 subtable" dx=7 dy=0 dh=14 dv=0
EndChar

StartChar: rcommaaccent
Encoding: 343 343 273
Width: 372
GlyphClass: 2
Flags: MW
HStem: -292 21G -197 118 0 21G<60 194 60 60> 369 95
VStem: 61 133
LayerCount: 2
Fore
SplineSet
186 -154 m 2
 186 -169 186 -171 178 -183 c 2
 131 -258 l 2
 122 -273 121 -273 103 -273 c 2
 92 -273 l 2
 78 -273 69 -273 69 -262 c 2
 83 -221 l 2
 89 -207 93 -192 99 -178 c 1
 69 -178 68 -177 68 -154 c 2
 68 -84 l 2
 68 -61 69 -60 92 -60 c 2
 162 -60 l 2
 185 -60 186 -61 186 -84 c 2
 186 -154 l 2
194 249 m 2
 194 0 l 1
 60 0 l 1
 60 478 l 1
 188 478 l 1
 188 355 l 1
 217 430 278 483 354 483 c 0
 355 483 355 483 355 482 c 2
 355 383 l 2
 355 382 355 382 354 382 c 0
 267 382 194 326 194 249 c 2
EndSplineSet
Validated: 1
EndChar

